/* XPM */
static char *cd0ad87d5a914d09bca8d3d0a5b02b56ORwhA4JzPLBZYwpF[] = {
/* columns rows colors chars-per-pixel */
"64 64 194 2 ",
"   c #0D0608",
".  c #0E0A0C",
"X  c #120C0C",
"o  c #16100B",
"O  c #18120D",
"+  c #0E0D10",
"@  c #130D11",
"#  c #1D0F15",
"$  c #1F1412",
"%  c #181516",
"&  c #14161A",
"*  c #1B181D",
"=  c #26110F",
"-  c #29190F",
";  c #231516",
":  c #251A14",
">  c #311C1C",
",  c #23221F",
"<  c #382418",
"1  c #382419",
"2  c #362B1E",
"3  c #3B2A18",
"4  c #1E1723",
"5  c #1C1B23",
"6  c #211C26",
"7  c #271E2C",
"8  c #291F2F",
"9  c #291F30",
"0  c #272728",
"q  c #25222D",
"w  c #29212E",
"e  c #3B2A23",
"r  c #342428",
"t  c #36292A",
"y  c #3D332A",
"u  c #272230",
"i  c #292230",
"p  c #252A31",
"a  c #2D2B34",
"s  c #342332",
"d  c #332B3A",
"f  c #2E3138",
"g  c #393335",
"h  c #36363B",
"j  c #34323C",
"k  c #3C333B",
"l  c #3C393E",
"z  c #41261B",
"x  c #4E331D",
"c  c #462C27",
"v  c #572E2D",
"b  c #4B3728",
"n  c #513A23",
"m  c #4C2D32",
"M  c #423730",
"N  c #493A38",
"B  c #5B3A3B",
"V  c #683734",
"C  c #7E3A31",
"Z  c #5A442B",
"A  c #714728",
"S  c #764532",
"D  c #70593A",
"F  c #2F3443",
"G  c #363340",
"H  c #3D3344",
"J  c #3B3A45",
"K  c #3E3649",
"L  c #3E3E4B",
"P  c #403545",
"I  c #423E4C",
"U  c #3E414B",
"Y  c #3F4450",
"T  c #404047",
"R  c #43434E",
"E  c #434350",
"W  c #6D5842",
"Q  c #6C4A50",
"!  c #765854",
"~  c #7F6746",
"^  c #894F3E",
"/  c #994939",
"(  c #825A37",
")  c #A84E3E",
"_  c #A4503A",
"`  c #B5593A",
"'  c #846733",
"]  c #96683D",
"[  c #C06E3F",
"{  c #CD6C3A",
"}  c #CB7637",
"|  c #CE7139",
" . c #D7783F",
".. c #895657",
"X. c #A95945",
"o. c #846A4B",
"O. c #89744E",
"+. c #A67D48",
"@. c #B07742",
"#. c #BD6555",
"$. c #BF7655",
"%. c #A47264",
"&. c #B87871",
"*. c #C56D41",
"=. c #D16F40",
"-. c #C57347",
";. c #CB7548",
":. c #D67C41",
">. c #DA7D44",
",. c #D67B48",
"<. c #C66C51",
"1. c #C87863",
"2. c #D38F3A",
"3. c #B6884A",
"4. c #BF914A",
"5. c #B9935E",
"6. c #978566",
"7. c #A9926B",
"8. c #BB9867",
"9. c #A0897D",
"0. c #CD8E4D",
"q. c #DB8345",
"w. c #D48947",
"e. c #DC844B",
"r. c #DE8B4B",
"t. c #D6924B",
"y. c #DD984C",
"u. c #DD8851",
"i. c #C89B55",
"p. c #D79A55",
"a. c #E1864B",
"s. c #E48E4C",
"d. c #EA8E4D",
"f. c #E69548",
"g. c #E5914C",
"h. c #E8964E",
"j. c #EA9B4D",
"k. c #E98C52",
"l. c #E59251",
"z. c #E49B53",
"x. c #EA9C52",
"c. c #EF9E59",
"v. c #D6A04A",
"b. c #CDA352",
"n. c #DBA859",
"m. c #EDA34D",
"M. c #F3AD4E",
"N. c #FABA4F",
"B. c #E4A753",
"V. c #EBA353",
"C. c #E5A359",
"Z. c #F5AB54",
"A. c #F5AC54",
"S. c #FAAD58",
"D. c #ECB557",
"F. c #F4B654",
"G. c #F9B354",
"H. c #F7BA53",
"J. c #FAB953",
"K. c #F2B25A",
"L. c #F6BA59",
"P. c #F9BB5A",
"I. c #C28376",
"U. c #C88A79",
"Y. c #DF9D73",
"T. c #F09863",
"R. c #E4957D",
"E. c #D6A463",
"W. c #F4BC65",
"Q. c #F9BE64",
"!. c #E5BC78",
"~. c #F8C164",
"^. c #FAC97C",
"/. c #F9C97F",
"(. c #DD9787",
"). c #E69782",
"_. c #EA9681",
"`. c #E39C8D",
"'. c #F39D88",
"]. c #CEA894",
"[. c #CEB39E",
"{. c #E8A68A",
"}. c #F8A48C",
"|. c #FBA68E",
" X c #E2A091",
".X c #FAA891",
"XX c #F3B295",
"oX c #FAB69D",
"OX c #E4BBA3",
"+X c #F9BEA4",
"@X c #FBC1A6",
"#X c #F6C3AA",
"$X c #FCC4AB",
"%X c #FDCAB1",
/* pixels */
"R R R E E R R R E R E R R R R W R R R E E E R R E R E R R E R R E E R R R R R R R E R R U R U E R R R R L R R T E R R T R R R R ",
"R E R R R R R E E E R R R R R U R R R R R E E R R R E R R R R E E E E R R R R R R R R R L R R R R L R R R R R R R R R R R R R R ",
"R R E R R E E R E E R R R E E E R R R R R R R R R E R R R R R R E E E E E E R R R R R R R R R I R U I R R R R L R R R R R R R I ",
"E E R R R E E R E E R E E U E R R R R R R R R E R R R E R R R R E E E E E R R R R R R R R I U R L R R R R R R R R R R R R E U R ",
"R R E R R E R R R R R E E R R R R R R R E E R R E R R R R R R R R R R E E E R R R R R R I R R L R R R R R R R R R R R R R R R R ",
"R E E E R R R R R R R R R R R R R R R R E E E R E R R R R R R R W E R R E E R E R R R T R R R R R R R L R R R R R R R R R R R R ",
"R R E E E R E E R R E R E E R R R R R R E R R R R R R R R R R R Y Y E R E R R R R R R L U R R R R R R R E E R R R R R R R R R R ",
"E R E E R R R R R R R R E R R R R R R R R R E k - : : U E R Y E E Y R R R R E R R R R R R R L R R R R R L E R R R R R E R E R R ",
"R R R E Y W E R E E R R R R E R R R R R R R R < ~.XX!.Z g j E E E R E R R R R R R R R R L R L E R R R R R R R R R R R R R R R R ",
"E E R R E E E E E E R R R R R R R R R R R R R < M.j.L.~.8.6.p U Y R R R R R E R R R R U R R L E R R R R R R R R R R R T R R R R ",
"R R E R E E R R R R E R R R R R R R R R R R R < m.g.f.J.P.P.7.a E E R R R R R R R R R I R T R R R L R R R U E R R R R R R R R R ",
"R E R E E E R R E R R R R R E R R R E R R R l A m.g.h.G.N.P.Q.~ l R R R R R R R R R R R R R R R R R R E R R I E R R R R R R R R ",
"R R R R R R R R R R R R R E E R R R R R R R . S.g.g.s.f.G.N.J.~.6.0 R R R R R R R U L R I R T R R R R R R R R L R R R R R E R R ",
"E R R R R R R R E R R R R E R R R E E R R R @ K.s.g.g.g.A.J.J.J.L.7.p R R R R R I R R R R U R L R R R R R R R R R R R E T R R R ",
"R R R R E R E E R R R R E E R R R R E U R 5 n.l.g.s.g.g.g.G.J.J.N.~.O.h R R R R U R R R R R R R R U R R R R R R R R R R R R R R ",
"R R R R E E E R R E E E E E R R R E E E J Z B.g.g.g.g.g.g.f.J.J.N.H.~.o.f R R R R U J R R R R R R R R R R R R R R R L R R R R R ",
"R E R R R R E R R R R R R E E R E E R R f 3.y.r.g.s.g.s.g.s.[ J.J.J.J.Q.7.0 R R R R L R I R R R R R R R R R R R R R R R E R R R ",
"E E R R R R R E R R R R R R E R R R R U n B.g.f.g.s.g.l.g.u./ w.G.J.J.J.W.6.j U U L R L R R L R E R R R R R R R R R U R R R R R ",
"E E E R R E E E R R R R E E E R E R R M D j.g.g.s.l.g.g.k./ w B t.x.N.J.L.5.j R R I L R R U R R R E R R E R R R R R R R R R R R ",
"E E E E R E E E R R E E E R E R R R R O M.s.g.s.g.g.g.g.*.v r s m V y.J.J.~.8.0 U R I U R R R R R I R R E L R R R R R R R R R I ",
"E R Y Y E R E R R W Y R R R R R E T * E.f.d.g.s.g.l.s.g.` r d H H N V C.J.P.^.@ R U L R R T R R R R R R R U I R R R R R R R L R ",
"R E E Y R R E R R R Y Y R R R R Y U e C.h.d.g.g.g.s.g.u.X.s d P P P P S C.J.^.o I R L R L R R R U R R R R E E Y R R R R R R R R ",
"R R R W R E R R R R R R R R R E R p 4.g.g.d.g.s.g.g.k.-.c i P P d P P s _ P.^.@ R R R L R R R L R R R R R R R I R R R R R R R R ",
"R R R E R R R E R R R R R E E R R U r D.d.g.g.g.g.s.s.<.v H Q I.1.t P s _ J.^.X L T R R R R R R R E I E E R R R R R R R R R R R ",
"R R R R R R E E R W Y Y R R E R R R T : n.s.s.g.g.s.r.C &.).).}.oX&.k s _ J.x J L R L R R R R R U R R E R R R R R R R R R R R R ",
"R R R R R E R R R E Y Y R R R R R R R U b j.g.g.g.l.;.1._.}.}..X.X.X..V _ y.y R R R L R L R R R E R R R I R R R R R R E R R R R ",
"E E R R R R E R E R E R R R R R R R E R y 3.g.f.g.s.) _.}.+X$X@X+X|.<.X.2.y L U L T L L R R L R E R R R R E R R R R R R R R R R ",
"E E E E E R R E R R R R R R R E E E R E Y , n.D.l.s.e.1.#X%X+X).%XXX` b.% R R R R L L R R R R R R E R R R R R R R R R T R R R R ",
"E E R R R R R R R R R R R R R E E E R R R E * e 3.3.z.;.X.{.$XXX{. .0.t R R R R L T U R R R R R R L R R R U E R R R R R R R R R ",
"E E R R R R E R R E R R R R R R R E R R R R R R a a Z ] j.-.1.<.q.p.M U R E R R L R L R L R T R R R R R R R R R R R R R R R T R ",
"E R R R R E E E R R R R R R R E E R R R R E E E R U : C.A.l.e.y.G.i.p E R R R U R L L R R R R R R R R R R R R I R R R R E U E R ",
"E E R R R E E R R R R R E E R R E R R R R R R R U @ K.f.f.f.c.j.J.M.A l R R R R I L R L E L R L R R R R L R R R R R R E R R R R ",
"E R E R E R R R R R E R R R R E E E E R R R E E j D V.g.g.h.M.g.J.G.@.t E R R R R R R L E R R R R L R E R E R R R R E R R R R R ",
"R R E R R R E E R R R R R R R R E E E R R R R E q b.g.g.:.f.N.q.G.J.m.- R R R U U I L R L R R R R R R R R R R R R R U R R R R R ",
"R E R R R E R R R R R R R R E R E R R E E R R T 0 v.g.g.| s.N.q.S.J.m.- R R R R L R I U R L R R R R R E R R R E R R E R R R R R ",
"R R R E R R E R R R R R E R R R E R R R R R E h ' h.g.g.=.g.N.q.G.J.A.A a R R R R U L R R R R R E R E I R R E T R I R R R R R R ",
"E E W Y R R R R R R R R R R R R R R R E E E R k ' g.f.e.>.f.J.q.S.L.H.h.X R R R R L L R R R R R R R R R R R R R R T R R R R R R ",
"R R E E E R E R E R E E R R R R R E R R R E I 2 C.g.g.q.a.f.J.G.} J.J.h.  R R R L T I U R L R R E U R R R R R R R R R R R R R R ",
"R R E R E R E R R R E E R R E Y R R R E R R I 1 m.s.g.q.a.g.J.J.} N.J.x.c l E R L R L R L R R R R R R R R R L R R R R R R R L R ",
"R R R E R R R R R R R R R E R E R E R R R E 0 +.j.l.g.>.a.f.J.J.| J.m.q.w.5 T R L L R T R R R R L E E R R R R R R R R R R R R R ",
"R R E E E E E E E R R R R R W Y R R R E R R O f.q.g.s.>.{ { 2.G.| Z.f.Z.} ( F U Y R L R L R R L R R R E E U I R R R R R R R R R ",
"R R E E E E R R R R R R R R E E E R R R R T 3 S.>.a.e.{ c.G.x.j.| M.>.a.} X.k Y E L R R R T R R R E L R E E R E R R R R R R R R ",
"R R R R E R R E E R R R E R R E E R E E R * n.g.d.>.>.=.:.>.>.m.| F.s.:.s.T.c L R R L R R R R R R R R R R R R R R R R R R R R R ",
"R R R E R R E E R R R R R R R R E R R R R J 3 =.e.g.a.=.s.a.f.G.| J.G.G.g.l.z R L R L L R R R E R R R E R R R R R R R R R R R R ",
"R E E R R E E R R E R E E E E R R R R E R R % OXY.*.=.l.G.P.J.J.| N.J.H.J.B.e U L R L R R R U E E E R R R R R R R R R R R R R R ",
"R R R R R R R R E E R R R E R R E E R R R R T g 9.0.s.s.G.J.J.J.| J.J.J.D.W l R L L L R R L R R R L R E R R R R R R R R R R R R ",
"E R E E R R R R R R R R R R R E R R R R R R R R f c y.g.f.J.J.J.} N.N.L.n J R R L R L R R R R R R R R R R R R T R R R R R R R R ",
"E R E E E R R R R R R R R R R R R E R R R R R R R I ; / ,.s.y.D.| G.M.3 U R R R T T L R I R R R R R R R R R R R R R R R R R R T ",
"R E R R R R R R R R R R R R R R R E R R R E E R R E - R.#.  & v X.^ . J R R R R R T L R U R R R R T R E R R R I E R R R R L R E ",
"R R R E E E R R R R R R R R E R R E R E R R R R R R = '._.X J * (.I.q R R R R R L L L R R R R R R R R R R R R R R R R E R R R R ",
"Y Y R E E E E E R E R R R E R R R R E E E E R R R R ; XXB J Y 5 `.U.0 R R E E R R L R L R R R R R Y R R R R R R R U E R R R R R ",
"Y W R R E E E E R R R R R R R E E E E E R R R E R T ; oXM J L & (.].q L R R Y L L U R E L R R R R R I R R R R R R R R R R R R R ",
"Y E R R R R E E E E R R W Y R R R E R R R E G G G j $ oXM 8 8 @  XOXN 7 G j G G R I L E R R R R R R R E U E R R R R R R R R R R ",
"R E R R R E E R E R R R Y Y R R R E R E K a i w 8 i ; oX[.$ u @  XXX(.> u q 8 8 a J L R R T I R I R R R R E R E R R E E R R R R ",
"R R R R R R E R R E R E R E R R R R E I q 8 i 8 w w ; {..X X; 9 + . . 5 8 8 8 9 i d L E L R R R E E R R R R R R E R R R E R E R ",
"R R R R E R R R E R R R E R R R E R E E a 9 w w w 9 7 N %.%.! 4 8 i i i 8 u 8 i p j L I R R R E E R R R E R R R E R E R R R E R ",
"R R E E E R E E E R R R R R R R E R E R R T t w 8 9 9 7 6 6 7 i 9 9 8 8 8 i 8 i J I U U E R U E R R R E R R R E R R R E R E E E ",
"R E R E R E E R E R R R R R E R E E R E R R R R R I i i 7 w w 0 u u i 9 I U I R T L E L R R I R E R E E R E R E R R R E R E R R ",
"E R R E R R R E R R R R R R R R E E R R R R R R R R R R I I E R E E R R U E R R R I R T I R R R R R E E R E R R E R R R R E E R ",
"E R R R R R R E R R R R R R E R E R R R R R R R R R R R E E R R E R R E E R R R R R I R R U E R R R R R E R E E R R R R R R E R ",
"R R R R R E R R R R E R R R R R R R R R E R E E R R E R E E E E R E E R E E R R T E E R R R R R R E R E R R E E R R R E R R E R ",
"R E E R R E R E E R R R R R R R R R R R R R R E E R E R E E E R R R R R E R R R T R T R R R R R R R R R R R R R R R R R E R R R ",
"E R E R E E Y Y E R R R R R E R E R R R R E E E R E R R R R E R E R R R R R R R T R R R R T R R R R E R R E R R R R E R R R R E ",
"R R E R E R Y W R R R R R R E R R R E E R R E E R R R E E R R R E R R R R R R R R R T R T R R R R R E R R R R R R R R R E E R R "
};
