/* XPM */
static char *result[] = {
/* columns rows colors chars-per-pixel */
"64 64 155 2 ",
"   c #080001",
".  c #09020E",
"X  c #100B0D",
"o  c #1D130F",
"O  c #080010",
"+  c #0E0C17",
"@  c #110B14",
"#  c #120F1B",
"$  c #13101B",
"%  c #1C161C",
"&  c #2C1B0E",
"*  c #221218",
"=  c #372007",
"-  c #3E260C",
";  c #352D0D",
":  c #382F0E",
">  c #282315",
",  c #2A261B",
"<  c #332318",
"1  c #342E1D",
"2  c #3B2A1C",
"3  c #3C381D",
"4  c #131220",
"5  c #1A1325",
"6  c #1F1E25",
"7  c #241E23",
"8  c #211F2C",
"9  c #25232C",
"0  c #2A252B",
"q  c #3A3623",
"w  c #242432",
"e  c #2E2E37",
"r  c #2F2E3A",
"t  c #322F3B",
"y  c #34323C",
"u  c #38363F",
"i  c #402507",
"p  c #43290C",
"a  c #453B0D",
"s  c #433D0C",
"d  c #513C0C",
"f  c #473819",
"g  c #463528",
"h  c #433B3D",
"j  c #6F450A",
"k  c #747609",
"l  c #7D7C0C",
"z  c #353543",
"x  c #393640",
"c  c #3A3945",
"v  c #3F3F4C",
"b  c #413D44",
"n  c #4D4546",
"m  c #40404D",
"M  c #4A4448",
"N  c #5B5353",
"B  c #9C5D01",
"V  c #A26403",
"C  c #AA6903",
"Z  c #B07103",
"A  c #C57800",
"S  c #CA7C00",
"D  c #DB7D00",
"F  c #8B8D0B",
"G  c #A7AF06",
"H  c #B3AB06",
"J  c #B9B605",
"K  c #B5B805",
"L  c #B7883E",
"P  c #CD8400",
"I  c #D68501",
"U  c #DC8200",
"Y  c #DA8B15",
"T  c #E18C00",
"R  c #FF8D00",
"E  c #E79201",
"W  c #E99100",
"Q  c #FE9400",
"!  c #F79900",
"~  c #FE9B00",
"^  c #D6A600",
"/  c #C7BB04",
"(  c #E9A701",
")  c #FFA200",
"_  c #FFAA00",
"`  c #E0BA00",
"'  c #FFB200",
"]  c #F6BB01",
"[  c #FFBB00",
"{  c #FFA717",
"}  c #FFA811",
"|  c #FFAA1C",
" . c #DF9B2A",
".. c #E1A032",
"X. c #FFBD3E",
"o. c #BEC205",
"O. c #C8C204",
"+. c #C6CB03",
"@. c #C9CB05",
"#. c #CFD403",
"$. c #D2D703",
"%. c #E5C500",
"&. c #E6CB00",
"*. c #FFC300",
"=. c #F2CA02",
"-. c #FFCE00",
";. c #FFD300",
":. c #FFDC00",
">. c #EFEA00",
",. c #FFEA00",
"<. c #FFF300",
"1. c #FFFF00",
"2. c #F2C920",
"3. c #B38844",
"4. c #B28E59",
"5. c #B99A6A",
"6. c #DDA74F",
"7. c #FFBE46",
"8. c #FFBD4B",
"9. c #FDBC52",
"0. c #F9BD5C",
"q. c #F6BE60",
"w. c #FEBF65",
"e. c #FEC44B",
"r. c #FFC353",
"t. c #F7C166",
"y. c #FAC36A",
"u. c #FFCF7D",
"i. c #FFD078",
"p. c #747384",
"a. c #B5A885",
"s. c #888EA2",
"d. c #8D92A3",
"f. c #9298A8",
"g. c #CFC7BC",
"h. c #D3C9BC",
"j. c #F6D7A2",
"k. c #EBD6B2",
"l. c #FFE5AE",
"z. c #FEE3B3",
"x. c #C7C5C7",
"c. c #CCCBCD",
"v. c #D3CEC8",
"b. c #D5D0CA",
"n. c #CFCFD4",
"m. c #CBCED9",
"M. c #D4D1D1",
"N. c #FAE6C2",
"B. c #FFEFD4",
"V. c #FBEEDA",
"C. c #FEFDDC",
"Z. c #D5DBE7",
"A. c #D3DDF1",
"S. c #FFFFEB",
"D. c #FFFFFF",
/* pixels */
"m m m m m m m m m m m m m m m m m m v m m m m m m m m m m m m m m m m m m m m m m m m m m m m m m m m m v m v v v m m v v v v m ",
"m m m m m m m m m m m m m m m m v m v m m m m m m m m m m m m m m m m m m m m m m m m m m m m m m m m m m v v v v v v v v v v v ",
"m m m m m m m m m m m m m m m m v m m m v m m m m m m m m m m m m m m m m m m m m m m m m m m m m m m m v v m m v v v v v v v v ",
"m m m m m m m m m m m m m m m m v m m m m m m m m m m m m m m m m N m m m m m m m m m m m m m m m m m m v m m m v v v v v v v v ",
"m m m m m m m m m m v m m m v m m v v v v v m m m m m m m m m m m m m m m m m m m m m m m m m m m m m m m m m m v v v v v v v v ",
"m m m m m m m m m m m m m m m m m m m v v m m m m m m m m m m m m m m m m m m m m m m m m m m m m m m m m m m m v v v v v v v v ",
"m m m m m m m m m m m m m m v m m v v m m v m m m m m m m m m m m m m m m m m m m m m m m m m m m m m m m m m m v m v v v v v v ",
"m m m m m m m m m m m m m m m m v m v m v m m v m m m m m m m m m m m N m m m m m m m m m m m m m m m m m m m m m m v v v v v v ",
"m m m m m m m m m m m m m m m m v v m m m m m v v m m m m m m m m m m m m m m m m m m m m m m m m m m m m m m m m v m m v v v m ",
"m m m m m m m m m m m m m m m m m m v c v m v m v m m m m m m m m m m m m m m m m m m m m m m m m m m m m v v m m m m m v v m m ",
"m m m m m m m m m m m m m m m m m m v m m v m v m m m m m m m m m m m m m m m m m m m m m m m m m v m v m m v m m m m m m v v v ",
"m m m m m m m m m m m m m m m m m v m v v v v v v m m m m m m m m m m m m m m m m m m m m m m m m v m m v v m m m m m m v m m v ",
"m m m m m m m m m m m m m m m m m m m m m v m m m v m m v m m m m m m m m m m m m m v v v v m m m m m v m v m m m m m m v v m m ",
"m m m m m m m m m m m m m m m m m m m m v m m v m m v m m m v m m m m m m m m m m m v z v m m v v m m m v m m m m m m m m v m v ",
"m m m m m m m m m m m m m m m m m v m m m v v m m m v m m m m m m m m m m m m m m m m p.m m m m m m m m m m m m m m v m m m v v ",
"m m m m m m m m m m m m m m m m m m m m m m m m m v m m m b m m m m m m m m m m m m m m m m m m m m m m m m m m m v m m m v v v ",
"m m m m m m m m m m m m m m m m m m m m m m m m m m m v 8 O O O O . O O 5 v m m m m m m m m m m m m m m m m m m m m m m m v m m ",
"m m m m m m m m m m m m m m m m v m m m v m m m m m c z q s s a s s s s 3 y c m v m m m m m v m m m m m m m m m m m m m m v m m ",
"m m m m m m m m m m m m m m m m m m m m m m m m m m w # k @.$.+.+.+.$.#.F , 8 c m m m m m m m m m m m m m m m m m m m m m v m v ",
"m m m m m m m m m m m m m m m m m m m m m m m m b u 0 a H 1.1.1.1.1.1.1./ d * t v v v m v v m m m m m m m m m m m m v m m m v v ",
"m m m m m m m m m m m m m m m m m m m m m m m v w , l O.=.*.*.*.*.*.*.*.( Z j < 6 z v v v m m m m m m m m m m m m m v m m m m v ",
"m m m m m m m m m m m m m m m m m m m m m m m z 4 & K 1.:.Q Q Q Q ~ ~ ~ ~ T V < # z v v m m m m m m m m m m m m m m v m m m v v ",
"m m m m m m m m m m m m m m m m m m m m m m m v 4 o G 1.:.~ Q Q Q Q ~ ~ ! T B & # z m v m m m m m m m m m m m m v v m m m m m m ",
"m m m m m m m m m m m m m m m m m m m m m m v z 7 a H 1.;.~ ~ _ _ _ ) ) ! T V p % y v v m m m m m m m m m m m m m m m m m m m m ",
"m v m v v m v m m m v m m m m m m m m m m v w 1 k J %.[ _ ~ [ :.,.,.-.) ! ! I V j 1 9 z m m m m m m m m m m m m v v v v v m m m ",
"v v m v m v v m m m m m m m m m m m m m b z 4 1 o.1.;.Q Q ~ ;.1.1.1.:.) ~ ) ! W C p @ r v m m v m m m m m m m v v m v m m m m m ",
"v m v v m m m m m m m m m m m m m m m m v z 4 : o.1.;.Q R ~ ;.1.>.` ( ) ) ) ~ W C p + r v m m m m m m v m m v v v m m m m m m m ",
"v m v v v m v m m m m v m m m m m m m m v z 4 ; K 1.;.~ Q ) :.1.&.S U ! ) ) ! T V - $ r v v v m m m m v m v v v v m m m m m m m ",
"v v m v m m m m v v m m m m m m m m m m m v 4 ; K 1.-.~ [ :.1.1.%.S I ~ ) ) ! T V - $ r m b m m m v m v m m v v v m m m m m m m ",
"v v v v v m m m m m m m m m m m m m m m v z 4 ; K 1.-.) -.1.1.1.%.P U ! ) ) ! T V - $ r v v v b m v m v m m v m m m m m m m m m ",
"m m v v m m m m m m m m m m m m m m m m v z 5 , K 1.-.~ ' ;.<.1.%.P U ~ ) ) ! T V - $ r v b m m m b m v v v m v v m m m m m m m ",
"v v m m v m m v m m m m m m m m m m m m v z 4 8 K 1.-.~ Q ~ ;.1.&.P U ~ ) ) ! T V ; $ r m m v m v m v v v v v v m m m m m m m m ",
"m m m m v m m m m v m m m m m m m m m v v z 4 ; K 1.;.~ R ~ ;.1.&.P U ~ ) ) ! I B i $ r v v c m m v v c v v v v v m m m m v v m ",
"m m m c m v m m v m m m m m m m v m m m m z 4 ; K 1.-.~ Q ) ;.1.&.P U ! ) ) ~ T V - # t m m v v m v v m b v v b v v v v b v m m ",
"m v m m v v m c m m m m m m m m m m m m m z 4 ; K 1.-.~ Q ) :.1.&.P U ~ ~ ~ { t.5.g @ e b m m m v m v v m v v v v v v m b v b M ",
"v v m v m m v v m v v m v m m m m m m m m z 4 ; K 1.;.~ Q ~ ;.1.&.P U ~ ~ ! 7.C.m.n X t m m m m v v v v v v v v v v v v v v m m ",
"m m v m m v v m v m v m m m m m m m m m m z 4 ; K 1.-.~ Q ~ :.1.&.P D Q } 9.l.D.A.M X e m m m m v m m v v v v v v m v v m v m m ",
"m m v m v v m v m m m m v v m m m m m m m z 4 ; K 1.;.~ Q ) :.1.&.P D Q 8.B.D.D.n.n X y m m m m m m v v v v v v m m v b v m m m ",
"m m m v m m m v v m m m m m v m m m m m v z 4 ; K 1.-.~ Q ) ] &.^ S Y 9.l.D.D.z.5.g X r m m m m m m m v v m v m v m m v m m m m ",
"m m m m m m m m m v m m m m m m m m m m m x 4 ; K 1.-.~ ~ ) E P A A 6.V.D.D.N...B - # z m m m m m m m v v v m m m v m m m m m m ",
"m m m m m m m m v m m v m m m m m m m m m c 4 ; o.1.;.Q ~ ~ W D Y 6.k.D.D.l.u.0.L f + e m m m m m m m v v m m m m m m v m m m m ",
"m m v m m m m m v v m v m v m v m m m m m z 4 ; o.1.;.! ~ ~ Q Q 0.V.D.D.l.| X.C.M.n . e m m m m m m m v m m m m m m v m v m m m ",
"m m m m m v m v v m v m m m m v m m v m v c w 1 l O.=.*._ ~ { 9.z.D.D.z.i.e.y.h.f.b 7 u m m m m m m m m m m m m m m m m m m m m ",
"m m m m m m v m v v m m m m m m m m m m m m v y , d J 1.-.~ w.V.D.D.l.{ e.C.b.N 7 y c v m m m m m m m m m m m v m m m v m m m m ",
"m m m m m m v m v m m v m v v m m v m m m m m m w % k @.2.r.z.D.D.N.u.7.y.v.s.0 6 c m m m m m m m m m m m m m m m m m m m m m m ",
"m m m m m m m m m m m m v m v m m v m m m m m m v y > f a.S.D.D.j. .q.C.g.N 0 y v m m m m m m m m m m m v m m m m m m m m m m m ",
"m m m m m m m m m m m v m m v v v m m v v m m m m m 9 5 p.m.Z.x.4.B 3.c.d.7 9 c m m m m m m m m m m m v m m m m m m m m m m m m ",
"m m m m m m m m m m m m m m v v m m v v m m m m m m v x u c M h 2 = 2 h u y c m m m v m m m m m m m m m m m m m m m m m m m m m ",
"m m m m m m m m m m m m m m m m v m v m v m m m m m m m 6       O + O + w m m m m m m m m m m m m m m m m m m m m m m m m m m m ",
"m m m m m v m m m m m v v m m v v v m m m m m v m m m m m m m m v m m m m m m m m m m m m m m m m m m m m m m m m m m m m m m m ",
"m m m m m m m m m m v m m v m m v v v v v m m m m m m m m m m m v m m m m m m m m m m m m m m m m m m m m m m m m m m m m m m m ",
"m m m m m m m v v m m m m v v m v v v v m v v v v v m m m m m m m v m m m m m m m m m m m m m m m m m m m m m m m m m m m m m m ",
"m m v m m v v m v v v m v v v v v v v v v v v v m m m m m v v v v m m m m m m m m m m m m m m m m m m m m m m m m m m m m m m m ",
"m m m v v v v v m v v v v b v v v v v v v v m v m v m v v m m m v m m m m m m m m m m m m m m m m m m m m m m m m m m m m m m m ",
"m v v v m m m v v v v v m m v v v v v v v v v m v m m m v v m m m m m m m m m m m m m m m m m m m m m m m m m m m m m m m m m m ",
"m m v m m v m m m v m m v v m m v v c v v v v v v v v m v v m m m m m m m m m m m m m m m m m m m m m m m m m m m m m m m m m m ",
"m m m m m m m m m m m m m m m m m m v m m m m m v v m v m m m m m m m m m m m m m m m m m m m m m m m m m m m m m m m m m m m m ",
"m m m m m m m m m v v m b v v m m m m m m m v m m v m m m v m m m m m m m m m m m m m m m m m m m m m m m m m m m m m m m m m m ",
"m m m m m m m m m m m m m m m m m m m m m m m v v m m v v m v m m m m m m m m m m m m m m m m m m m m m m m m m m m m m m m m m ",
"m m m m m m m m m m m m m m m m m m m m m m m m m m v m m v m m m m m m m m m m m m m m m m m m m m m m m m m m m m m m m m m m ",
"m m m m m m m m m m m m m m m m m m m m m m m m m v m v v m m v m m m v m m m m m m m m m m m m m m m m m m m m m m m m m m m m ",
"m m m m m m m m m m m m m m m m m v m m m m m m v v m v v m m v v m v v m m m m m m m m m m m m m m m m m m m m m m m m m m m m ",
"m m m m m m m m m m m m m m m m m m v m m m m m m m v v m v m v v v v m v m m m m m m m m m m m m m m m m m m m m m m m m m m m ",
"m m m m m m m m m m m m m m m m m m m m m m m m m m m m v m m m m v v v v v v m m m m m m m m m m m m m m m m m m m m m m m m m "
};
