/* XPM */
static char *result[] = {
/* columns rows colors chars-per-pixel */
"64 64 139 2 ",
"   c #000000",
".  c #080705",
"X  c #0E0D0A",
"o  c #100E0C",
"O  c #13110E",
"+  c #171411",
"@  c #191611",
"#  c #1D1A15",
"$  c #1C1C1C",
"%  c #211D16",
"&  c #231F18",
"*  c #26211A",
"=  c #2A241C",
"-  c #2E281F",
";  c #31281F",
":  c #232323",
">  c #2F2920",
",  c #2A2A2A",
"<  c #322C23",
"1  c #382F25",
"2  c #302E2C",
"3  c #373026",
"4  c #393126",
"5  c #36312A",
"6  c #3C352A",
"7  c #3F382C",
"8  c #343434",
"9  c #393734",
"0  c #3D3A34",
"q  c #35343A",
"w  c #38373D",
"e  c #3E3E3E",
"r  c #423A2E",
"t  c #453D32",
"y  c #493F34",
"u  c #443F38",
"i  c #4B4234",
"p  c #46423B",
"a  c #4D453A",
"s  c #4E483C",
"d  c #504637",
"f  c #514738",
"g  c #544B3C",
"h  c #594E3E",
"j  c #5A503F",
"k  c #3C3C44",
"l  c #3F3F4C",
"z  c #474747",
"x  c #4E4943",
"c  c #42424E",
"v  c #554E43",
"b  c #514F48",
"n  c #5D5343",
"m  c #56524C",
"M  c #5A554E",
"N  c #4E4D50",
"B  c #515151",
"V  c #5E5A53",
"C  c #5E5C5D",
"Z  c #615745",
"A  c #635847",
"S  c #665B49",
"D  c #695E4C",
"F  c #625D54",
"G  c #615E58",
"H  c #6D614F",
"J  c #666057",
"K  c #6D6352",
"L  c #67635B",
"P  c #6C655B",
"I  c #716552",
"U  c #756955",
"Y  c #786B57",
"T  c #756B5B",
"R  c #7A6D59",
"E  c #7D715D",
"W  c #6B6760",
"Q  c #6B6960",
"!  c #7C7262",
"~  c #7C756B",
"^  c #80735E",
"/  c #827561",
"(  c #867965",
")  c #897C66",
"_  c #877D6C",
"`  c #8A7D69",
"'  c #8E816C",
"]  c #92846E",
"[  c #86837F",
"{  c #938671",
"}  c #968873",
"|  c #998B76",
" . c #978B78",
".. c #9B8E79",
"X. c #9E917C",
"o. c #A1947E",
"O. c #9F9380",
"+. c #9F9688",
"@. c #9C9891",
"#. c #A29681",
"$. c #A69984",
"%. c #A99C86",
"&. c #AA9D89",
"*. c #A39D91",
"=. c #ADA18D",
"-. c #AEA492",
";. c #AEA89E",
":. c #B2A693",
">. c #B5A996",
",. c #B7AB99",
"<. c #BAAF9E",
"1. c #BBB09F",
"2. c #AFA9A0",
"3. c #B2ABA0",
"4. c #BEB4A4",
"5. c #BEB8AD",
"6. c #C0B6A6",
"7. c #C5BBAC",
"8. c #C8BEAF",
"9. c #C7BFB1",
"0. c #CAC1B3",
"q. c #CEC6B9",
"w. c #D2CABE",
"e. c #D4CDC2",
"r. c #D7D0C5",
"t. c #D9D2C7",
"y. c #DBD5CB",
"u. c #DED9CF",
"i. c #DFD9D1",
"p. c #E1DCD3",
"a. c #E4DFD8",
"s. c #E5E1DA",
"d. c #E9E5DE",
"f. c #EBE7E1",
"g. c #EDE9E5",
"h. c #EFECE8",
"j. c #F0EDE9",
"k. c #F3F1ED",
"l. c #F6F5F2",
/* pixels */
"c c c c c c c c c N c N c c c c c c c c c c c c c c c c c c c c c c c c c c c c c c c c c c c c c c c c c c c c c c c c c c c c ",
"c c c c c c c c c c c c c c c c c c c c c c c c c c c c c c c c c c l c c c c c c c c c c c c c c c c c c c c c c c c c c c c c ",
"c c c c c c c c c c c c c c c c c N c c c N c c c c c c c c c c c c c c c c c c c c c c c c c c c c c c c c c c c c c c c c c c ",
"c c N c c N c c c c c c c c c N c c c c c c c c c c c c c c c c c c c l c c c c c c c c c c c c c c c c c c c c c c c c c c c N ",
"c c c c c c c c c c c c c c c c c N c c c c c c c c c c c c c c c c c c c c c c c z l c c c c c c c c c c c c c c c c c c c c c ",
"c c c c c c c c c c N c c c c c c c c c c c c c c c c l c c c c c c c c c c c c c c c l c c c c c c c c c c c c c c c c c c c c ",
"c c c c c c c c c c c c c c c N c c c c c c c c c c c C r.f.d.i.9...! x q l c c c c c c c c c c c c c c c c c c c c c c c c c c ",
"c c N c c N c c c c c c c c c c c c c c c c c c c c B h.l.k.f.f.p.,.} D 6 k c c c c l c c c c c c c c c c c c c c c c c c c c c ",
"c c c c c c N c c c c c c c c c c c c k k k k e k w s.k.l.k.f.y.<.&.( h i 4 q q q q q q c c c c l c c c c c c c c c c c c c c c ",
"c c c c c c c c c C c c c c c c c k +.a.j.k.d.u.0.8.e.p.s.t.e.w.q.8.| ) H i j ^ ' o.:.o.U q c c c c c c c c c c c c c c c c c c ",
"c c c c c c c c c l l c c c c c k 0.j.l.l.l.h.f.i.8.6.q.} ( ^ / Y I D Y ( Y A X.1.1.=.o.^ I i c c c c c c k c c c c c c c c c c ",
"c c c N c c c c c a.e.l c c c c ,.f.j.l.l.l.k.s.h.u.$._ > > ) ( I n = t H H ] q.w.w.7.%.^ E H g c c c c l i.:.c c c c c c c c c ",
"c c c N c c c c C h.p.~ c c c 5.u.p.u.%.] ( ) ( U j ( - 1 4 > ( I % 1 4 r Y A D H D I H Y %.D r > c c c e.j.t.l c c c c c c c c ",
"c c c c c c c c y.d.p.} c c [ 5.u.:.) ` 7 - < ; - 3 < r g i r { h = t r a 1 1 % - = = = I U ' i 6 : c k s.h.e.D c c c c c c c c ",
"c c c c c c c g.e.y.e.) Y y [ 3.%.` t r g h D I U <.7.6.>. .7.( R K { &.<.6.:.g r 4 r 4 r d S H i < u ,.t.a.4.i P c c c c c c c ",
"N c c c c c c h.=.:.| y > y ..*.' d a E Z D >.e.8./ ( / E ' ..} I U R Y U R ^ #.6.) H A n r i g D 1 D f...,.) = a c c c c c c c ",
"c c c c c c c l._ g f = r g %.( &.Z >.7.w.6./ ....D < * < < * 5 < > * @ = h U } ) K 4.$.#.R r h A 6 ! g.h g g * 7 c c c c c c c ",
"c c c c c c c l.:.> < t g < &.^ | { ..` ` | ` 6 .                         . . r A h H H D U U S D 6 R g.} > < n 4 c c c c c c l ",
"c c c c c c c j.a.0.7.6.:.& | i 6 S ..) U r X                                   X 4 i S U h > & 6 Z P j.i.8.4.,.n c c l c c c c ",
"c c c c c c c 9.:.X.] Y Z & ` y R ,.D I #                                           O g Z I I i < I S o.:.&.] E a c c c c c c c ",
"c c c c c c c 5.&.X.{ R n % / Z ,.R H #                                               # f Z R I 7 A D %.$.| ` U i c c c c c c c ",
"c c c c c c l 4.o.} ` ^ Z + D X./ I *                                                   # i n R n D S -.| { ` U d c c c c c c c ",
"l c c l c c l O. .} | g r O Y } U =                                                       1 h Z Z Y Z ..( } { h ; c c c c c c c ",
"c c c c c l c & ; | X.= @ = Y ^ g                                                           y g I Y y @ 6 } o.# * c c c c c c c ",
"c c c c c l c F = t n & B < I ^ =                                                           - I S H g Q > D > # O c c c c c c c ",
"c c c c c c c *.y A f 1 [ = H S &                                                           5 S A I g 5.n S A = @ c c c c c c c ",
"c l c c c c c 3.D ( S 1 [ = Y S %                                                           1 K A S g e.! ' H * # c c c c c c l ",
"c c c c c c c *._ Z v u m 1 Y n O                                                           = I A S d e.v n i @.+ c c c c c c c ",
"c c c c c c c _ $.2.*.W < 1 Y n %                                                           * H A D d =.-.;.*.i O c c c c c c c ",
"c c c c c l c 2 % $ @ @ @ > I A %                                                           * h A A a < # - # + # c c c l c c l ",
"c c l c c c c % 1 & = = o < K A %                                                           * U g n g # = < = 7 O c c c c c c c ",
"c c c c c c c ; _ v v f o 1 I A =                                                           * H d g d ; E g j r O c c c l c c c ",
"c l c c c c c = R * 1 r O ; R H =                                                           * n a a i = Z % ; 1 o c c c c c l c ",
"c c c c c c c % D & 4 r O = H A *                                                           = g a a i % n = 1 < O c c c c c c c ",
"c c c c c c c % S = 4 r O ; U Z *                                                           = Z a a i # h ; 4 = O c c c c c c c ",
"c c c c c c c % H ; r r O = D Z %                                                           * n t a r # n 1 r 1 O c c c c c l c ",
"c c c c c c c @ S = y r O = Z n %                                                           * i r 4 ; # h 4 y = o c l c c c c c ",
"c c c c c c c % H 1 y t O = j Z #                                                           & j r r < % j r t 1 O c c c c l l c ",
"c c c c c c c = S 1 y r O = U A %                                                           % Z j A f - j 7 t = O c c c c c c c ",
"c c c c c c c = S 1 4 r O 4 I Z =                                                           * I d j i - h r r < O c c c c c c c ",
"c c c c c c c ; A r r 1 o 1 U I =                                                           & D a a i < g y r & O c c c c c c c ",
"c c c c c c c = S 6 t r O = U A =                                                           * a a g y & A r y > O c c c c c c c ",
"c c c c c c c % S ; y r O ; I A *                                                           * S a i y % g 6 y > O c c c c c c c ",
"c c c c c c c # S = 7 r O = H Z %                                                           * n i i r % n 6 r > O c c c c c c c ",
"c c c c c c c # n = 4 7 O = S Z %                                                           * i r r 1 @ Z 4 1 > O c c c c c c c ",
"c c c c c c c @ g n Z 7 O * D A %                                                           = g t i t + g n n > O c c c c c c c ",
"c c c c c c c # = # # # O * n n #                                                           = i 6 r = O > # @ & O c z c c c c c ",
"N c c c c c c a 9 > = # < M K K m                                                           p K a n m v p t 9 1 O c c c c c c c ",
"c c c c c c c T m p u 9 2 o < 1 @                                                           # = # # % F G M G V , c c c c c c c ",
"c c c c c c c 9 8 8 8 , , % h n =                     . . $ $ @ $ $ $ : $ : $ $ $ : $ $ : $ > 7 1 < * 8 8 2 8 8 , c c c c c c c ",
"c c c c c c l ! F g 2 2 & s n h Q                 $ $ $ : : : : : : : : , , , , , , , , , , V n < r F F J J P V + c c c c c c c ",
"c c c c c c c ! K p t 4 X o * < +           $ @ $ : , 2 , 8 8 8 8 2 8 9 q 9 w 9 q 9 w 9 q 8 : = o O & F J J J V O c c c c c c c ",
"c c c c c c c F b s 6 < + + K g #       @ $ : : , 8 9 q e e e e e e e e e z e e e z e e e e 5 7 4 1 * F P M J J O c c c c c c c ",
"c c c c c c c x u < , $ $ 0 g - Q   $ $ : : , 8 9 k e z z z z z z z z z z z z z z z z z z z L n 7 i J g z 0 x x X c c c c c c c ",
"c c c c c c c 2 8 , 8 8 8 X # = X $ : : , 8 8 e z z z z B B B B B B B B B B B B B B B B B B , * O @ # q q 9 9 q 9 c c c c c c c ",
"c c c c c c c p u t 1 * o O & % # , , 8 8 w p z z z B B B B B B B B B B B B B B B B B B B B 2 & % % & x M M M x O c c c c c c c ",
"c c c c c l c c l c c c l c c l c l c l c c c c c c c c c c c c c c c c c c c c c c c c c c c c c c c c c c c c c c c c c c c c ",
"c c l c c c c c l c l c c c c c c c c c c c c c c c c c c c c c c c c c c c c c c c c c c c c c c c c c c c c c c c c c c c c c ",
"c c c c c c c c c c c c l c l c l l c c c c c c c l c c c c c c c c c c c c c c c c c c c c c c c c c c c c c c c c c c c c c c ",
"c c c c c c l c c c l c c c c l c l z c l c c c c c c c c c c c c c c c c c c c c c c c c c c c c c c c c c c c c c c c c c c c ",
"c c c c c c l c c l c c c c c c l c c l c c c c c c c c c c c c c c c c c c c c c l c c c c c c c c c c c c c c c c c c c c c c ",
"c c l c c c c l c c l c c l c c c c c c c c c c c c c c c c c c c c c c c c c c c c c c c c c c c c c c c c c c c c c c c c c c ",
"c c c c c l c l l c l c c c l c l c c c c c c c c c c c c c c c c c c c c c c c l c c c c l c c c c c c c c c c c c c c c c c c ",
"c l l c c c l k c c c c c c l c c c c c l c c c c c c c c c l c c c c c c c c c c c c c c c c c c c c c c c c c c c c c c c c c "
};
