/* XPM */
static char *result[] = {
/* columns rows colors chars-per-pixel */
"64 64 203 2 ",
"   c #040302",
".  c #0A0703",
"X  c #0E0905",
"o  c #0C0A09",
"O  c #140D06",
"+  c #180F07",
"@  c #140F09",
"#  c #1A1007",
"$  c #14110D",
"%  c #1C1309",
"&  c #141211",
"*  c #1A1613",
"=  c #1E1A14",
"-  c #1C1B1A",
";  c #22160A",
":  c #28170A",
">  c #26180C",
",  c #2C1B0C",
"<  c #311E0D",
"1  c #211C15",
"2  c #2B1E10",
"3  c #231E19",
"4  c #35210E",
"5  c #39220E",
"6  c #292015",
"7  c #25211B",
"8  c #2A241C",
"9  c #2E281F",
"0  c #362412",
"q  c #3B2611",
"w  c #3E2A14",
"e  c #30271C",
"r  c #232120",
"t  c #2B2722",
"y  c #2E2921",
"u  c #2C2B2D",
"i  c #342D23",
"p  c #382E23",
"a  c #332E29",
"s  c #373026",
"d  c #3A3126",
"f  c #36312A",
"g  c #3C342A",
"h  c #3F382B",
"j  c #2D2C31",
"k  c #322F33",
"l  c #333234",
"z  c #3E3A33",
"x  c #36353D",
"c  c #393639",
"v  c #3C3B3C",
"b  c #402710",
"n  c #442C14",
"m  c #4A2E14",
"M  c #422E18",
"N  c #473017",
"B  c #4B3016",
"V  c #46311A",
"C  c #4B341A",
"Z  c #523316",
"A  c #533619",
"S  c #593718",
"D  c #56391B",
"F  c #5C3B1B",
"G  c #623E1C",
"H  c #423A2E",
"J  c #4C3A28",
"K  c #5C3F21",
"L  c #453E31",
"P  c #493F34",
"I  c #65401D",
"U  c #6B441E",
"Y  c #71471F",
"T  c #71481F",
"R  c #594128",
"E  c #4B4235",
"W  c #44413C",
"Q  c #4D4539",
"!  c #4E483F",
"~  c #514637",
"^  c #504738",
"/  c #544A3B",
"(  c #594F3F",
")  c #5A503F",
"_  c #644423",
"`  c #6C4620",
"'  c #6B4925",
"]  c #704720",
"[  c #734921",
"{  c #7A4D22",
"}  c #734F29",
"|  c #7E5123",
" . c #7E562B",
".. c #6B5036",
"X. c #373740",
"o. c #383741",
"O. c #3C3B43",
"+. c #3E3E4A",
"@. c #403F4A",
"#. c #434245",
"$. c #4E4A43",
"%. c #42424E",
"&. c #48464A",
"*. c #4D4B4B",
"=. c #544E45",
"-. c #594F41",
";. c #5D5242",
":. c #53504C",
">. c #5C544A",
",. c #5F584D",
"<. c #454450",
"1. c #484852",
"2. c #545251",
"3. c #5E5950",
"4. c #5B5A5B",
"5. c #615645",
"6. c #635846",
"7. c #655A49",
"8. c #695E4B",
"9. c #635D53",
"0. c #635F5C",
"q. c #6C614E",
"w. c #6F6350",
"e. c #68625A",
"r. c #726652",
"t. c #756955",
"y. c #7A6D57",
"u. c #776B59",
"i. c #7A6E59",
"p. c #7E715D",
"a. c #5F5F65",
"s. c #616060",
"d. c #6A6664",
"f. c #6C6A64",
"g. c #6E6C6B",
"h. c #736D64",
"j. c #7C7260",
"k. c #767169",
"l. c #7D766A",
"z. c #7E796E",
"x. c #7C7A79",
"c. c #805326",
"v. c #82592D",
"b. c #81745F",
"n. c #827561",
"m. c #867964",
"M. c #897C66",
"N. c #837B6C",
"B. c #8B7E69",
"V. c #847E75",
"C. c #8E816C",
"Z. c #91836E",
"A. c #8A8277",
"S. c #948672",
"D. c #978A75",
"F. c #998B76",
"G. c #9B8E7A",
"H. c #9F917C",
"J. c #A1947E",
"K. c #7C7C81",
"L. c #838383",
"P. c #8D8884",
"I. c #8D8C8B",
"U. c #978F85",
"Y. c #9B9285",
"T. c #959494",
"R. c #979597",
"E. c #999897",
"W. c #9D9D9C",
"Q. c #A39681",
"!. c #A79A86",
"~. c #A79B87",
"^. c #AA9E8A",
"/. c #A79F93",
"(. c #AEA18E",
"). c #ACA293",
"_. c #B1A592",
"`. c #B6AB99",
"'. c #BAAF9D",
"]. c #BBB19F",
"[. c #A1A1A1",
"{. c #A9A8A8",
"}. c #B3ADA7",
"|. c #BDB4A6",
" X c #BDBCBB",
".X c #C5BBAB",
"XX c #C6BEB4",
"oX c #CDC4B6",
"OX c #D2CABD",
"+X c #D5CEC2",
"@X c #D7D1C6",
"#X c #D9D2C7",
"$X c #DCD7CD",
"%X c #DED9D0",
"&X c #E2DCD4",
"*X c #E6E2DA",
"=X c #E8E4DD",
"-X c #EAE6E1",
";X c #EDE9E5",
":X c #EFEDE8",
">X c #F1EEEA",
",X c #F3F1ED",
"<X c #F6F5F2",
/* pixels */
"%.%.<.%.%.%.<.<.%.%.<.%.%.%.<.%.%.<.%.%.<.%.%.%.<.<.%.<.%.%.%.%.%.%.%.%.%.%.%.%.%.%.%.%.%.%.%.%.%.%.%.%.+.<.+.+.<.+.+.<.<.<.+.<.",
"%.<.<.%.<.%.%.%.%.<.%.%.<.%.<.%.%.<.%.<.<.%.<.%.%.+.<.+.%.%.%.%.%.%.%.%.%.%.%.%.%.%.%.%.%.%.%.%.%.%.%.%.<.<.<.<.<.<.<.<.<.+.<.<.",
"<.%.%.<.<.%.%.<.%.%.<.<.%.<.%.%.<.%.%.<.%.<.%.%.%.%.<.+.%.%.%.%.%.%.%.%.%.%.%.%.%.%.%.%.&.<.%.%.%.%.%.%.%.+.%.%.+.%.<.+.+.<.+.<.",
"%.<.%.%.%.%.<.%.<.%.%.%.%.%.%.<.%.%.<.%.%.%.%.%.%.%.%.<.%.%.%.%.%.%.%.%.%.%.%.%.%.%.%.%.<.%.%.%.%.%.%.%.%.%.%.%.<.<.+.<.<.<.+.<.",
"%.<.%.<.%.%.<.%.<.%.%.%.<.<.%.%.<.%.%.%.%.%.%.%.%.%.%.%.%.%.%.%.%.%.%.%.%.%.%.%.%.%.%.%.%.%.%.%.%.%.%.%.%.%.%.%.+.<.<.<.<.<.+.<.",
"<.%.<.%.%.<.%.<.%.%.<.<.%.%.%.<.%.<.%.<.%.<.%.%.%.<.%.%.%.A.E.I.D.z.>.! X.%.%.+.%.%.%.+.%.%.%.%.%.%.%.%.%.%.%.%.<.<.+.+.+.<.<.+.",
"%.%.<.%.<.<.%.%.%.<.%.%.<.%.<.%.%.%.%.%.%.%.%.%.%.%.%.+.$X:X,X;X;X%X(.F.;.y %.%.%.%.%.%.%.%.%.%.%.%.%.%.%.%.<.%.+.<.<.<.<.<.<.+.",
"%.<.%.<.%.%.<.%.%.%.<.%.%.%.<.%.%.%.<.%.%.%.<.<.%.%.O.%X,X<X,X-X*XoX_.j.-.H u %.%.%.%.%.%.%.%.%.%.%.%.+.%.%.%.%.+.<.+.<.+.+.<.<.",
"@.<.%.%.<.%.%.<.<.%.<.<.<.<.@.<.%.%.%.&.oX$X@X|.).G.(.$X=X,X,X=X+X.X(.m.q.^ h E 6.q.m.p.u.v %.%.@.%.%.%.%.%.%.%.<.+.<.<.+.<.<.+.",
"<.%.<.<.%.%.<.%.<.%.@.<.@.<.<.+.+.#.(.%X<X,X<X;X&X$X|.oX#X(.C.p.p.l.t.q.p.C.( q.C.Q.(.`.J.b./ x %.%.@.%.%.@.%.%.<.<.<.+.+.<.<.<.",
"<.<.<.%.<.<.<.%.%.<.x.2.+.<.<.+.#.(.*X<X<X<X<X,X*X*XOX_.C.p.i.p.b.t.t.q.t.t.y.m.)..X.X(.Q.m.p.) l <.%.%.%.%.XX@.+.<.<.<.<.<.<.+.",
"<.@.%.%.<.<.%.<.%.L.=X%X2.%.+.<.(.%X=X;X=XG.Z.C.C.C.C.m.( 9 i ) p.p.7 8 9 t.5.r.p.r.q.w.p.H.b.6.L l %.%.%.OX>XOX<.+.+.<.%.+.<.<.",
"<.<.<.<.%.<.1.<.@.XX;X$X~.<.%.i.oXoX$XD.Z.b.p.b.;.C.,.) s E E d Z.) 8 s E 9 q.r.6.q.r.;.q.t.t.8.h d j @.@.=X:XOXx.<.+.<.+.+.<.%.",
"<.+.<.+.<.<.%.@.+. X%X+Xk.<.o.Q.`.oXZ.C.i / / / / / ^ / q.;.) ) b.7.H ) 7.5.( E h i 9 9 9 1 y.q.;.h t <.@.&X&XOXW +.<.%.<.<.<.+.",
"+.<.<.<.<.<.%.&.R.}.oX`.~ L ^ G.(.G.G.E ) i.r.y.].oX@X$XoX|.#XG.q.t.t.!.`..X#XoX`.m.) E E H 9 q./ / t 9.&X+X+X^.H >.%.%.+.<.<.+.",
"<.<.<.+.%.%.%.@.R.k.i.5.i H q.Q.C.D.d y.J.oXOXOXD.C.H.J.D.D.G.G.(.J.Z.D.Z.M.m.C.q.S.].(.m.m.E 9 / q.p S.&Xr.u.Q 8 d +.<.<.+.<.<.",
"<.<.<.<.+.<.%.+.T.9.E H p ^ E Y.Z.!.g r.r.r.B.S.m.8 # % @ # # %   % # % @ # # 9 q.( m.q.) ) E 9 7.6.d G.%X/ Q d H d %.%.%.%.%.%.",
"<.+.+.<.<.<.&.@.R.{.Y.m.M.w.8 S.t.g E / n.C.i.2 # % % % # > 7 % X W 2 , ; > % % @ 6 E E 7.h 9 = 7 ;.w.Y.*X|.G.p.m.g %.+.%.%.%.%.",
"<.<.+.%.<.&.<.&.P./.~.F.p.8.y M.d / _.M.M.g % ; % < < 4 2 4 l 2 o 2.q n 4 4 4 4 % ; % d ^ q.C.E d y 8.N.(.'.'.Q.m.( %.%.%.%.%.%.",
"<.+.<.<.<.%.1.#.V.U.H.Z.i.;.7 Z.( _.M.r.p % > , , n n m 0 n C Z @ F Z S w B n N > < > % H E ) C.;.p q.N.~.(.H.M.p.~ +.%.%.%.%.%.",
"%.%.%.%.%.%.&.%.A.A.S.C.u.;.1 6.M.G.b.H @ > < n 0 D D F w A D D @ U I I N I S S 2 n 4 : + E ~ ) M.s 6.p.(.H.Z.C.t.^ %.%.%.%.%.%.",
"%.%.%.%.<.%.&.#.V.A.Z.C.8./ = r.J.t.H % % < b D C I I U w D A C @ F I F V Y I U w C w 4 % % E ( q.g t.t.(.D.Z.S.q.h %.%.%.%.%.%.",
"%.%.%.@.%.%.+.o.l g H.S.7 $ 7 q.C.8.7 ; > n A I D T U T V D #.w = I.I F N Y U Y N F S b : ; e E ;./ i.d 9 E H.C.8 7 %.%.%.%.%.#.",
"%.%.%.%.%.%.+.x 1.y p.i.= z s t.p.E # > < D F [ D T U T w K V C @ w D D N Y Y Y A Y I D 4 , @ E ;.q.r.L $.s j.6.* o %.%.%.%.%.%.",
"%.%.%.%.%.%.+.x f.P L f 8 2.i q.q.6 @ < w _ U T F Y U ] w D I V @ C F D M T U Y B T U ' w , @ E 6.q.w.-.z.Q H s 7 o %.%.%.%.%.%.",
"%.%.@.%.<.%.+.x P.7.i.-.i f.i r.6.8 ; q N ' U { F T U U V C _ C @ F I D N Y U [ C { U } B 5 > E ;.7.w./ ).r.r.;.8 $ %.%.%.%.%.%.",
"%.%.<.%.%.%.+.X.I.q.m.w.d f.g u.6.1 ; , A U ' [ G T I F w C V V @ V I A M I I { C T T T S , > H 6.;.6.^ }.j.m.7.7 $ %.%.%.%.%.%.",
"%.+.%.%.%.<.&.x x.{.g i P.7 s i.;.= ; C F Y U [ F T I K M C v w # f._ F N I G { Z T I c.F Z % d 6.7.6.E .X/.i g f.$ %.%.%.+.%.%.",
"%.%.%.%.<.+.@.x 0.p.;./ g 7 p t.;.1 ; Z S T U [ F { U F n C G F 1 F [ K C I U { C T U T S Z ; p 5.6.;.^ H.y.b./ i $ %.%.%.+.%.%.",
"%.%.%.<.<.<.+.x l L 8.H 3 $ i t.6.1 ; Z F T U Y F T Y U M C G G @ D [ F B U U T B T I T F C ; i ) ;.5.E 7 E 7.9 = $ %.%.%.%.%.%.",
"%.%.+.+.%.<.%.X.k U.A.B.u.$ g r.6.7 > Z S Y { | R T T I M C V F @ B U F B I Y Y C c.T T F Z ; p 6.^ ;.E ! (.m.m.) $ %.%.%.%.%.+.",
"%.%.<.%.+.<.+.X.l 7.8 p g $ s t.q.7 ; C F U T  .K T T I M C I.w #  X} F C I T { C v.U T F Z ; 9 ;.Q ^ H Q / 7 s s $ %.%.%.%.%.%.",
"%.%.%.%.%.%.@.X.l >.7 p h $ 9 t.7.8 > A U ] | | F U { U n C J C # .._ F N T [ Y N | | T U Z ; s E Q Q H g / 3 p i $ <.+.<.<.+.<.",
"%.%.%.%.%.<.@.o.u -.y a g $ i q.6.7 % C F K _ F D K F K C C A V $ F D F C K K K C K _ R K A % s E Q E E y / 9 d i $ <.+.+.<.<.+.",
"%.%.%.%.%.%.@.o.j -.i g d $ y r.;.7 & v *.g.E.W.E.E.[.[.E.L.T.:.  4.g.I.T.W. XE.E.T.R.g.*.v & i Q E Q g a / i g 9 & %.<.<.+.<.+.",
"<.%.%.%.%.%.@.o.k :.i E h $ 9 7.6.=   2.* - g.- - - #.4.- - {.-   d.- - - *.g.* * o x.- * :.o s h E E d y ^ d P 9 @ @.%.+.<.+.<.",
"@.<.+.<.@.<.@.o.u =.d P d $ 9 ) ;.7 . O @ # O O . X X O X @ O O   O O o . o O X . O # # # O X 9 E s h 9 s E h E t & +.%.<.+.<.+.",
"<.@.+.<.<.<.@.O.l >.g P g & y t.6.= 4 F U { T T A _ U T n I D D @ G D I B T U G B [ [ | U F 5 s ^ ;.;.E h ^ h E t - <.%.+.<.+.<.",
"%.<.<.%.<.@.@.o.j >.g H h $ d q.;.7 4 F I { | Y A I U T C F D D @ K C K A T U F C T | | U F 0 s q.^ ) E s / d E i @ <.+.+.<.<.<.",
"+.<.+.%.@.@.@.o.c >.H H g $ d r.6.8 % n U T v.{ D I G T C D W.w # XXR F C T I F B { v.| I n 2 e ;.! ^ E E ^ H d t & <.+.<.<.+.%.",
"<.<.+.<.+.<.+.X.l >.H P g @ y p.q.7 4 S U T  .T Z U U Y V V G D $ D C A B ] G G B ] v.{ G F 5 p / Q Q L d -.P P y $ <.%.%.%.%.%.",
"+.<.<.<.<.<.+.X.j ;.h P g & i 8.6.7 , S F U  .T Z U U U n V I D @ D D A m Y ] ` B ] v.] F Z < p Q Q Q L p ^ H P y $ %.%.%.%.%.%.",
"<.+.<.+.%.%.+.o.l =.i E p & i u.;.= , B D I T { F U U G w V G A @ A A C n G Y G Z { [ U F B , p ^ Q Q g g E d P 8 $ %.%.%.%.%.+.",
"%.<.%.%.<.<.%.X.u ,.p d d & t 7.7.7 > n S G Y } Z G S U w C z N @ k.C A n G G G n [ T G F n 1 p L E E g t ;.d g t $ %.%.%.%.<.%.",
"%.<.<.%.+.%.+.X.u =.7 8 g $ 8 q.) 7 : B B S I I Z G F G 0 B J m % ~ Z B q G G S M G G G m m > p / E E g 7 Q 8 9 t $ %.<.<.%.%.%.",
"<.<.+.%.<.%.+.X.j y s y * $ 9 7.5.= : B B G S I B S S S 0 n Z m @ B Z m q F S S q G G G Z m > p H H g p & 7 s d - $ %.&.%.%.%.%.",
"%.%.<.%.%.<.+.X.l j = = - y h -.;.$.$ 1 6 e p p d d d d g d d d . d g d g d d g d p p 9 2 1 @ >.Q d E Q 7 9 = * 1 $ %.%.%.%.%.%.",
"%.%.%.%.<.&.%.X.d.z.u.>.z = $.9.q.$ o :.- - 4.9 - - #.*.- 3 {.-   2.r - - v g.3 - * d.- - 2.. = :.=.:.7 l.N.l.e.3.$ %.%.%.%.%.%.",
"<.<.%.%.<.<.<.x a.g.L.L.L.s.- L / = o t = 1 p * * 1 1 t * = ! 1   i + 1 * 8 p 1 * @ s 6 = 9 X 9 s 9 s $.L.L.K.K.K.$ %.%.%.%.%.%.",
"%.+.%.%.<.@.<.X.*.&.g a r @ 8 ;.;.g , m Z I Z S n S S m q n m b + n Z m q Z Z S 4 S Z I Z m , h H 9 i 8 f z z z z $ %.%.%.%.%.%.",
"+.<.%.%.<.<.+.X.d.e.>.! z $ f.N.V.# : n Z F m Z < Z Z m # n b n O q n n > m m Z > Z m F Z n : * k.h.k.= =.,.3.e.9.$ %.%.%.%.%.%.",
"<.%.<.+.<.@.<.X.0.0.=.$.L $ = E g * : b m m m Z < m m n ; n 4 w O 0 5 n : n n m > B m S m q ; 6 s = 7 6 ,.e.3.9.9.$ %.%.%.%.%.%.",
"+.<.%.<.%.<.<.j 2.3.$.W g & * ,.h - O : b n b b 5 b b 5 : 5 7 : X #.q < , 5 5 w , b b N q : # 7 E d y 8 =.=.$.3.3.$ %.%.%.%.%.%.",
"%.<.%.<.<.1.4.x K.E.W.[.[.g.f.z.z.o % , 5 w 5 5 < < < < ; < : , X > < < : 4 5 5 > 4 5 n 4 , % % A.z.l.:.[.[.[.[.[.$ %.%.%.%.%.%.",
"<.%.%.+.%.+.+.j l u y f - o @ y 8 @ O ; , < > < : , , , % : : : X : ; : % : , : ; , , 4 2 % o - h 7 8 = 7 t l u u $ %.%.%.%.%.%.",
"+.%.%.%.+.%.+.+.+.+.+.%.%.%.%.+.O.+.O.+.+.+.+.%.%.%.@.@.+.+.+.+.+.+.@.@.%.#.%.%.%.+.+.+.#.%.+.+.%.%.%.%.<.+.#.+.+.+.%.%.%.%.%.%.",
"<.%.<.+.+.%.+.<.%.%.%.%.+.%.%.%.<.+.<.%.%.%.%.%.+.%.%.%.%.<.%.<.%.%.%.%.%.%.%.%.%.%.%.%.%.%.%.%.%.%.%.%.%.%.%.%.%.%.%.%.%.%.%.%.",
"+.<.+.<.<.%.<.+.%.%.%.+.%.%.%.+.+.%.%.+.%.%.<.+.%.%.%.%.%.+.<.+.%.%.%.%.%.%.%.%.%.%.%.%.%.%.%.%.%.%.%.%.%.%.%.%.%.%.%.%.%.%.%.%.",
"<.%.%.%.%.%.<.%.+.%.%.%.%.%.%.%.+.<.%.%.%.%.%.%.%.+.%.%.%.%.%.<.%.@.%.%.%.%.%.%.%.%.%.%.%.%.%.%.%.%.%.%.%.%.%.%.%.%.%.%.%.%.%.%.",
"<.%.%.%.<.+.+.%.%.%.%.%.%.%.%.+.+.%.%.<.+.<.%.%.%.<.<.%.%.+.<.+.%.<.%.%.%.%.%.%.%.%.%.%.%.%.%.%.%.%.%.%.%.%.%.%.%.%.%.%.%.%.%.%.",
"+.%.<.+.%.%.%.%.%.+.%.%.+.%.%.%.+.%.<.+.%.%.%.<.%.%.+.<.%.%.%.<.%.%.%.%.%.%.%.%.%.+.%.%.%.%.%.%.%.%.%.%.%.%.%.%.%.%.%.%.%.%.%.%.",
"<.+.+.<.%.%.%.+.%.%.+.%.%.%.+.%.+.%.%.%.%.%.%.+.%.<.%.%.%.%.%.%.%.%.%.%.%.%.%.%.%.%.%.%.%.%.%.%.%.%.%.+.%.%.%.%.%.%.%.<.%.%.%.%.",
"%.%.<.%.%.+.%.+.%.+.+.%.%.%.%.%.+.<.+.%.%.+.%.<.%.%.%.+.%.%.%.%.@.%.%.%.%.%.%.%.%.%.%.%.%.%.%.%.%.%.%.%.%.%.%.%.%.%.%.%.%.%.%.%.",
"+.%.+.%.%.+.%.+.%.%.%.%.%.%.+.%.%.%.<.%.%.<.%.%.%.%.%.<.<.%.@.%.%.%.%.%.%.%.%.%.%.%.+.%.%.%.%.%.%.%.%.%.%.%.%.%.%.%.%.%.<.%.%.%."
};
