/* XPM */
static char *result[] = {
/* columns rows colors chars-per-pixel */
"64 64 104 2 ",
"   c #010101",
".  c #0D0203",
"X  c #070708",
"o  c #09090A",
"O  c #120305",
"+  c #190407",
"@  c #1D0408",
"#  c #15090B",
"$  c #130D11",
"%  c #131216",
"&  c #191419",
"*  c #19191D",
"=  c #23050A",
"-  c #2C070D",
";  c #280A0F",
":  c #32070E",
">  c #32080F",
",  c #210E13",
"<  c #2C0C12",
"1  c #360810",
"2  c #3C0A11",
"3  c #3C0E18",
"4  c #35151D",
"5  c #3B151D",
"6  c #31181F",
"7  c #1D1C21",
"8  c #3D1720",
"9  c #361A22",
"0  c #3A1B24",
"q  c #351F28",
"w  c #3C1F29",
"e  c #222127",
"r  c #25252C",
"t  c #35242D",
"y  c #39222C",
"u  c #2B2B34",
"i  c #322630",
"p  c #392731",
"a  c #362933",
"s  c #3E2B35",
"d  c #3B2D39",
"f  c #33333D",
"g  c #3E313D",
"h  c #3A3C3C",
"j  c #4E0009",
"k  c #450B14",
"l  c #4B0C16",
"z  c #430F19",
"x  c #530512",
"c  c #580613",
"v  c #500C17",
"b  c #530D19",
"n  c #5C0F1B",
"m  c #42131C",
"M  c #55121E",
"N  c #5C111E",
"B  c #620F1D",
"V  c #64101E",
"C  c #69101F",
"Z  c #401620",
"A  c #431924",
"S  c #481C27",
"D  c #431D28",
"F  c #5B1421",
"G  c #6E1221",
"H  c #731222",
"J  c #7C1325",
"K  c #4A2229",
"L  c #402C39",
"P  c #42313F",
"I  c #373742",
"U  c #3D3541",
"Y  c #3C3A46",
"T  c #3F3F4C",
"R  c #403440",
"E  c #403A46",
"W  c #413D4A",
"Q  c #40404D",
"!  c #4E4E4E",
"~  c #4F5352",
"^  c #505353",
"/  c #746769",
"(  c #6D706F",
")  c #7A7D7C",
"_  c #831427",
"`  c #871528",
"'  c #8B1629",
"]  c #8F182B",
"[  c #91172B",
"{  c #99172C",
"}  c #94182D",
"|  c #9A1A2F",
" . c #9E1A30",
".. c #A21B31",
"X. c #A91C33",
"o. c #848686",
"O. c gray54",
"+. c gray57",
"@. c #989B9A",
"#. c gray63",
"$. c #AAADAC",
"%. c #CABCBE",
"&. c #DFD2D4",
"*. c #FDFDFD",
/* pixels */
"Q Q Q Q Q Q Q Q Q Q Q T Q Q Q Q T Q Q Q Q Q Q Q Q Q Q Q Q Q Q Q Q Q Q Q Q Q Q Q Q Q Q Q Q Q Q Q Q Q Q Q T Q T T W T Q T T T T Q ",
"Q Q Q Q Q Q Q Q Q Q Q T Q Q Q Q T Q Q T Q Q Q Q Q Q Q Q Q Q Q Q Q Q Q Q Q Q Q Q Q Q Q Q Q Q Q Q Q Q Q Q T T Q T T T Q T T T T T ",
"Q Q Q Q Q T Q Q Q Q Q Q Q Q Q Q T T Q Q Q Q Q Q Q Q Q Q Q Q Q Q Q Q Q Q Q Q Q Q Q Q Q Q Q Q Q Q Q Q Q Q T T T Q T T T T T T T T ",
"Q Q Q Q Q Q Q Q Q Q Q Q T Q T T T Q Q Q Q Q Q T y 2 1 1 1 - 1 1 3 1 < > 1 2 p Q Q Q Q Q Q Q Q Q Q Q Q Q T T T Q T T T T T T W T ",
"Q Q Q Q Q Q ! Q Q Q Q Q Q Q Q Q Q Q T T Q Q Y g A k l l l l l v v l l l M l S P T Q Q Q Q Q Q Q Q Q Q Q T Q T T T T T Q W T T T ",
"Q Q Q Q Q Q Q Q Q Q Q Q Q T Q Q Q T Q T T Q y 5 M H _ ` ` ' ' ] ] ] } } } } G 5 a Q Q Q Q Q Q Q Q Q Q Q Q Q Q Q Q T T T T T T T ",
"Q Q Q Q Q Q Q Q Q Q Q Q Q Q T Q Q Q T W T g 5 v H [  .X.X.X.X. .| | | | | | J M 8 R Q Q Q Q Q Q Q Q Q Q Q Q Q T Q Q Q T Q T T Y ",
"Q Q Q Q Q Q Q Q Q Q Q Q Q Q Q Q T Q T T i 5 M H ' | ..X.X.X._ N N N N V N V H ] G 8 a Q Q Q Q Q Q Q Q Q Q Q Q Q Q Q Q Q T T T T ",
"Q Q Q ^ Q Q Q Q Q Q Q Q Q Q Q Q Q T T g 5 v H ' | ........} n - = - - - = - n | ' b 8 R Q Q Q Q Q Q Q Q Q Q Q Q Q T Q Q T T T T ",
"Q Q Q Q Q Q Q Q Q Q Q Q Q Q Q Q Q Y y m N H ' | ..X.X.X.` n > . . O O O . . - n J ' H 8 i T Q Q Q Q Q Q Q T Q Q Q Q Q Q T Q Q Q ",
"Q Q Q Q Q Q Q Q Q Q Q Q Q Q Q Q Q U 4 l G ' | X.......} V - .               . = n | ] M 5 U T Q Q T Q T Q Q T Q Q Q Q Q Q T T T ",
"Q Q Q Q Q Q Q Q Q Q Q Q Q Q Q Q Q I 4 k G ' | X.X.| J N > .                   . : N H J G A p Y Q T Q Q T T Q T Q Q Q Q T Q Q T ",
"Q Q Q Q Q Q Q Q Q Q Q Q Q Q Q Q Q U 5 l G ` | ..X.| V > O                       . - V  .[ v 4 U Q Q T T Q T Q Q Q Q Q Q T T Q Q ",
"Q Q Q Q Q Q Q Q Q Q Q Q Q Q Q Q y K M G J ` | X.X.| V - .                         = V ..} v 4 U Q Q Q Q Q Q Q Q Q Q Q Q Q Q Q T ",
"Q Q Q Q Q Q Q Q Q Q Q Q Q Q Q Q > l H _ _ _ } ..X. .G > O     o               X # : B | ] v 9 U Q Q Q Q Q Q Q Q Q Q Q Q T Q T T ",
"Q Q Q Q Q Q Q Q Q Q Q Q Q Q Q Q > l H ' ` ` ' [ ..| V > . X ^ O.!           h o./ 5 c { ] v 4 I Q Q Q Q Q Q Q Q Q T Q Q Q T T T ",
"Q Q Q Q Q Q Q Q Q Q Q Q Q Q Q Q 6 8 H ` _ J J ` |  .V :   X @.*.+.          ( *.%.K j { ] l 4 U Q Q Q Q Q Q Q Q Q Q Q Q Q Q Q Q ",
"Q Q Q Q Q Q Q Q Q Q Q Q Q Q Q Q 3 z H J V B H `  . .C >   X $.*.#.          ) *.&.K j | ] l 4 U Q Q Q Q Q Q Q Q Q Q Q Q Q T Q Q ",
"Q Q Q Q Q Q Q Q Q Q Q Q Q Q Q Q 1 z H J l 3 B ` .. .V 1   X @.*.+.          ( *.%.K j { ] v 4 U Q Q Q Q Q Q Q Q Q Q Q Q Q T T T ",
"Q Q Q Q Q Q Q Q Q Q Q Q Q Q Q Q 1 l J J l 2 V ` .. .V -     ~ O.~           h o./ 5 x ' _ l 9 U Q Q Q Q Q Q Q Q Q Q Q Q T Q T T ",
"Q Q T Q Q Q Q Q Q Q Q Q Q Q Q Q 1 l H J l 2 B ` .. .V > O     o               X # > n J H l 5 U Q Q Q Q Q Q Q Q T Q T Q Q T Q Q ",
"T T Q Q Q Q Q Q Q Q Q Q Q Q Q Q y A B B k k G ' } } J B 1 O                       - b J J l 4 U Q Q Q Q Q Q Q Q T Q Q Q Q Q T T ",
"T Q Q T Q Q Q Q Q Q Q Q Q Q Q Q T U 8 k 2 k G ` _ _ }  .G < O                   . : n J H l 4 U Q Q Q Q Q Q Q Q T T T Q T Q Q Q ",
"T Q Q Q Q Q Q Q Q Q Q Q Q Q Q Q W T p 9 q A M G J _ |  .J b : O               . - b B C N A p Y Q Q Q Q Q Q Q Q Q Q T Q Q T Q T ",
"Q T Q T T Q Q Q Q T Q Q Q Q Q Q W T T T Q T 0 l G ` ` ` _ J b : O           . - v J H l 5 U Q Q Q Q Q Q Q Q Q Q T T T T T Q Q Q ",
"T T T T Q T Q T Q Q Q Q Q Q Q Q W W W T W T U 8 M C C C J ` H b - O . . . . - l B G F A a W Q T Q Q Q Q Q Q Q T T Q Q Q Q Q T Q ",
"Q Q T T T Q Q Q Q Q Q Q Q Q Q Q Q Q W W T W W U 8 k 2 2 V _ ` H v - - - - - l H G l 0 U T Q Q Q Q Q Q Q Q Q T T T Q Q Q Q Q Q T ",
"T Q T T T Q T Q Q Q Q Q Q Q Q Q Q Q Q Q W W T U A l k l C _ ' [ J n n n n n H [ J b 5 d Y T T Q Q Q Q Q Q T T Q T Q Q Q Q Q Q T ",
"T T Q T Q Q Q Q T T Q Q Q Q Q Q Q Q W Q Q T q 3 B H H H J _ [  . .} [ } [ [  . .} J n 3 q Y Q T Q T Q Q Q T T Q T Q Q Q Q Q T Q ",
"Q Q T T T Q Q Q Q Q Q Q Q Q Q Q Q Q W T T R m n J [ [ ' ' ` { ..X.X.X.X.X.X.X... .[ J n m L h Y Q Q Q Q T Q Q Q Q Q Q Q Q Q Y T ",
"Q Q T T Q Q Q Q Q Q Q Q Q Q Q Q Q Q Q T y z N J [  . . . . . ... ............. ... .} J B k y h T T Q T Q T T T Q Q Q Q Q Q Q Q ",
"T Q Q Q T Q Q T Q Q Q Q Q Q Q Q Q Q Q T 4 l H `  ...X....... ..... ....... .......X.| ' H l 4 h Q T T T Q T T Q T Q Q Q Q Q h Q ",
"Q T Q T T Q T Q Q T Q Q Q Q Q Q Q Q Q Y 5 k C ' | ............ ....... ... ......... .` G k 4 U T T T T T T T Y T Q Q Q Q T W T ",
"Q Q T W Q T Q T T Q Q Q Q Q Q Q Q Q Q Y 9 k C ] | ...... ......... ......... ....... .' H l 4 U T T T T T W T T T Q T T W Q T T ",
"Q T Q Q T T Q T Q Q Q Q Q Q Q Q Q Q Q Y 6 k J | ...... ........... ... ............. . .J l 4 U T Q T T W T T T T T T Q T T Y Q ",
"T T Q Q Q T Q Y Q T T Q T Q Q Q Q Q T P 5 b ` X.X....... ..... ......... ... ... . .X.X.` v 4 I T W T T T T T T T T T T h Y Q T ",
"Q Q T T Q T T Q T Q T Q Q Q Q Q Q Y y m N H { X....... ..... ......... .............X.X._ l 6 U Q T T T T T Q Q T T T T Q Q Q Q ",
"Q Q Q Q T Q Q T Q Q Q Q T T Q Q Q g 4 v H ' | | .......... ....... . . . ... ... .....X.' b 4 U T Q Q Q Q T T T T T T T Q Q Q T ",
"Q Q Q T Q Q Q Q T Q Q Q Q Q Q Q Q U 4 l H _ ` ' | ................ .| ] } ............X.} H n Z 9 Q T Q T T Q Q Q Q T T Q T Q Q ",
"Q Q Q Q Q Q T Q Q T Q Q Q Q Q Q Q Y 4 l H _ _ ` } .... ... ... .....] J ]  ..... .......| ] H l 2 Q Q Q Q T Q Q Q Q Q T Q T Q Q ",
"Q Q Q Q Q Q Q Q T Q Q T Q Q Q Q Q Y 5 k G _ } } |  ... .........X...} ` ' ..........| [ ' ' H l < Q Q Q T Q Q Q Q Q Q T Q Q T Q ",
"Q Q Q Q Q Q Q Q T T Q T Q Q T Q Q U 4 k G ' | ..X.| ............ . .] J ' ..........{ _ _ _ G k > Q Q Q Q Q Q Q Q Q Q Q T Q Q Q ",
"Q Q Q Q Q Q Q Q T Q T Q T Q Q T Q U 4 l C ` ' } | X...X.....X... .[ G M C ' { ..X...| _ J _ G l > Q Q Q Q Q Q T Q Q Q Q Q Q Q Q ",
"Q Q Q Q Q Q Q Q T T Q Q Q Q Q Q Q U 5 k H _ _ _ } .. ...| .... .[ J n 2 v J [ ......{ _ _ _ H k 1 Q Q Q Q Q Q T Q Q Q Q Q Q T Q ",
"Q Q Q Q Q Q T Q T Q Q T Q T T Q Q U 4 k H _ _ _ | ..} ' | ..| [ ] J n > v J ' '  ...| _ _ _ H k > Q Q Q Q Q Q Q Q Q Q Q Q Q Q Q ",
"Q Q Q Q Q T Q Q Q Q Q Q Q Q T Q Q g 4 l G _ _ _ |  .' _ } | } J _ _ n 1 b J _ J '  . ._ _ _ G l 1 Q Q Q Q Q Q Q Q Q Q Q Q Q Q Q ",
"Q Q Q Q Q Q Q Q Q Q Q T Q Q Q T W g 4 l H ` _ _ ' } } } } [ ` _ ` ` n 2 b J _ _ ` } ] ` _ _ G k 1 Q Q Q Q Q Q Q Q Q Q Q Q Q Q Q ",
"Q Q Q Q Q Q Q Q Q Q Q Q Q Q T T Q Y 4 l H _ _ _ J _ }  .[ _ J _ ` _ n 2 v _ _ _ _ J _ J _ ' H k 1 Q Q Q T Q Q Q Q Q Q Q Q Q Q Q ",
"Q Q Q Q Q Q Q Q Q Q Q Q Q Q Q Q Q Y s D M V J _ _ _ ] } ` _ _ _ J V l 2 n _ ` _ _ _ H n V ` H l 1 Q Q Q Q Q Q Q Q Q Q Q Q Q Q Q ",
"Q Q Q Q Q Q Q Q Q Q Q Q T Q Q T T Q Q h 9 l H _ _ _ _ _ _ _ _ _ n 2 1 2 n J ` _ _ _ C 3 v J H l 1 Q Q Q Q Q Q Q Q Q Q Q Q Q Q Q ",
"Q Q Q Q Q Q Q Q Q Q T Q Q T Q T T T Q Y 4 k H _ H V H _ ` _ J V 2 = + @ 2 B H _ ` ` H n n V n D y Q Q Q Q Q Q Q Q Q Q Q Q Q Q Q ",
"Q Q Q Q Q Q Q T T Q Q Q T T T T T Q T Y 4 k H J b k C _ ` _ V 2 @       + 2 B _ ` ` _ _ H v 8 U Q Q Q Q Q Q Q Q Q Q Q Q Q Q Q Q ",
"Q Q T T T T Q T Q T W T T Q T T T T T h p A N V A 8 M C H C v 1 , 7 7 * % @ 2 V G C G H n 8 a T Q Q Q Q Q Q Q Q Q Q Q Q Q Q Q Q ",
"Q Q Q T Q Q T Q Q T T T T T T T Q Y T T T g m 2 L Y w k k k k 2 w Y T Y 7   @ 2 l k k k 8 U T W Q Q Q Q Q Q Q Q Q Q Q Q Q Q Q Q ",
"Q T Q Q Q T Q T T T W Q Q Q T T T T T T W W t y U T g 0 ; = < A U Q Q T I 7 $ @ < 9 9 9 I T Q Q Q Q Q Q Q Q Q Q Q Q Q Q Q Q Q Q ",
"Q Q T Q Q T T Q Q T Q Q T Q Q Q T T T Y T T Y Y W Q T Y &   7 E Q Q Q Q W Y e X $ U W Y T Q Q T Q Q Q Q Q Q Q Q Q Q Q Q Q Q Q Q ",
"Q Q Q Q Q Q Q Q Q T T T Q Q Q Q Q Q Q Q Q Q Q Q Q T I u 7 % u Q Q Q T Q Q Q u   % T T T Q Q Q Q Q Q Q Q Q Q Q Q Q Q Q Q Q Q Q Q ",
"Q Q Q Q Q Q Q Q Q T Q T T Q T Q Q Q Q Q Q Q T Q Q T * X e I T Q Q T Q Q Q Q r   % T T T Q Q Q Q Q Q Q Q Q Q Q Q Q Q Q Q Q Q Q Q ",
"Q Q Q Q Q Q Q Q Q Q Q Q Q Q Q Q Q Q Q Q Q Q T Q T T * $ u T Q Q Q Q Q Q Q Q r   % I T T Q Q Q Q Q Q Q Q ^ Q Q Q Q Q Q Q Q Q Q Q ",
"Q Q Q Q Q Q Q Q Q Q Q Q Q Q Q Q Q Q Q Q Q Q Q Q T T I f Y T Q Q Q Q Q Q Q Q r   % T Q T Q T Q Q Q Q Q Q Q Q Q Q Q Q Q Q Q Q Q Q ",
"Q Q Q Q Q Q Q Q Q Q Q Q Q Q Q Q Q Q Q Q Q Q Q Q Q T Q T T Q Q T Q T T T Q Q r   * T T T Q Q Q Q Q Q Q Q Q Q Q Q Q Q Q Q Q Q Q Q ",
"Q Q Q Q Q Q Q Q Q Q Q Q Q Q Q Q T Q Q Q Q Q Q Q T T Q T T Q Q T T T Q T Q Q Q Q Q Q T T Q Q Q Q Q Q Q Q Q Q Q Q Q Q Q Q Q Q Q Q ",
"Q Q Q Q Q Q Q Q Q Q Q Q Q Q Q Q Q Q Q Q Q Q Q Q Q Q T T Q T T Q Q Q Q Q Q Q Q Q Q Q Q Q Q Q Q Q Q Q Q Q Q Q Q Q Q Q Q Q Q Q Q Q ",
"Q Q Q Q Q Q Q Q Q Q Q Q Q Q Q Q T Q Q Q Q Q Q Q Q Q Q Q T Q T Q T Q Q T T Q Q Q Q Q Q Q Q Q Q Q Q Q Q Q Q Q Q Q Q Q Q Q Q Q Q Q "
};
