/* XPM */
static char *result[] = {
/* columns rows colors chars-per-pixel */
"64 64 104 2 ",
"   c #010101",
".  c #0D0203",
"X  c #09090A",
"o  c #120305",
"O  c #1E0509",
"+  c #16080A",
"@  c #0F0F11",
"#  c #180F14",
"$  c #181317",
"%  c #16161B",
"&  c #1A171C",
"*  c #19191D",
"=  c #24060B",
"-  c #2C070D",
";  c #32070E",
":  c #32080F",
">  c #200D13",
",  c #2D0D14",
"<  c #360810",
"1  c #3C0A12",
"2  c #3C0E18",
"3  c #35151D",
"4  c #3C151D",
"5  c #1E1E24",
"6  c #351720",
"7  c #3D1720",
"8  c #361A23",
"9  c #3B1B24",
"0  c #351F28",
"q  c #381F29",
"w  c #212127",
"e  c #24242C",
"r  c #35232D",
"t  c #39222C",
"y  c #2B2B33",
"u  c #332731",
"i  c #3A2731",
"p  c #372933",
"a  c #3E2B35",
"s  c #3C2E39",
"d  c #34343F",
"f  c #3E323D",
"g  c #3A3C3C",
"h  c #4E0009",
"j  c #450B14",
"k  c #4B0C16",
"l  c #430F19",
"z  c #530512",
"x  c #580613",
"c  c #500C17",
"v  c #540D19",
"b  c #5C0F1B",
"n  c #42131C",
"m  c #56121E",
"M  c #5C111E",
"N  c #620F1D",
"B  c #64101E",
"V  c #69101F",
"C  c #411721",
"Z  c #431A24",
"A  c #481C27",
"S  c #431D28",
"D  c #5B1421",
"F  c #6D1221",
"G  c #731222",
"H  c #7C1325",
"J  c #41202A",
"K  c #4A2229",
"L  c #402C39",
"P  c #43323E",
"I  c #373742",
"U  c #3D3541",
"Y  c #3D3A45",
"T  c #3F3F4C",
"R  c #403440",
"E  c #403945",
"W  c #413E4B",
"Q  c #40404D",
"!  c #4E4E4E",
"~  c #4F5352",
"^  c #505353",
"/  c #746769",
"(  c #6D706F",
")  c #7A7D7C",
"_  c #831427",
"`  c #871528",
"'  c #8B1629",
"]  c #8F182B",
"[  c #91172B",
"{  c #99172C",
"}  c #93182D",
"|  c #9B1A2F",
" . c #9E1A30",
".. c #A21B31",
"X. c #A91C33",
"o. c #848686",
"O. c gray54",
"+. c gray57",
"@. c #989B9A",
"#. c gray63",
"$. c #AAADAC",
"%. c #CABCBE",
"&. c #DFD2D4",
"*. c #FDFDFD",
/* pixels */
"Q Q Q Q Q Q Q Q Q Q Q Q Q Q Q T Q Q Q Q Q Q Q Q Q Q Q Q Q Q Q Q Q Q Q Q Q Q Q Q Q Q Q Q Q Q Q Q Q Q T Q T Q T T T Q Q T T T T Q ",
"Q Q Q Q Q Q Q Q Q Q Q T Q Q Q Q T Q W Q T Q Q Q Q Q Q Q Q Q Q Q Q Q Q Q Q Q Q Q Q Q Q Q Q Q T Q Q Q Q T Q T Q T Y T Q T T T T T ",
"Q Q Q Q Q T Q Q Q Q Q Q Q Q Q Q Q Q Q Q T Q Q Q Q Q Q Q Q Q Q Q Q Q Q Q Q Q Q Q Q Q Q Q Q Q Q Q Q Q Q T T T Q Q Q T T T T T T T ",
"Q Q Q Q Q Q Q Q Q Q Q Q T Q T T Q Q Q Q Q Q 0 < < < < < < : : < 2 : < < a Q Q Q Q Q Q Q Q Q Q ^ Q Q Q Q T T Q Q T Q Q T T T T T ",
"Q Q Q Q Q Q Q Q Q Q Q Q Q T Q Q Q W T Q Y f C k k k l c c c k k c c c c K U Y Q Q Q Q Q Q Q Q Q Q Q T Q T T T T T T T T T T T Y ",
"Q Q Q Q Q Q ! Q Q Q Q Q Q Q Q Q Q T Q Y r 4 m G _ ` ' ` ' ] ] ] ] ] { } F 7 u Q Q Q Q Q Q Q Q Q Q Q Q Q Q Q Q Q Q Q T T T T T T ",
"Q Q Q Q Q Q Q Q Q Q Q Q Q Q T Q Q Q Y f 4 c G ]  .X.X.X... .| |  .|  .| H v 9 R Q Q Q Q Q Q Q Q Q Q Q Q Q Q Q T Q Q Q T W T T W ",
"Q Q Q Q Q Q Q Q Q Q Q Q Q Q Q Q Q T r 4 m G ] ....X.X.X._ D m B M M M D H ] G 7 p Q Q Q Q Q Q Q T Q Q T Q Q Q Q Q Q Q T T T T T ",
"Q Q Q Q Q Q Q Q Q Q Q Q Q Q Q Q W f 4 k G [ | ........} b - - - - - - - b | ` v 7 U Q Q Q Q Q Q Q Q Q Q Q Q Q Q Q T Q Q T T T Q ",
"Q Q Q Q Q Q Q Q Q Q Q Q Q Q Q W a n b G ] | ....X...` b - . . . o . . . - b H ] G 7 u Q Q Q Q Q T Q Q Q Q T Q Q Q Q Q Q T T Q Q ",
"Q Q Q Q Q Q Q Q Q Q Q Q W W Q T 3 j F ' | ........| B - o               . - b | ` m 4 U Q Q Q Q Q T Q T Q Q T T Q Q Q Q Q T T T ",
"Q Q Q Q Q Q Q Q Q Q Q Q W W W T 3 j F ' | ..X...H M ; .                   . - b H _ F Z p Y Q Q Q Q Q Q T T Q Q Q Q Q Q Q Q Q T ",
"Q Q Q Q Q Q Q Q Q Q Q W W Q Q T 4 k F ' | ..X. .B ; o                       . - B | } m 3 f Q Q Q Q Q T Q T Q Q Q Q Q Q T T Q T ",
"Q Q Q Q Q Q Q Q Q Q Q Q Q Q i S m V H ` | X.X.| B - .                         = B  .{ c 3 I Q Q T Q Q Q Q Q Q Q Q Q Q Q Q T Q T ",
"Q Q Q Q Q Q Q Q Q Q W Q W W < k G ` _ ` } ..X.| B : o     X X             X + - B | ] k 3 U Q Q Q Q Q Q Q Q Q Q Q Q Q Q Q Q T Q ",
"Q Q Q Q Q Q Q Q T Q T W T T < k G ` ` ` ' } ..| V : .   ~ O.!           g o./ 4 x | ] k 3 U Q Q Q Q Q Q Q Q Q Q Q T Q Q T T T T ",
"Q Q Q Q Q Q Q Q Q Q Q Q Q Q < j G ` _ H H _  . .B ;   X @.*.+.          ( *.%.K h { ' c 6 U Q Q Q Q Q Q Q Q Q Q Q Q Q Q Q Q T T ",
"Q Q Q Q Q Q Q Q Q Q Q Q Q Q < k G H V N G `  .{ F ;   X $.*.#.          ) *.&.K h | ] c 3 U Q Q Q Q Q Q Q Q Q Q Q Q Q Q Q T Q Q ",
"Q Q Q Q Q Q Q Q Q Q Q Q Q Q 2 l G H k 2 V ` ..{ B ;   X @.*.+.          ( *.%.K h { ] c 3 U Q Q Q Q Q Q Q Q Q Q Q Q Q Q Q T T T ",
"Q Q Q Q Q Q Q Q Q Q Q Q Q Q < k H H j < N ' .. .F -     ~ O.!           g o./ 4 z ' _ k 3 I Q Q Q Q Q Q Q Q Q Q Q Q Q Q Q Q Q T ",
"Q Q Q Q Q Q Q Q Q Q Q Q W W < k G H k 1 V ` ..| F - .     X               X + ; v H G k 4 U T Q Q Q Q Q Q Q Q Q T T T Q Q T Q T ",
"Q Q Q Q Q Q Q Q Q Q Q Q W T i t M N k j V ' { [ _ b < o                       - b H G c 3 U W Q Q Q Q Q Q Q Q Q T T T Q Q Q T T ",
"Q Q Q Q Q Q Q Q Q Q Q Q W W Q Y 7 j 1 j F ` _ ` | | V : o                   . - v H H k 6 U Q Q Q Q Q Q Q Q Q Q T Q T Q T Q Q T ",
"T Q Q Q Q Q Q Q Q Q Q Q Q Q Q T i 6 8 S m F H _ |  .H v , o               . - c V F b Z i Y Q Q Q Q Q Q Q Q Q Q Q Q T Q Q Q Q Q ",
"Q T Q T T Q T Q Q Q Q Q Q Q Q Q T T T U 7 k F ` ' ` _ H v < o           . - c H G c 4 U W T Q Q Q Q Q Q Q Q Q Q T T T T Q Q T T ",
"T T Q T Q T T T Q Q Q Q Q Q Q Q T T W T p 7 m V V V H _ G v - o . . . . - k B F D 7 p T T W Q T Q Q Q Q Q Q Q T T Q Q Q Q Q Q Q ",
"T Q T T T Q Q Q T Q Q Q Q Q Q Q W W W W W E 9 1 1 1 V _ ` G v - - - - - k G F k 9 U Q Q T Q Q Q Q Q Q Q Q Q T T Q Q Q Q Q Q Q T ",
"Q Q T T Q Q T Q Q Q Q Q Q Q Q Q W W T W Y U A k k k V H ' ' H M v b b b G ] H c C f Y Y T T Q Q Q Q Q Q Q T T Q T Q Q Q Q Q Q T ",
"T T Q Q Q Q Q Q T Q Q Q Q Q Q Q Q Q W T q 2 N G G G G _ '  .| } } } } { | ..} H b 2 q Y T Q Q Q Q Q Q Q Q T T Q T Q Q Q Q Q Q T ",
"Q Q T T T Q Q Q Q Q Q Q Q Q Q Q Q W U U n b H [ { ' ' ' { ..X.X.X.X.X.X.X...| } H b n L g T Q g Q T Q T T Q Q Q T Q Q Q Q Q T T ",
"Q Q T T Q T Q Q Q Q Q Q Q Q Q Q Q T t l M H }  . . . . . ..................... .[ H b j t g Q Q T T Q T Q T T T T Q Q Q Q Q T T ",
"T Q Q Q T Q Q T Q Q Q Q Q Q Q Q Q T 6 k F '  ..................... .............| ] G k 4 g Q T T T T T T T W Q T Q Q T Q Q W T ",
"Q T Q W T Q Q Q Q Q T Q Q Q Q Q Q E 8 j V ` | .............. ......... .........} ` F k 3 I T T T T T T T Y Q T T Q Q Q Q T T T ",
"T Q Q T Q T Q Q T Q Q Q Q Q Q Q Q Y 3 j G [ |  .......| .......... ............. .] G k 3 U T T T T T T T Q Q W T Q T T T T T T ",
"Q T Q Q T T Q T Q Q Q Q W Q Q Q Q Y 3 j H | ............| ........ ... ........... .H k 3 g W W T T Y T Q Y T T W W T T T W T T ",
"T T Q Q Q T Q Y Q T T Q Q Q W T T f 4 v ` X.X................. ......... ... ...X.X.` c 3 U W W T Q T Q T T T T T T Q Q T T Q g ",
"Q Q T Q Q T T Q T Q T Q Q Q Q W t n M G } ..........| .... ............... .......X.` k 6 Y W Q Q Q Q T T T T Q T T T T T T Q T ",
"Q Q T Q T Q Q T Q Q Q Q T T Q U 3 k G ] | ...................... . . ...........X...' v 3 f T Q Q Q Q Q Q T T T T T T T T T T T ",
"Q Q Q T Q Q Q Q T Q Q Q Q Q Q U 3 k F ] | ........| ............} ] }  ..... .......{ G D Z q W T Q T Q Q Q Q Q T Q T T T T Q Q ",
"Q Q Q Q Q Q T Q Q T Q Q Q Q Q U 3 k V ' | ......................] _ ]  ... ......... .' F k < Q Q Q Q Q Q T Q T Q Q Q T Q Q Q Q ",
"Q Q Q Q Q Q Q Q T Q Q T Q Q T U 3 k F ` | ......................} _ [ ................' G j 1 W Q Q Q Q T Q Q Q Q Q Q Q Q Q T Q ",
"Q Q Q Q Q Q Q Q T Q Q T Q T Q U 4 j G ` { ...... ..... .......| ] H `  .............{ ' F j < T Q Q Q Q Q Q Q Q Q Q Q Q T Q Q Q ",
"Q Q Q Q Q T Q T T Q T Q Q T Q U 3 j F `  ...................| ] G v F ` | ..X... .[ ' ' F j < Q Q Q Q Q Q T Q Q Q Q Q Q Q Q Q Q ",
"Q Q Q Q Q Q Q Q T T Q Q Q Q Q U 3 k F ` | .......... . .....| _ b 1 c H [  .....{ _ _ _ G j < Q Q Q Q Q Q Q Q T Q Q Q Q Q Q T T ",
"Q Q Q Q Q Q T Q T Q Q T Q T T U 3 k F ` ] [  ...} [ | ..| ' ` H v < c H ` ] { ..{ _ H ` F j < Q Q Q Q Q Q Q Q Q Q Q Q Q Q Q Q Q ",
"Q Q Q Q T T Q Q Q Q Q Q T W W U 3 k F _ _ _ { ..' H }  .[ _ ` _ b 1 v H _ _ ] | } _ _ _ F k < W Q Q Q Q T Q Q Q Q Q Q Q Q Q Q Q ",
"Q Q Q Q Q Q Q Q Q Q Q T Q Q T U 3 k G ` _ H ` [ } } [ ] ` _ ` ` N 1 v H _ _ _ ] } ` ` ` F k ; Q Q Q Q T Q Q Q Q Q Q Q Q Q Q Q Q ",
"Q Q Q Q Q Q Q Q Q Q Q Q Q Q T f 3 k G ` _ _ _ ` |  .[ _ H _ ` _ b 1 v _ _ _ _ _ _ H ` ` F k < W Q Q Q Q Q Q Q Q Q Q Q Q Q Q Q Q ",
"Q Q Q Q T Q Q Q Q Q Q Q Q Q Q T s J m B H _ _ _ [ } ` _ _ _ H N 1 O j _ ` _ _ _ G b V H G k 2 Q Q Q Q Q Q Q Q Q Q Q Q Q Q Q Q Q ",
"Q Q Q Q Q Q Q Q Q Q Q Q T Q Q T W I 3 k V ` _ _ _ _ H _ ` _ N 1 o   ; _ ' _ _ _ V 2 c H G k , T Q Q Q Q Q Q Q Q Q Q Q Q Q Q Q Q ",
"Q Q Q Q Q Q Q Q Q Q T Q Q T T W W Y 3 j F ' F V G _ ` _ H N 1 =     = N H _ ` ` G b b V D S p T Q Q Q Q Q Q Q Q Q Q Q Q Q Q Q Q ",
"Q Q Q Q Q Q T Q Q Q Q Q W T T Q W Y 3 k G _ v j V ` ' _ N 1 O       o 1 b _ ' _ _ ` F c 7 R T Q Q Q Q Q Q Q Q Q Q Q Q Q Q Q Q Q ",
"Q Q T Q T T T Q Q T T Q T T T T T Y p 7 M N Z 0 m V G B c < > & 5 * # O 1 B F V F G M 7 I T T T Q Q Q Q T Q Q Q Q Q Q Q Q Q Q Q ",
"Q Q T T Q Q T T T T T T T T T T W T T f 4 j a Y J j j j j 1 t Y W Y e   O 2 j j j j C R Q Q T T Q Q Q Q T Q Q Q Q Q Q Q Q Q Q Q ",
"Q Q Q Q Q T Q T T Q T T Q Q T T W Q Q Y t 8 Y Q r = = = < t P Q Q Q y   . O , 6 9 6 i W Q Q Q Q Q Q Q Q Q Q Q Q Q Q Q Q Q Q Q Q ",
"Q Q T Q Q T Q Q Q T W Q T W Q Q Q W W Y Y Y T Y $     . w Y Q Q Q Q e     X # U W T T W Q Q Q Q Q Q T Q Q Q Q Q Q Q Q Q Q Q Q Q ",
"Q Q Q Q Q Q Q Q T Q Q T Q Q Q T Q Q Q Q Q Q Q Y e @     e Q T Q Y y 5 % @ @ e Q Q Q Q Q Q Q Q Q Q Q Q Q Q Q Q Q Q Q Q Q Q Q Q Q ",
"Q Q Q Q Q Q Q Q Q T Q Q T Q T Q Q Q Q Q Q Q W Q Q d %   w Q Q Q w X % I Y I Y Q Q Q Q Q Q Q Q Q Q Q Q Q Q Q Q Q Q Q Q Q Q Q Q Q ",
"Q Q Q Q Q Q Q Q Q Q Q Q Q Q Q Q Q Q Q Q Q Q Q Q Q Q *   5 T Q Q e X w Q Q Q Q Q Q Q Q Q Q Q Q Q Q Q ^ Q Q Q Q Q Q Q Q Q Q Q Q Q ",
"Q Q Q Q Q Q Q Q Q Q Q Q Q Q Q Q Q Q Q Q Q Q W Q T T *   5 T Q Q Y I I Q Q Q Q Q Q Q Q Q Q Q Q Q Q Q Q Q Q Q Q Q Q Q Q Q Q Q Q Q ",
"Q Q Q Q Q Q Q Q Q Q Q Q Q Q Q Q Q Q Q Q Q Q Q Q Q T %   5 Q Q T T T T T T Q T T Q Q Q Q Q Q Q Q Q Q Q Q Q Q Q Q Q Q Q Q Q Q Q Q ",
"Q Q Q Q Q Q Q Q Q Q Q Q Q Q Q Q T Q T Q Q Q Q Q T Q T T T Q Q T T T Q Q Q Q T T Q Q Q Q Q Q Q Q Q Q Q Q Q Q Q Q Q Q Q Q Q Q Q Q ",
"Q Q Q Q Q Q Q Q Q Q Q Q Q Q Q Q Q Q T Q Q Q Q Q Q Q Q T Q T T T Q Q Q Q Q Q Q Q Q Q Q Q Q Q Q Q Q Q Q Q Q Q Q Q Q Q Q Q Q Q Q Q ",
"Q Q Q Q Q Q Q Q Q Q Q Q Q Q Q Q Q Q Q Q Q Q Q Q Q Q Q Q T Q T T Q Q T Q T Q Q Q Q Q Q Q Q Q Q Q Q Q Q Q Q Q Q Q Q Q Q Q Q Q Q Q "
};
