/* XPM */
static char *result[] = {
/* columns rows colors chars-per-pixel */
"64 64 24 1 ",
"  c #3F3F4B",
". c #3F3F4C",
"X c #3F3F4D",
"o c #40404A",
"O c #41414A",
"+ c #40404B",
"@ c #41414B",
"# c #42424B",
"$ c #43434B",
"% c #40404C",
"& c #41414C",
"* c #40404D",
"= c #41414D",
"- c #42424C",
"; c #43434C",
": c #42424D",
"> c #43434D",
", c #40404E",
"< c #41414E",
"1 c #41414F",
"2 c #42424E",
"3 c #43434E",
"4 c #42424F",
"5 c #43434F",
/* pixels */
"552>5222534<223<:223233255553552555555555255354522::=2&<%:><===>",
"54522:34453<3525=2:2<4324555555255555555525535452:><:*-<%=2<,X==",
"34522<4244532<22<:23<53255455552555555555255354522:=&=#-,*:<%&%*",
"35522333:445<3=<=222253225555535555555555533354522>>=-#:%=2%%=%=",
"3544553333<22223::==<22253445445255555552544524352<2==+&&2%4-&*+",
"25555453423522432:3=<22525552353525555525353255322244:2>22&%==.*",
"24355555222235<22:<>><43225425553552225535555455234233:=252<3=%$",
"555355422325423:12*-=<2<223545455435553455454532223<3223222<<:: ",
"3443354552232523<%;2=222222335553455555435555322344325222252===:",
"53455555455223<252%%==<:<22233442533333524553533<3:32<255222<=::",
"44352255355552323:&;-=2<::22233252555554545344434<3=4>*435223,=+",
"24445422555555522<2*<=%=<2><22333445455455555235412:<=32522:24:2",
"3422543522222225345=:<2:422:2222335555535442535423<<>=22532><<4:",
"134<4552433333425542<>2:>42:222225223225424543412>2:2:52232>2<2<",
"=:235<24235553242<5222=2:2<2:42322::22223525322335:3234<24222:=:",
":234233412222214332432:-5132<2:42<>::332245425325:5543253=23:%&=",
":::2523=2333332=3252:222>=:=<2<<<::*:322222522223244422225222=:>",
"32==>2<522222225<2>2=435=3<2==3=<=&=<*<<13>2452225255233:=32:<24",
"5>25252323233323252523524:=:*3:&==:%<&2<:-2>2>=2534524122:332:&=",
"25332453:22222:554253542342:%><=2&-%:-&24:=3=*554354434:::=2<2=,",
"22243424545255542452541334>24=2*&:-%-=;32<3<:32545523522:><24<2:",
"2=225453222222455443243:5354522<2<&:-**-544222:5554233<3:::232<=",
"=22<254243333322454253452532552:>==<=3:4>5222532454232<2::=2=2::",
"&-=22224345543342243222255444423:<22=:>:52:<3422455232<322<32<22",
":<5<=3>44222<24433<452323325545<2>==2=&:<23<325325323522:==<=3::",
"%%:,3:::223233:2325<322325543<34<:3<>::=<2*2<22<4354222==;-3>:<5",
":2==><=3:22222252232<53524352424::2<2--=2=3:%>:2232322<=2-2:25<=",
"-:<<=3=>3333232325<555552352432<=3323:==222,=<&432234<::=:>3223-",
"&=3<2533=<2::2255535542535443123=3522:><23=1:*:=>=223<<-X:2244=-",
"-:&==2243424545255542452541334>24434:::<2<2-*&&&:=34<4:2:&5532%-",
"32=<2<225453422222455443243:5334524123:252:-=&:-;%2=2<<=&33322=:",
"<:>:<33<25424333332245425345255255233:=322<=2&:-:&<=:%=:=22242@=",
"2<2>*:=222243455433422432223552444232252222=:=*=-=&X.&% 25552*%*",
":22%3<:2=2>44222<24433<452323525545253:232<3:2*==*%&.&&@&:==o==.",
"4<22=*:,3:::223233:23:5<322355523234<24233<3:;=2*<@=&&@@-:--+@+>",
"==>2:2&&-<=3:22222252232<5354432252532423522::-:=2=2&====&-:%%-+",
"24=<:<*2<3=>>>33233324<55555435243:225523423:>:23<2==%<2&:&=:*2=",
"33=3=1:<2433==22:225553554253544342325423523::=5422:2:*=::<&=<==",
"254=33::=242322254544554245454<324324354424223<222<2:242<21&:*32",
"4245432:2=2242554222224354532<3>53255543244<4342552:>=:4242=2-22",
"5545322:=32<454243333322522<532535545525523:22545242=2:3522=3:=2",
"24222532=-:<5<22354545342253:223455554425<2224352434:23223<2<2:5",
"22253<2%-2<4=23<2222222133245<32555352554325325423523:3=5543252:",
"43324423%=222:2::23333=2325232=555355543<34225542342323<444232<4",
":>:523=2<3:=3<<>::::22252232255453544352225>24552352323:23523>22",
"52232<545:2:=2<:>:>:>332242554555554354422225552235222324524423>",
"3<4<5455523<231<=-:=<::355555355425354434:325555234<322:54424223",
"55555355422>42<=2:<22245342545424545443:52<554354434:22252352323",
"44322522254524;>:::4233222222435253243:5>55255545244253522352223",
"222222334432<:3<&2:2:4223333342554<2245>55554552542332255234<322",
"3333322522<22<:-:=22=:2223345242<3322:25545555444223225552332323",
"43222242<33:-&&:,:,=2=1<=<22<44>224523<5555535255432532552352323",
"=<=2<<<:2==:=-==%%<=&&==22233<=:232>2252455355542221224354234223",
":22,::=<:<,&%%<<2++@%=-&-=:::242<3225555453544322325:25545244253",
":@::2-3%,:%:32<=-:% #O&:2-:::>324<544545555323542322245525523322",
">3=:>=-2:&::=:24<=+o %&*=<=:==23355555355425352134<32554425<2224",
"2222*<<3:>::333::5=::3::2,:<22245223555424545442>532535235252232",
"553525522=2:=2<23523:>=331:24223222222453453223323553235432342<5",
"5355543<34225542342323=4122:2:42433333425442534434535443425<5223",
"3544352225>24552352323:::2=:2=2425:232342<4322225555543544322235",
"55435443:22555223522232<3<4,=::<1<<<<<<<>324523:52425354424<3:55",
"25354424<2254352421222:5<<:<=->==<2:23==:23<:=:5424545442343:322",
"54544:3332255545224:5255232=><-:-:2:-2:3<<:==2225545221325335523",
"522<333355545525423322522352=2:-2::2=::2=<:333322534253433342334"
};
