/* XPM */
static char *result[] = {
/* columns rows colors chars-per-pixel */
"64 64 48 1 ",
"  c #2F2A2F",
". c #302B2F",
"X c #312B2F",
"o c #312C2F",
"O c #332D2F",
"+ c #312C30",
"@ c #322C30",
"# c #322D30",
"$ c #332D30",
"% c #342D30",
"& c #342E30",
"* c #352E30",
"= c #352E31",
"- c #392D36",
"; c #3A2D36",
": c #3B2E36",
"> c #3B2F36",
", c #3C2E36",
"< c #3C2F36",
"1 c #3C2F37",
"2 c #3D2F37",
"3 c #3D3036",
"4 c #3D3037",
"5 c #3E3037",
"6 c #4E363A",
"7 c #4F363A",
"8 c #4F373A",
"9 c #50373A",
"0 c #51373A",
"q c #674541",
"w c #674542",
"e c #684541",
"r c #684542",
"t c #684642",
"y c #82594B",
"u c #82594C",
"i c #83594C",
"p c #835A4C",
"a c #845A4C",
"s c #855B4C",
"d c #96705B",
"f c #97705C",
"g c #97715C",
"h c #98715C",
"j c #98715D",
"k c #98725D",
"l c #99725D",
"z c #9A735E",
/* pixels */
"#########@#@#@#@#@#@+%%%$###############@#@#@$@#@#+%@#@#########",
"pppppppppappppppppapf;%$9pppppppppppppppppppppppppj%apppappppppp",
"twwwwwwwwwwwwwwwwwwwik1$9wwwwwwwwwwwwwwwwwwwwwwwwta%7wwwwwwwwwww",
"wwwwwwwwwwwwwwwwwwwwwpf.9wwtwwwwwwwwwwwwwwwwwwwwwta%7wwwwwwwwwww",
"wwwwwwwwwwwwwwwwwwwwwwyo9wwwwwwwwwwwwwwwwwwwwwwwwta%7wwwwwwwwwww",
"wwwwwwwwwwwtwwwwwwwwtwyo9wwwwwwwwwwwtwwwwwwwwwwwwta%7wtwwwwwwwww",
"wwtwwwwwwwwwwrwwwwwwwwyo9wwwwwwwwrr887rwwwwwwwwwwta%7wwwwwwwwwww",
"wwwwwwwwwwwww7wwwwwwwwyo9wwwwtwwr77rrrwwwwwwwwwwwta%7wwwwwwwwwww",
"wwwwwwwwwwwww7trwwwwwwyo8rwr90009rwwwwwwwwwwwtwwwta%7wwwwwwwwwww",
"wwwwwtwwwwwwwt979rwwwwy+4777rrrrr7rwwwtwwwwwwwwwwta%7wwwwwwwwwww",
"wwwwww9rwwwr094459tr0wy+5wwtwwwwtw8wwwwwwwwwwwwwwta%7wwwr9wwwwww",
"wwwwwwr77tr745%%59r7rwio9wwwwwwwww7wwwwwwwwwwwwwwta%9rwwr7wwwwwt",
"wwwwwwwww8944%%%%49rw95$9wwwwwwwwwwwtwwwwtwwwwwtwta%498w9wwwwwww",
"twwwwwwr74444%%%%%4874%$9rwwwwwwwwwwwwwwwwwwwwwr77>%%457twwwwwww",
"99999999544444%%%%%44%%&59999999999999999999999944%%%%%499999999",
"$$$$$$4<<<22444%%%$@@@@$@+++++++++ $$$$+++++++++@@#@@@@@++++++++",
"%%%%%%$iuitt9944449iuuuwuuuuuuuuuuj4%%+uuuuuuuuuuuuuuuuuuuuuuuuu",
"44454%$7wwiat74479rwwww7wwtwwwwwwwij-:%8wwwwwwwwwwwwwwtwtwwwwwww",
"999944%8wwtt0998wwwwwr0rwwwwwwwwwwwpgd+9rwwwwwwwwwwwwwwwwwwwwwww",
"999994$8twwwr7rr8wwwwt9wwwwwwttwwwwwpi@9rwwwwwwwwwtwwwwwwwwwwwwt",
"999994%8wwww0rwwwwwww7wwwwwwwwwwwwwwwi@9rwwwtwwwwwwwwwwwwwwtwwww",
"999994$8wwwwtwwwwwwwr7rwtwrrrwwwwwwwwi@9rww87rwwwwwrrwrwwwwwwwww",
"999994%8wwwtwwwwwwwr0r9rwrrrwwwwrrwwwi@9rwwwr9wwtww99r8wwwwtwwwt",
"999994$8wwwwwwwwwrrr9r9wrrwewwwwwwrwwi@9rwwwwr7wwr7rr8twwwwwwwww",
"999994%8wwwwwrrwerr7wrqwrwwwwrrrrw8wwi@9rwwwww7ww0rwww7wwwwwwwww",
"999995$8wrrrrrqrrwqwrrerrwrwrwqwwwr7rp@9twwwwwr9t9wwwwr7wwwwwwtw",
"999994$9rrqqrqwwwrrwrrrrrrwqwwwwwwww7r$9rwwwwwww7wwwwwwwwwwwwwww",
"999994$8rqwrrerrwqwrrrrrqwwwwwwtwwwwwi@9rwwwwwwr7wwwwwwwwwwwwwww",
"999994$8rrrrrrrrrrwwwwwwwwwwwwwwwwwwwi@9rwwwwww0rwwwwwwwwwwwwwww",
"999994%49rrrrrrrwwqwwwqwwwwwwwwwwwwwwi@97wtwwwr9wwwwwwwwwwwwwwww",
"999993%%299rrrwqwwwwwwtwwww12rwwwwwwwi@449rwww7wwwwwwwwwwwwwtwww",
"9999994%%448888888888888884%%488898887$%%48887488888888888888888",
"77977771@@@++O+++++++X$$++@@@@++++++++@@@@++++@X$$$$++++++++++++",
"papapapapapaiwiapapapl1+iapapapaapapapapapapapph;%%*apapapapapap",
"wwwwwwwwwwwr9rwwwwwwwpf.9wwwwwwwwwwwwwwwwwwwwwwpj<%%7wwwwwtwwwww",
"wwwwwwwwwww7wwwwwwwwwwyo9wwwwwwwwwwwwwwwwwwwwwwtif,%7wwwwwwwwwww",
"wwwwwwwwr77rtwwwwwwwwwyo9wwwwwwwwwwwwwwwwwwwwwwtpg;%7wwwwwwwwwww",
"wwwwwwwt8rwwwwwwwwwwwwyo9wwwwwwwwwwwwwwwwwtwwwwwwpl%7wwtwwwwrr89",
"wwwwwr77rwwwwwwwwwwwwwyo9wwwwww7wwwwwwwwwwwwwwwwwta%7wwwwwr77844",
"wwwww7ww9rwwwwwwwwwwwwyo9wwwwwr8wwwwwwwwwwwwwwwwwta%7wwwr9944444",
"wwwr7rww9rwwwwtwwwtwwwyo9wwwww7rwwwwwwwwwwwwwwwwwta%7wwwww788422",
"wr00rtwww8wwwwwwwwwwwwyo9wwwwr8wwwwtww9wwwwwwwwwwta*7wwwwwwtw999",
"r7rrwwwwwrwwwwwwwwwwwwyo9wwww7rwwwwwwwr7rwwwwwwwwta%7wwwwwwwwrrr",
"0rwwwwwwwwwwwwwwwwwwwtyo9wwwwwwwwwwwwwww90rwwwwtwta%7wwwwwwwwwwt",
"rwtwwwwwwwwwwwwwwwwwr7<$9rwtwwwwwwwwwwwwrr8wwwwwwts%7wwwwwwwwwww",
"wwwwwwwwwwwwwwwwwwwr94%%48wwwwwwwtwwwwwwwtrwwwwwww5%7wwwwwwwwwww",
"8888888888888888888894%%%47888888888888888888888872%479888888888",
"%%%%%%%%%%%%%%%%%%%%%%%&%%%%%%&%%%%%=%%%%%%%%&%%%%%%%%%%%%%%%%%%",
"%%%%%%%%4aaaa6aaaaaaaaaaaaaaaaaaaaaaz:%%<paaaaaaaaaaaaaaaaaaaaaa",
"44454%%%59wttr0tttttttttttttttttttttid+4rtttttttrttttttttttttttt",
"aaaw75%49rwwww9rwwwwwwwwwwwwwwwwwwwwwi@9rwwwwwwwtwwwwwwwwwwwwwww",
"rrtit2%7wwwwwww7wwwwwwwwwwwwwwwwtwwwwi@9rwwwwwwwwwwwwwwwwwwwwwww",
"wwwwp<$8wwwwtwr7wwwwwwwwwwwwrwwwwwwwwi@9rwwwwwwwwwwwwwwwwwww77rw",
"wwwwu1%8wwwwww0rwwwwwwwwwwww9wwwwwwwwi@9rwwwwwwwwwwwwwwwwwwtwr9w",
"wwwwwa$8wwwwwwr7wwwwwwwwwww7rwwwwwwwwi@9rtwwrwwwwwtwwwwwwwwwwwr7",
"wwwwra$8wtwwww0rwwwwwwwtwww7wwwwwwwwwi@9rwww7wwwwwwwwwwwwwwwwwww",
"wwwwra$8www7r70t9wwwwwwwww7rwwwwwwwwwi@9rwwr7rwwwwwwwwwwwwwwwwww",
"wwwwra$8wwwr9457wwwwwwwwwwwwwwwwwwwwwi@9rww0t0wwwwwwwwwwwwwwwwww",
"wwwwra$8wwwwr7449wwwwwwwwwwwwwwwwwwwwi@9rrr9rr7wwwwwwwwwwwwwwwww",
"wwwwra$8wwww0r919wwwwtwwwwwwwwwwtwwwwi@4987wwwwwwwwwwwwwwwwwwwww",
"wwwwra$8wwwwwwr7r7wwwwwwwwwwwwwwwwwwwi@%29rwwwwwwwwwwwwwwwwwwwww",
"wwwwta$8wwwwwr0rwrwwwwwwwwwwwwwwwwwwwi@%29rwwwwwwwwwwwwwwwwtwwww",
"889888%4888871988898888888888888888887$%%58888888898888888888888",
"$$$$$$%%$$$$$%$$$$$$$$$$$$$$$$&$$$$$$$%%%%$$$$$$$$$$$$$$$$$$$$$$"
};
