/* XPM */
static char *_3926863d6ee4c8cbaa45529d26867cfRJ9lkY9JpRb09w2g[] = {
/* columns rows colors chars-per-pixel */
"64 64 213 2 ",
"   c #1F1B23",
".  c #1F1A29",
"X  c #201A24",
"o  c #281F27",
"O  c #261E2C",
"+  c #281F2E",
"@  c #2F2426",
"#  c #26232D",
"$  c #29212E",
"%  c #3B2827",
"&  c #342A29",
"*  c #3B2C29",
"=  c #3C342D",
"-  c #2A2232",
";  c #292835",
":  c #2C2A36",
">  c #312536",
",  c #352B34",
"<  c #3C2B32",
"1  c #332D3B",
"2  c #3A2D3C",
"3  c #373233",
"4  c #3C3635",
"5  c #3E3937",
"6  c #34313D",
"7  c #3A363B",
"8  c #3B393C",
"9  c #4C2D27",
"0  c #473228",
"q  c #4A3C2F",
"w  c #503B2A",
"e  c #4A2D33",
"r  c #483437",
"t  c #463A34",
"y  c #4B3D34",
"u  c #433338",
"i  c #4C363C",
"p  c #433B3B",
"a  c #493D3C",
"s  c #513A33",
"d  c #573939",
"f  c #793C2E",
"g  c #683A36",
"h  c #723D36",
"j  c #57432D",
"k  c #5A422D",
"l  c #4C4135",
"z  c #47413B",
"x  c #4D433D",
"c  c #524234",
"v  c #55443A",
"b  c #5A483A",
"n  c #6C4927",
"m  c #65482B",
"M  c #764D29",
"N  c #6B502C",
"B  c #7D5328",
"V  c #634D39",
"C  c #754A33",
"Z  c #65523A",
"A  c #755335",
"S  c #7A5739",
"D  c #7A603E",
"F  c #363441",
"G  c #3B3443",
"H  c #383846",
"J  c #3C3B45",
"K  c #3E3E4A",
"L  c #433642",
"P  c #423E44",
"I  c #413F4A",
"U  c #3F4047",
"Y  c #3F404B",
"T  c #454245",
"R  c #4D4244",
"E  c #42424E",
"W  c #524441",
"Q  c #534A42",
"!  c #574748",
"~  c #5D5347",
"^  c #434350",
"/  c #66524A",
"(  c #725846",
")  c #644852",
"_  c #796344",
"`  c #834937",
"'  c #8C5D31",
"]  c #805A3B",
"[  c #9A5738",
"{  c #A4533D",
"}  c #84653A",
"|  c #98663B",
" . c #9F773E",
".. c #A6673C",
"X. c #B86D3D",
"o. c #AD733C",
"O. c #A9773D",
"+. c #B0733C",
"@. c #B27C3C",
"#. c #CF6E3B",
"$. c #CF723C",
"%. c #D1733D",
"&. c #D77B3F",
"*. c #865147",
"=. c #9A5E46",
"-. c #885C57",
";. c #905C50",
":. c #866C47",
">. c #956345",
",. c #8A704C",
"<. c #9C7143",
"1. c #94774D",
"2. c #8D6454",
"3. c #97675D",
"4. c #947A51",
"5. c #B56847",
"6. c #A67945",
"7. c #BC7344",
"8. c #B97948",
"9. c #A66653",
"0. c #946963",
"q. c #9A6C63",
"w. c #947163",
"e. c #9E7163",
"r. c #A07263",
"t. c #B37A6E",
"y. c #A77D71",
"u. c #C37C45",
"i. c #CA7847",
"p. c #D67741",
"a. c #DA7D44",
"s. c #D07B4B",
"d. c #C36E57",
"f. c #CA7956",
"g. c #D17C50",
"h. c #CB7761",
"j. c #C37F71",
"k. c #AC854C",
"l. c #B68847",
"z. c #B5834A",
"x. c #A68454",
"c. c #AF816E",
"v. c #BF9C60",
"b. c #C68445",
"n. c #CA8747",
"m. c #D58143",
"M. c #DC8245",
"N. c #DD8943",
"B. c #D6864B",
"V. c #DC854C",
"C. c #D18D4B",
"Z. c #DD8A49",
"A. c #C9914A",
"S. c #D5924B",
"D. c #DF944B",
"F. c #D49A4D",
"G. c #DC9D4C",
"H. c #D88452",
"J. c #D98853",
"K. c #CE9956",
"L. c #E28C46",
"P. c #E38949",
"I. c #E48E4C",
"U. c #E39346",
"Y. c #E5914C",
"T. c #E9954D",
"R. c #E6994A",
"E. c #EA9B4D",
"W. c #E58F50",
"Q. c #E99550",
"!. c #E69A50",
"~. c #EB9D52",
"^. c #F19C56",
"/. c #DCAB5E",
"(. c #E5A14D",
"). c #EDA24D",
"_. c #F0A54F",
"`. c #F2AB4E",
"'. c #EDA351",
"]. c #EBAA54",
"[. c #F0A551",
"{. c #F3AD53",
"}. c #FBAC53",
"|. c #E8B15C",
" X c #F5B252",
".X c #F9B553",
"XX c #FBB954",
"oX c #F4B659",
"OX c #FBBC5B",
"+X c #CF846A",
"@X c #D98A69",
"#X c #D58B77",
"$X c #D89473",
"%X c #DDAE61",
"&X c #D5AD6D",
"*X c #D9B26E",
"=X c #EBB667",
"-X c #F7BB64",
";X c #FEC468",
":X c #F7C273",
">X c #DC9885",
",X c #E49A85",
"<X c #F19E88",
"1X c #EBA38A",
"2X c #F6A58E",
"3X c #EAAD95",
"4X c #F4AE94",
"5X c #F9AC93",
"6X c #E9B49D",
"7X c #FCB097",
"8X c #F2B89D",
"9X c #E6B8A4",
"0X c #FBBEA4",
/* pixels */
"E E E E I ^ ^ Y ^ E E E K I ^ ^ E Y E E E E E E E E E E ^ ^ E E ^ E ^ E E E E ^ E E ^ E ^ E ^ E E ^ ^ ^ ^ ^ ^ ^ E E ^ E ^ ^ T ^ ",
"E E E E E E E ^ ^ E E K ^ ^ ^ Y Y E E E E E E E E E E E E ^ ^ ^ E ^ E E ^ ^ ^ ^ E E E ^ ^ E E E ^ T ^ ^ T E ^ ^ E ^ E ^ ^ ^ ^ ^ ",
"E E E E E E E E E Y ^ E ^ K ^ K E E E Y E E E E E ^ E E ^ E E E ^ ^ ^ E Y U U E E E E E E E E ^ ^ E E E E E E E ^ T ^ ^ E ^ ^ E ",
"E E E E E E E E E E ^ E ^ E E ^ Y E E E E E Y E ^ ^ E E ^ E ^ E E Y E E 8 #   : H E E E E ^ ^ E E E E E E E E E ^ ^ ^ ^ ^ ^ ^ ^ ",
"E E E E E E E E E ^ E E E E K E E Y Y E E E E E E ^ E E ^ E ^ ^ Y Y F 7 x _ D Z a Y E E E E ^ E ^ E ^ E ^ E ^ ^ E E ^ ^ ^ ^ E ^ ",
"E E E E E E E E E ^ K E E E E E E Y ^ E E E E E E ^ ^ E E E E E K T ~ S x.=X:Xz.V E E E ^ ^ E ^ E ^ E E E ^ ^ ^ ^ ^ E T T ^ E E ",
"E E E E E E E E E ^ E E E E E E E E U E E U E ^ ^ ^ E ^ E ^ E J W _ v.=XoX'.'.o.V P E E E ^ ^ E E E E ^ ^ ^ T ^ E ^ ^ ^ E ^ ^ E ",
"E E E E E E E K E E E E E Y E I U U E E E E E E E ^ ^ E ^ E U z 4.*XoXOX XE.R.+.Z T E ^ E E ^ E ^ E E E E E ^ ^ E E ^ ^ ^ ^ E ^ ",
"E E E E ^ K E E E K K ^ E E E E Y E E U E E E ^ E E E E Y U Q 4./.OXXX.X~.Y.T.b.S p K ^ ^ E ^ ^ ^ ^ ^ ^ ^ ^ Y ^ ^ ^ E ^ E E ^ ^ ",
"E E E ^ E E E ^ E E E E E E K E E Y Y E E E E ^ E E E E U 5 4.%XOXXX.X).E.T.Y.Y.| * J ^ E ^ ^ E ^ ^ U ^ ^ ^ ^ ^ ^ ^ E ^ E ^ ^ E ",
"E E E K E E ^ E E E E E K E ^ E Y E E U E E E E ^ E E U z ,.%XOXXXXX`.U.P.W.Y.^.O.0 H E E ^ E ^ ^ ^ U ^ ^ T Y ^ ^ ^ T E T ^ ^ E ",
"E E E E E E Y E E E E E ^ ^ ^ K E Y E E E E E E E E U z :.:XXX.XXX X_.R.Y.Y.Y.E.b.A 7 K ^ E ^ E ^ ^ ^ ^ ^ ^ T ^ ^ ^ ^ ^ ^ ^ E ^ ",
"E E E E E E E E Y E E ^ K E E E Y E E E ^ ^ Y ^ E U x ,.;X XXXXX.X_.Y.Y.Y.I.Y.I.'.A.q F E E ^ E ^ ^ ^ ^ ^ ^ Y ^ ^ E E ^ ^ E ^ E ",
"E E E E ^ ^ ^ E ^ E E Y E E E E E ^ E E Y ^ ^ Y Y 5 :.:XXXXXXX.X{.~.Y.I.Y.Y.Y.Y.Y.S.1.T K E E E T U ^ ^ ^ ^ ^ ^ ^ ^ ^ E ^ ^ ^ T ",
"E E E E E I E E E E E E E E K E Y Y Y ^ ^ ^ Y Y Q 4./.OXXXXX.XR.i.i.Y.Y.I.W.Y.I.Y.Y.z.c H E E E ^ ^ Y ^ ^ T ^ Y ^ T ^ ^ ^ ^ ^ ^ ",
"E E E E ^ E E E E E ^ ^ K E ^ I ^ Y Y ^ ^ ^ Y Y ( K.OX.XXX XG...` [ V.Y.Y.Y.W.Y.Y.Y.C.m 5 E E E ^ Y ^ ^ ^ ^ ^ ^ ^ ^ ^ E ^ ^ ^ ^ ",
"E E E E E ^ E ^ E E E E I E E K I Y E E E E J b x.|.XX.X].u.=.g 9 ` s.Y.Y.Y.W.Y.W.Y.R.6.q F Y ^ ^ ^ T Y U ^ ^ ^ ^ ^ ^ ^ ^ ^ ^ T ",
"E E E ^ E I E E E E E E E Y E E E E Y E E H 8 ,.%XOX.X].8.h e < % g 5.W.Y.W.Y.W.Y.Y.Y.[.A 3 K ^ ^ ^ ^ ^ ^ ^ ^ ^ ^ ^ ^ ^ ^ ^ ^ Y ",
"E E E E E E E E E E E ^ E Y E K E E K E ^ : l &X;XXX'.8.d 2 2 G > e *.W.Y.Y.W.Y.W.Y.Y.~.l.b 8 K ^ ^ Y ^ ^ T ^ ^ ^ T ^ ^ ^ ^ ^ ^ ",
"E E E K E E Y E E E E K E E E E K E E E ^ ; l &X;X].8.g G I L G F e ` V.W.Y.Y.Y.Y.W.I.Y.].} 5 K ^ ^ Y ^ ^ ^ U ^ ^ ^ Y ^ ^ ^ ^ ^ ",
"E E E E E E E E Y E E E E Y I E E Y Y E ^ : z *X-Xu.h < L L F F G 2 e { P.Y.I.I.Y.Y.I.I.Q.@.V T U ^ ^ ^ ^ ^ ^ ^ Y ^ ^ ^ ^ T Y ^ ",
"E E ^ E E E E E E E E E E E ^ E E E E E ^ : l *X-X7.g > G 2 -.0.) > e { I.I.Y.Y.Y.W.P.T.'.<.x Y ^ ^ Y T ^ ^ ^ ^ ^ T ^ ^ ^ ^ ^ ^ ",
"E E E E ^ E ^ E E I E E K ^ E E Y E E E ^ J 5 } F.u.h > L q.#X#Xt.q.;.f i.V.Y.I.I.Y.T.^. .l T E ^ U ^ ^ U ^ ^ U ^ ^ ^ ^ ^ ^ ^ ^ ",
"E E E E E E E E E E E E E E ^ Y Y E E E E E J j 7.5.f L -.,X2X<X<X,Xj.9.5.V.W.Y.Y.Y.I.@.l 8 U E ^ ^ ^ ^ ^ ^ ^ ^ ^ ^ U ^ ^ ^ ^ ^ ",
"E E E E ^ E E E E E E I ^ E I E E Y E E E E K t } o.[ *.j.2X7X7X5X5X<X#Xd.H.I.W.Y.U.C.m 8 Y E ^ ^ ^ U ^ ^ ^ Y ^ ^ U ^ T ^ ^ ^ ^ ",
"E E E E E E E E E E ^ ^ K K ^ Y Y E Y T E E E U l } ..5.@X5X0X0X0X0X4X<Xh.H.I.Y.D.A.<.l K ^ E ^ ^ ^ ^ ^ T ^ ^ ^ ^ ^ ^ ^ Y ^ ^ ^ ",
"E E E E K ^ ^ ^ K E E E E E ^ K Y E Y E E ^ E E K t A 7.g.4X8X3X0X0X3X,Xi.Z.Y.S.A.x.x U Y E E E ^ T ^ ^ ^ ^ ^ ^ ^ ^ ^ ^ Y T ^ ^ ",
"E E E K E E E Y E E Y ^ E E E ^ E Y E E E E E E E J a ] n.W.$X1X4X,Xj.H.Q...' A Z x U Y ^ ^ ^ E Y ^ ^ Y ^ ^ ^ ^ ^ ^ ^ ^ ^ ^ ^ ^ ",
"E E K ^ E E I ^ E E E E ^ Y ^ K Y E E E E E E E E E U t C D.B.@X@Xf.B.J.n j a p U U U ^ ^ ^ ^ ^ ^ ^ ^ ^ ^ ^ ^ ^ Y T ^ ^ ^ ^ ^ ^ ",
"E E E E E E E ^ E E I E E E ^ K E K K E E E E E E E Y 7 w |.U.B.s.B.!.F.m 4 K E ^ ^ U Y ^ ^ ^ ^ ^ ^ ^ ^ ^ ^ T Y ^ ^ ^ ^ ^ ^ ^ ^ ",
"E E E E E E ^ ^ E E K E E E K ^ E E K E E E E E E E Y a ]  X XN.Z.~.~.Y.A.q 8 E ^ ^ ^ ^ T Y ^ Y T ^ ^ Y Y ^ ^ ^ ^ ^ ^ ^ ^ ^ ^ ^ ",
"E E E E ^ E E K E E E E E E ^ K E E E E E E E E E E J b l..X}.U.R.'.Y.Y.E.B a J Y ^ ^ ^ ^ ^ ^ ^ ^ ^ ^ ^ T ^ ^ ^ Y ^ ^ ^ ^ Y T ^ ",
"Y ^ E E E E ^ E ^ ^ ^ ^ ^ K K ^ K E Y E E E E ^ E I t M ]..X).).[.'.P.Y.Q.F.k 1 Y E E E E E ^ ^ E ^ ^ E E ^ E ^ E E ^ T ^ ^ ^ ^ ",
"^ E E E E ^ E E K ^ K ^ ^ ^ ^ K K E E Y E ^ E E ^ I t M XX.XR.[. XE.V.I.I..XN , K E E E E E E E ^ E ^ ^ E ^ E E T ^ ^ E ^ ^ ^ ^ ",
"E E E E E E Y ^ ^ ^ ^ K K ^ K ^ E E E E E E ^ E E I y ' XX.X(._.}.E.a.I.Y.).<.b J E E E E E ^ ^ ^ E E ^ ^ E ^ T ^ ^ ^ E ^ ^ ^ ^ ",
"E E ^ ^ K E E E I E ^ ^ K ^ ^ ^ E K E E E E E ^ K 7 w @.XX.XR._.{.E.a.P.Y.R.G._ 8 Y ^ E ^ E E E E E ^ E ^ ^ ^ ^ ^ ^ E ^ E E ^ ^ ",
"E E E E E E E I ^ ^ ^ E ^ ^ I K E E E E E E E ^ H @ M }.XX XR.]. XE.M.a.Y.U.G.} a K E ^ E ^ ^ ^ E ^ E E ^ E E E ^ T ^ ^ ^ ^ ^ E ",
"E E E I E E E E E Y E E Y ^ ^ Y K I E E E E E ^ K & M }.XX XR.`. X[.Z.$.D.I.E.<.v E E E ^ E ^ ^ ^ T ^ E ^ E ^ E ^ ^ ^ ^ T ^ ^ ^ ",
"Y E Y ^ E E E E E E E K Y ^ ^ K K E U E E ^ ^ E J e ' }..X XR.`..X[.P.$.I.Y.T.o.Z P E E E ^ ^ ^ ^ ^ ^ E E ^ E ^ E E ^ ^ ^ E E ^ ",
"^ E ^ ^ E K E E E E E E I E E ^ E E K E E ^ ^ K t A u.E. X XU.`. X^.M.$.I.Y.T.b.S 5 E ^ E E ^ ^ ^ ^ E ^ E E E ^ E ^ ^ T E ^ ^ E ",
"E E E E E ^ E E E E E E E E Y ^ E Y Y E E E Y P v ..I.Q.R. XR.).).N.&.#.W.W.I.Z.| * 8 Y E ^ E T E ^ ^ ^ E E E ^ E E E E E E E ^ ",
"E E E E E E E E E I E Y E E ^ I I E E E E E Y P S X.P.I.N.[.U.R.U.N.&.#.a.I.P.P...9 H E ^ ^ ^ E ^ ^ E E E E E ^ E E E ^ E ^ E E ",
"E E E Y K E E E E E E E K E E ^ Y I E U ^ ^ J i =.i.a.M.P.{.U.m.L.'.R.%.#.a.a.W.A.S 5 J ^ ^ ^ E E ^ E ^ ^ E ^ ^ E ^ ^ ^ ^ E ^ E ",
"E E I E E E E E E E E E E E K Y Y E E E E ^ 7 0 8.^.I.R.[. XU.Y.N.%.p.M.p.P.W.I.R.l.= F ^ E ^ ^ T ^ ^ ^ E E ^ T ^ ^ T ^ E E ^ E ",
"E E E E E ^ E E E E E K K E E E E Y U E E ^ F 9 o.E._.XX X XR.`._.I.Y.L.a.P.Z.H.[ % H E E E ^ E ^ E ^ E ^ E ^ ^ E E E ^ ^ E E ^ ",
"E E E ^ E K E K E K E E K E E K Y I E E E ^ H q  .(.XXXXXX XU.`..X X`.Y.P.i.@X$X2.3 J E E E E ^ ^ ^ ^ ^ E E E ^ E E E E ^ E ^ E ",
"I E E K K E E E E E E E E E Y E E E E E E E T 8 Z l.oXXXXX XU.`..XXX XU.P.H.>./ Q U E ^ E E E E ^ E E E E ^ E E ^ T T ^ E E E ^ ",
"E E E ^ E E E E E E K K E E E E I K E E E E E E T Z l. XXX XR.`.XX}.).N.V.>.d 8 Y Y E E E E ^ E E ^ ^ E E E ^ ^ E ^ E ^ E ^ ^ ^ ",
"E E E E E E E E E E E Y K E I E K E E E E E E E E 5 V k.n.D.m.b.b.b.B.g.7.s L I E ^ ^ E E ^ E E ^ ^ E ^ ^ ^ ^ ^ ^ ^ ^ ^ ^ ^ ^ ^ ",
"E E E E ^ E E E E E E E ^ E E E E E I E E E E E E E p q m 7.5.C k C =.h.*.L K ^ ^ ^ E ^ E E ^ ^ ^ E ^ T ^ ^ T Y ^ ^ Y T ^ ^ ^ ^ ",
"E E E E E E E E E E E K ^ ^ K ^ E E E E E E E E E E E 6 % +X;.W 7 ! r.#X2.R I ^ E ^ E ^ ^ E E E ^ ^ ^ Y ^ ^ ^ ^ ^ ^ ^ ^ ^ ^ ^ ^ ",
"E E E E E E E E E E E E E K ^ Y K E K E E E E E ^ E Y 6 & >X3.! p P 2.1Xq.R I ^ ^ E ^ ^ E ^ ^ E ^ ^ ^ ^ ^ ^ ^ U U ^ ^ ^ ^ ^ Y T ",
"E E E ^ E E ^ E E E E E E K ^ K K Y E Y Y ^ ^ ^ E ^ E 6 & 3Xq.! I 8 / 6Xr.W I ^ E E E E E ^ E E ^ ^ ^ ^ U ^ ^ ^ ^ T ^ ^ ^ ^ U ^ ",
"E E E ^ E ^ E ^ E E E ^ E E E ^ ^ K E E ^ ^ I I E Y J # = 6Xw.L 1 $ u 9Xr.P I I E E E E ^ E E ^ ^ ^ ^ ^ ^ ^ ^ ^ Y ^ ^ ^ ^ ^ ^ ^ ",
"E E E E ^ E E E E E E E I ^ E K I ^ K ^ K H F F 6 6 , u w.8Xw.u + % ~ 9Xe.p 1 F 6 F K E ^ ^ ^ E T ^ ^ ^ ^ ^ ^ ^ ^ ^ ^ ^ ^ ^ ^ ^ ",
"E ^ ^ E E E ^ E E ^ ^ Y ^ ^ K ^ ^ K ^ K F : ; - ; $ @ d e.c.( , + L y.9Xe.< $ - - - 1 7 I E E E Y ^ ^ ^ ^ ^ T U ^ ^ U ^ ^ ^ ^ ^ ",
"^ E E E E E E E E ^ ^ E E K E E K E K F - $ + + + + + o % % @ O e -.>X,X-.< O + # # - ; J ^ E ^ T ^ ^ ^ ^ ^ ^ ^ ^ U Y ^ ^ ^ ^ ^ ",
"E E E E ^ E ^ ^ E E E E E E K E E E E F - # + # - + + O X   X   d 3.y.e.< - + + # # - ; H ^ ^ E Y ^ ^ ^ ^ ^ ^ ^ ^ ^ ^ ^ ^ U ^ ^ ",
"E E E ^ E E E E E E E ^ E E E E E Y E K H 1 - + + + + - + + + O , i r u O . + O # # 7 U I ^ E E ^ ^ ^ ^ T ^ ^ ^ ^ ^ ^ ^ ^ ^ ^ T ",
"^ E E E E E E E ^ E E E E E E E E E I E ^ K F F F 6 : + + - + + O . . . O F F F 6 H U ^ ^ ^ E ^ ^ ^ Y ^ ^ ^ Y T ^ U ^ ^ ^ ^ Y ^ ",
"E E ^ E ^ E E E E ^ ^ E E E E E E E K E E E E ^ E I J F F F 1 F F F F F F K I ^ ^ ^ ^ ^ ^ T ^ ^ ^ ^ ^ ^ ^ ^ ^ ^ ^ ^ T ^ ^ ^ ^ ^ ",
"E ^ ^ E E E E E ^ E E E E E E E E Y E E E E E ^ E ^ I I I I I ^ K I I I K I ^ ^ ^ Y ^ ^ Y ^ ^ ^ ^ ^ T ^ ^ ^ ^ ^ U ^ ^ ^ ^ ^ T ^ ",
"E ^ E E E ^ E ^ E E E E E E E E E E E E E E Y ^ ^ ^ ^ ^ ^ ^ ^ ^ I ^ ^ ^ ^ ^ I ^ ^ T ^ ^ ^ ^ Y ^ ^ ^ Y ^ ^ ^ ^ ^ ^ ^ ^ ^ ^ ^ ^ ^ ",
"E E E ^ E E E E E ^ E E E E E E E K E E E E E E ^ ^ ^ ^ ^ ^ ^ ^ I ^ ^ ^ ^ ^ ^ ^ ^ ^ ^ ^ ^ ^ ^ ^ ^ ^ ^ ^ ^ Y T ^ ^ ^ ^ ^ ^ ^ ^ ^ "
};
