/* XPM */
static char *result[] = {
/* columns rows colors chars-per-pixel */
"64 64 95 2 ",
"   c #43434F",
".  c #454551",
"X  c #4A4A55",
"o  c #4E4E59",
"O  c #504F59",
"+  c #52525D",
"@  c #565661",
"#  c #585762",
"$  c #575862",
"%  c #5B5B65",
"&  c #5E5E69",
"*  c #605F67",
"=  c #605F69",
"-  c #606067",
";  c #63636C",
":  c #68676F",
">  c #69696F",
",  c #676770",
"<  c #6B6B73",
"1  c #6E6E78",
"2  c #706E76",
"3  c #706F79",
"4  c #727177",
"5  c #75747A",
"6  c #78777C",
"7  c #7A797E",
"8  c #7D7D82",
"9  c #807F83",
"0  c #838285",
"q  c #888486",
"w  c #868489",
"e  c #89868A",
"r  c #8B8A8C",
"t  c #918E8E",
"y  c #94908F",
"u  c #8F8D90",
"i  c #928F91",
"p  c #949293",
"a  c #9A9695",
"s  c #9C9A97",
"d  c #979799",
"f  c #9D9A9A",
"g  c #A29E9C",
"h  c #A5A19E",
"j  c #AAA69F",
"k  c #A6A5A3",
"l  c #A9A5A3",
"z  c #ACABA5",
"x  c #ADACA9",
"c  c #B2ADA6",
"v  c #B3AEA9",
"b  c #B4B2AB",
"n  c #B9B5AD",
"m  c #BDB8AE",
"M  c #BAB6B0",
"N  c #BCBBB3",
"B  c #C1BDB4",
"V  c #C5C1B1",
"C  c #C9C3B6",
"Z  c #C6C3BA",
"A  c #C9C5BB",
"S  c #C7C8BF",
"D  c #CDCABD",
"F  c #D1CDBE",
"G  c #CECDC1",
"H  c #D1CDC1",
"J  c #CFD0C7",
"K  c #D5D2C5",
"L  c #D9D4C5",
"P  c #DDDBC7",
"I  c #D8D4C8",
"U  c #DCDBCB",
"Y  c #DDDDD1",
"T  c #E1DECD",
"R  c #E4E1CD",
"E  c #E5E2D3",
"W  c #E9E6D5",
"Q  c #EEEBD7",
"!  c #E8E7DB",
"~  c #E7E8DD",
"^  c #ECEBDB",
"/  c #F0EBD6",
"(  c #F1EDDB",
")  c #F3F1DD",
"_  c #F0EEE2",
"`  c #F5F3E4",
"'  c #F8F5E6",
"]  c #FBF9E7",
"[  c #F5F5E9",
"{  c #F9F6E9",
"}  c #F7F8EF",
"|  c #FDFBED",
" . c #F7F9F0",
".. c #FEFDF4",
"X. c #FFFFFE",
/* pixels */
"  .                           .   .   . . . . . .   . . . . . . . . . . . . . . . . . . . . . . . . . . . . . . . . . . . . .   ",
"                            .   .   . . . . . . . . . . . X . . . . . . . . . . . . . . . . . . . . . . . . . . . . . .   . . . ",
"  .                     .   .     . . . . . . . . . . . . . . . . . . X . . . . . . . . . . . . . . . . . . . . . . . . . .   . ",
"                                . .   . . . . . . . . . . . . . . . . . . . . . X . . . . . . . . . . . . . . . . . . . . . . . ",
"                                .   . . . . . X . . . . X . . X . X . X X . . X . X . X X . X . . X . X . X X . . . . X . . . . ",
"                              .   .   . . . . . X X X X X X X X X . X X . X X . X X X X X X X X . X X X X . X . X X . . . . X . ",
"                                .   . . X X . X X X X o X X X X X X X X X X X X X X X o X o X X X X X X X X X X X . . . . . . . ",
"                              . . . . . . . X X X o X X X o X X X X X X X X X X X o X X o X X o o o X X X X X . X X X . X X . X ",
"                                  . . . . X X o X o o o o o o X X o o X . o X X o o o X o o o X o o X o o X X X X . X X . . X . ",
"                                .   . . X X X o o o o + o o o X o o o o o o o o o o o o o o o o o o o o o X o X X X X . X . X . ",
"                                . . . X X X o o + @ + o @ o o @ + o o o o + o o o o o o o o o o o o o o o o X X X X X X X . . X ",
"                                . . . . X o + @ + @ @ @ @ @ @ o + @ @ + + + + + + o + o + o o o o o o o o X o X X X X . X X X . ",
"                                . . . X o o @ @ @ $ % $ + @ @ + $ $   o + + @ + + + + o + + + o o o o o o o o o X X X X . X . . ",
"                            .   . . X o o + @ @ $ $ X 8 @ X 8 X o 8 8 + X 8 @ + @ @ + + + + + + o + o + o o o o X X X X X . . X ",
"                      .   .     . . X X + @ @ @ @ + + $ $ 8 % % 8 o 8 o 8 X @ @ 8 @ @ + @ @ @ @ @ o + + o + o o o X X . . X X X ",
"                              . . . X o + @ + X 8 @ o 8 $ @ 8 @ + 8 @ 8 + 8 8 + + @ 8 . @ @ @ @ @ @ @ @ + + o o o X X X X X . . ",
"                .           . . . . o o @ # % % & & & @ & 8 % 8 1 1 1 1 1 1 1 , , ; & % % % % # @ @ @ @ o + o o o o X X X o . . ",
"                      . .   . . . o o o @ # % & & & , 8 8 & 8 8 8 6 8 8 8 6 3 3 < < , ; & % % % @ @ % @ @ @ @ o o o X X . . o . ",
"                      .       . . X o o @ % % % & ; & 8 8 8 8 8 8 8 8 9 8 8 8 7 5 1 < ; ; & % % % % % @ @ @ @ @ o o X X X . . . ",
"                        . . . . X X o @ # % & & ; ; 8 8 8 8 8 8 e u u u i r e 9 8 5 1 < ; & & % % % % % @ @ @ o o o X X . o . X ",
"                .       . . . . . o o @ % % & , , 8 8 w r p p d d g k g l g f p u 9 8 1 , ; = & 8 X % % % @ @ o o o o . o . X . ",
"  .         .         .     . X X o + @ # & ; < 8 8 8 u d d f k x b M N N m b g f i 9 5 2 , ; = @ @ % @ % @ @ @ o o X o . X . o ",
"                        . . . . X + + $ % & , 8 8 w d d k x b N A G H K I H D n z g p 9 6 1 , = % @ @ % % @ @ + + o o X X . . o ",
"    .     .   .     . .   . X . X o @ # & & ; 8 w d k x M Z N J U Y T E ! E I D B n l d w 5 1 , 8 o % % % % @ @ + o o . o o . . ",
".           .   .     . . . . X o o @ # - > 5 8 p h x N G J I ~ ~ ` ` ` ' ` W R U H N x d 9 5 , 8 % 8 % % % @ + o o X X X X . X ",
"      .           .   . . . X X o + @ & - > 6 w d z N J Y ~ [  . ..... ...| ` ( W T H B l i 8 2 % @ o % % @ @ + + o o X X X . X ",
"            . . .   . . . . . o o + @ % ; < 7 t h N D E [ }  .....X.X.......{ | ` Q P F M f e 5 8 + @ @ % @ @ + + o X o X . X X ",
"                  .   . . . X X o @ $ & ; 1 9 d b J E [ ....X.X.X.X.X.X.X.......] ( W T B z i 9 8 & o 8 % @ @ @ + o X X X X X . ",
"                .   . . . X X o + @ % & ; 4 w s N Y ` ....X.X.X.X.X.X.X.X.X.......{ / T J x 8 8 8 & % % % @ @ + o o X o X X . X ",
"                .   . . . X X o o @ $ & > 4 w h S ~ } ..X.X.X.X.X.X.X.X.X.X.X.X...{ ( T J x d 8 8 + 8 & @ @ @ + + X o X X X . X ",
"                    . . . X o o + @ $ & > 6 r h J _ | X.X.X.X.X.X.X.X.X.X.X.X.....} _ ~ J x d 8 8 8 + @ X + @ + o o X X X X X . ",
"                . . . . X o o o + @ & & < 6 r z K ` ..X.X.X.X.X.X.X.X.X.X.X.X.X.X.X._ Y J x 8 8 8 & 8 % 8 @ @ + o o o X X X . X ",
"                  . . . X o o + + % % ; > 7 u x U [ X.X.X.X.X.X.X.X.X.X.X.X.X.X.....) P A v f w 6 < ; = % $ # + o o o X X X X X ",
"                . . . . X o o o + + % ; < 8 p b U [ X.X.X.X.X.X.X.X.X.X.X.X.X.X.....^ P A n f q 8 < ; & % # # + o X X X X . X . ",
"              . . . X X X o o @ + % % ; < 8 p b Y [ ..X.X.X.X.X.X.X.X.X.X.X.X.X...| / T B v a q 6 1 ; = % $ + O o X o X X X . . ",
"        .     .   . . X X o o o + $ % ; > 7 p b U ' ..X.X.X.X.X.X.X.X.X.X.X.X.....' E F B l p 9 5 , ; = % % + + o o X X X X . X ",
"                . . X X X o o + + $ - - < 7 p x U ] ..X.X.X.X.X.X.X.X.X.X.X.....| ( T D B l t 7 3 : ; % % # + + o o X o X X X   ",
"          .       . . X X o o o + % % ; < 6 r k D ) | ..X...X.X.X.X.X.X.X.X.....) T F B l a 9 6 1 ; & & # @ + + o X o X X . X X ",
"                  . X X X o o o + + % - < 4 w f m T [ ....X.X.X.X.X.X.X.X.X...{ W F B v g e 8 4 : ; = % # # + o o o X X X X . X ",
"                . . . . o o o + + + % % ; 3 8 p k Z E _ ' ..X.X.X.X.X.X...| ' W L B B g y 9 6 < ; - & % # @ + o X o X X X X X . ",
"                  . . X X o o o @ + $ % ; < 6 r f x N I E ` { ......| | ] ) W F C m j y q 7 2 > - & & % + + + o o o X X X X . X ",
"                    . . X X o o + + $ % ; > 5 8 r f x N Z I R Q / ) ( / R F D B b j s q 7 2 < ; & & % # # + o o o X X X X X X . ",
"                      . X X X o + + + % % ; < 5 0 u s k b m C K F T L L V B c g a y q 7 5 < ; - & & % # + + o o X o X X X X . . ",
"                    . . . X X o + + + $ % & > < 4 8 r u d f h v v l n n j s y y q 9 6 4 < , - & % $ # + + O o X X X X X . X   X ",
"                        . . X X o o + $ $ % ; ; < 3 4 8 0 w e y y t y y y q 9 7 6 4 2 : ; * & % $ # + + o o X X X X . X X X   X ",
"                        . . . X o o + + $ $ % - ; ; < < < 4 6 7 9 6 7 6 6 4 4 2 > > : ; * % % # # + + o o X X X . . X X   . .   ",
"                      .   . . X X o o o + + $ $ % % - - ; , < > > > > 2 > : ; ; ; - * * % # # # + O o o X . X X X   X   . . . . ",
"                            . . . X o o o + + + # $ % + % % % & * * * * * * * * * % * + # # + + + o X X X X   X . . . .   . .   ",
"                                . . X X o o o + o + + @ + + # $ # # # # % $ % $ # # # + + + + o o X X . . . . . . .   X       . ",
"                                . . . X X X X o o o o o O o O + + + + + + # + + + # + + + o o o X X X . . . . . . . .           ",
"                                  . . . . X X X X X X X X o o o O O o O + + + + + + o o o o X X X . . . . . .     .   .         ",
"                                        . . . . X . X X X X X X o o o X o o o o O O o o X X X X . . . . . . . . .     .   .     ",
"                                      .         . . . X . . X X X X X X X o o X o o X X X X   X X . .   . . .     . .           ",
"                                                . . . .   X X   . X X X X X X X X X X X X X X . . . .   .     .     .   .     . ",
"                                                .           X X . X   X X . . X . X . X X   . . . . . . . .   . . .     .       ",
"                                                . . . . . . . . . . . . . . X . X X . .   X . . . . . .   . .                   ",
"                                                      . .   . .   . . . . . X . X . X . . . . .   . . . .   . . . . .           ",
"                                                        . .   . . . . . . X X . . X . .   .   X . .       .     .           .   ",
"                                                      .   . . . . . . .   X . . . . . . . . .   . .   . .                       ",
"                                                        .   .   .   . .   .   X . . X . .     . .   . .   .   .     .         . ",
"                                                          .   . . . .   .   . X . X . .   .   . .   . . .                   .   ",
"                                                      . .   .   . . .   . X X   . . . . X   . . . .   . .         .   .         ",
"                                                          .   .   .   X X     X . X . .     .   . . .         . .       .   .   ",
"                                                    .   .   .   . . .       X   . . X . . .   .       . .     .         .       "
};
