/* XPM */
static char *result[] = {
/* columns rows colors chars-per-pixel */
"64 64 252 2 ",
"   c #080011",
".  c #0E0410",
"X  c #0F0511",
"o  c #0C0711",
"O  c #0C0413",
"+  c #0D0413",
"@  c #0E0615",
"#  c #0F0A13",
"$  c #0F0B15",
"%  c #0D0816",
"&  c #0D0916",
"*  c #080818",
"=  c #100714",
"-  c #110A10",
";  c #110B11",
":  c #100A15",
">  c #110C15",
",  c #130D14",
"<  c #110D16",
"1  c #110B1A",
"2  c #120C1A",
"3  c #15111A",
"4  c #211714",
"5  c #221715",
"6  c #231B15",
"7  c #3C200C",
"8  c #3C250C",
"9  c #3D250C",
"0  c #3E260C",
"q  c #242014",
"w  c #382514",
"e  c #392614",
"r  c #1B1624",
"t  c #1C1625",
"y  c #1F1B25",
"u  c #221C29",
"i  c #231F29",
"p  c #24202A",
"a  c #262633",
"s  c #262634",
"d  c #262635",
"f  c #272735",
"g  c #282835",
"h  c #282836",
"j  c #292936",
"k  c #282837",
"l  c #292937",
"z  c #2A2A36",
"x  c #2A2A37",
"c  c #2E2B34",
"v  c #2F2B35",
"b  c #2F2C35",
"n  c #2F2F35",
"m  c #2A2A38",
"M  c #2A2A39",
"N  c #2C2C38",
"B  c #2C2C3A",
"V  c #2C2C3B",
"C  c #2D2D3B",
"Z  c #2E2E3C",
"A  c #2F2F3D",
"S  c #2F2F3E",
"D  c #383133",
"F  c #393133",
"G  c #3A3731",
"H  c #3A3632",
"J  c #30303E",
"K  c #31313E",
"L  c #30303F",
"P  c #31313F",
"I  c #32323F",
"U  c #33323F",
"Y  c #46260B",
"T  c #472B0B",
"R  c #4E2A0C",
"E  c #4B2E0C",
"W  c #4E300C",
"Q  c #483F0C",
"!  c #57330A",
"~  c #54340A",
"^  c #56350A",
"/  c #56350B",
"(  c #57360B",
")  c #51310C",
"_  c #50370C",
"`  c #58350B",
"'  c #58360B",
"]  c #58360C",
"[  c #402B12",
"{  c #422B12",
"}  c #412D18",
"|  c #432E18",
" . c #403914",
".. c #403A14",
"X. c #48410C",
"o. c #4C480C",
"O. c #5B4F0C",
"+. c #58520B",
"@. c #5C550C",
"#. c #5D550C",
"$. c #4C4512",
"%. c #4D4812",
"&. c #4D4918",
"*. c #4E4C18",
"=. c #69480A",
"-. c #7A4C09",
";. c #7C4E09",
":. c #65610A",
">. c #6B630A",
",. c #69650B",
"<. c #6A660B",
"1. c #6B670B",
"2. c #323240",
"3. c #333240",
"4. c #343340",
"5. c #353440",
"6. c #383846",
"7. c #3A3947",
"8. c #3B3A47",
"9. c #3D3D49",
"0. c #3E3E49",
"q. c #3F3F49",
"w. c #3D3D4A",
"e. c #3D3D4B",
"r. c #3E3E4A",
"t. c #3F3F4A",
"y. c #3E3E4B",
"u. c #3F3F4B",
"i. c #3D3D4C",
"p. c #3E3E4C",
"a. c #3F3F4C",
"s. c #3E3E4D",
"d. c #3F3F4D",
"f. c #3F3F4E",
"g. c #40404A",
"h. c #41414A",
"j. c #40404B",
"k. c #41414B",
"l. c #40404C",
"z. c #41414C",
"x. c #40404D",
"c. c #41414D",
"v. c #40404E",
"b. c #41414E",
"n. c #42424E",
"m. c #875507",
"M. c #8B5707",
"N. c #A35B03",
"B. c #A75D03",
"V. c #A76803",
"C. c #A86903",
"Z. c #AA6A03",
"A. c #AD6B03",
"S. c #AE6C02",
"D. c #B36902",
"F. c #B16D03",
"G. c #B16E02",
"H. c #B77202",
"J. c #B87202",
"K. c #BB7401",
"L. c #BE7601",
"P. c #BF7701",
"I. c #BF7702",
"U. c #C97600",
"Y. c #C37901",
"T. c #CA7B00",
"R. c #C97D00",
"E. c #CA7E00",
"W. c #CC7F00",
"Q. c #D17F00",
"!. c #989809",
"~. c #9B9B09",
"^. c #BF8B02",
"/. c #ABA707",
"(. c #AEB007",
"). c #CF8100",
"_. c #D08200",
"`. c #D58200",
"'. c #D58300",
"]. c #D68200",
"[. c #D78300",
"{. c #D78400",
"}. c #D78600",
"|. c #D58402",
" X c #D88400",
".X c #D88600",
"XX c #DC8400",
"oX c #DF8B00",
"OX c #DF8903",
"+X c #DC8A02",
"@X c #DF8B03",
"#X c #D79101",
"$X c #DC9B00",
"%X c #E08400",
"&X c #E18A01",
"*X c #E18D00",
"=X c #E58F00",
"-X c #E78F00",
";X c #E98E00",
":X c #F88F00",
">X c #EB9200",
",X c #EC9301",
"<X c #EC9400",
"1X c #ED9400",
"2X c #F39100",
"3X c #F49100",
"4X c #F59200",
"5X c #F69300",
"6X c #F09601",
"7X c #FF9400",
"8X c #FA9C00",
"9X c #FF9D00",
"0X c #C6AD03",
"qX c #D0BE03",
"wX c #E7A200",
"eX c #E6A500",
"rX c #ECA800",
"tX c #FFA100",
"yX c #FEA200",
"uX c #FDA400",
"iX c #FFA700",
"pX c #F5AB00",
"aX c #FFAA00",
"sX c #FFB200",
"dX c #FFB500",
"fX c #FFB600",
"gX c #FFB700",
"hX c #FFBB00",
"jX c #DFD302",
"kX c #D9D803",
"lX c #DBDE03",
"zX c #F5C301",
"xX c #E0DB02",
"cX c #FED000",
"vX c #DAE303",
"bX c #DCE103",
"nX c #E2E402",
"mX c #E6E502",
"MX c #E3E802",
"NX c #FFEF00",
"BX c #EDF201",
"VX c #EEF301",
"CX c #F0F301",
"ZX c #F0F401",
"AX c #FEF700",
"SX c #FFF700",
"DX c #FFF800",
"FX c #FFF900",
"GX c #FDFD01",
"HX c #FEFD00",
"JX c #FFFD00",
"KX c #FEFE00",
/* pixels */
"b.b.x.z.b.x.x.x.b.c.v.d.x.x.c.d.l.x.x.c.x.c.c.x.b.b.b.b.c.b.b.x.b.b.b.b.b.b.b.b.b.x.b.b.c.b.v.b.x.x.l.l.a.x.u.d.y.l.z.d.a.a.a.z.",
"b.v.b.x.x.l.c.v.v.b.c.d.c.b.x.b.a.x.l.x.d.v.c.x.v.b.b.b.b.b.b.x.b.b.b.b.b.b.b.b.b.x.b.b.c.b.v.b.x.l.z.d.l.p.j.d.y.a.x.d.s.i.a.a.",
"c.v.b.x.x.d.v.x.v.v.b.c.x.d.x.x.d.l.x.c.d.b.c.x.b.b.v.b.b.b.b.x.b.b.b.b.b.b.b.b.b.x.b.b.c.b.v.b.x.x.l.a.u.a.g.j.s.p.l.d.y.u.y.p.",
"c.b.b.x.x.c.c.c.l.v.v.b.d.c.a.d.a.x.x.x.x.b.c.x.x.b.b.b.b.b.c.b.b.b.b.b.b.b.b.b.b.b.c.c.c.b.v.b.x.x.z.z.a.j.g.l.y.a.x.y.y.a.y.a.",
"c.b.v.v.b.b.c.c.c.c.d.x.x.x.x.c.l.l.a.a.d.x.x.x.b.c.v.v.b.v.v.b.x.b.b.b.b.b.b.b.x.b.v.v.b.x.v.c.b.x.d.x.a.a.r.u.u.x.y.v.j.u.p.r.",
"x.b.b.b.b.v.b.c.v.x.c.b.x.x.v.c.x.l.c.a.d.x.x.b.x.b.b.b.x.c.b.c.b.x.b.b.b.b.b.x.b.c.b.c.x.b.b.c.x.x.x.v.v.l.x.z.x.x.u.y.a.a.e.p.",
"x.v.c.b.b.b.b.b.x.x.x.x.c.b.d.x.x.l.d.z.z.d.v.c.x.x.b.v.x.b.b.b.c.b.b.x.x.x.b.b.c.b.b.b.b.v.b.b.x.c.v.x.c.c.l.a.x.b.x.d.c.a.y.h.",
"b.b.b.c.b.b.v.x.x.c.x.b.v.x.c.l.f.x.p.j.a.d.x.d.x.x.c.b.v.b.v.b.b.v.c.b.b.b.c.v.b.b.v.b.v.b.c.x.x.x.c.d.c.x.x.c.x.x.x.d.d.l.l.w.",
"c.v.v.c.c.b.v.b.b.x.x.c.x.b.x.c.d.y.k.x.a.x.x.x.x.x.x.c.c.b.b.b.c.v.b.b.b.b.b.v.c.b.b.b.b.c.x.x.c.v.v.c.x.b.x.x.x.x.b.x.a.a.a.l.",
"b.c.v.b.b.b.b.b.v.b.b.x.x.c.d.x.b.x.y.y.a.a.d.l.d.x.x.x.c.c.v.v.x.b.c.c.c.c.c.b.x.v.b.b.c.b.c.c.d.c.l.c.x.d.x.b.b.x.x.x.d.a.l.l.",
"v.v.c.b.x.x.b.b.c.b.b.b.b.x.c.x.c.l.u.k.j.a.x.d.l.l.x.x.x.c.c.x.b.x.b.b.b.b.b.v.b.v.b.c.v.v.v.c.v.d.c.a.v.z.p.v.c.b.x.x.c.s.a.r.",
"x.v.v.v.b.v.x.x.b.b.b.b.b.b.b.x.x.d.x.p.d.a.y.a.d.x.z.d.x.x.c.c.c.v.v.b.v.b.b.v.b.b.b.b.b.x.c.b.v.f.x.l.d.a.c.x.b.x.x.l.x.v.l.x.",
"c.v.x.x.b.v.c.b.x.x.x.x.x.x.x.b.c.v.b.a.l.d.x.l.v.x.x.l.x.x.x.x.c.c.b.b.b.b.b.c.b.v.v.x.b.c.b.v.x.c.d.d.z.a.x.x.b.c.x.z.d.d.v.l.",
"f.c.v.d.v.b.b.x.v.c.c.c.c.c.v.x.b.b.v.x.d.z.x.l.z.v.x.l.x.x.x.x.x.b.x.x.c.x.x.b.v.x.v.b.v.c.v.f.x.z.x.l.x.l.b.x.x.c.x.z.x.d.x.d.",
"a.l.x.c.b.d.x.v.x.c.b.b.b.c.x.v.x.d.b.x.x.x.a.x.l.x.d.x.l.v.x.c.x.x.l.l.x.x.x.x.c.b.x.b.c.x.x.c.c.b.l.c.x.c.v.d.x.v.x.x.x.l.a.l.",
"l.x.c.v.x.c.c.v.f.x.x.x.x.x.f.v.c.c.x.v.c.x.l.j.b.f.c.x.d.x.l.v.x.d.z.l.l.c.c.x.x.v.b.v.x.b.c.x.b.l.b.b.v.c.x.b.c.a.x.c.l.y.u.a.",
"l.l.l.x.b.x.c.a.x.c.c.c.c.c.x.a.c.x.b.x.l.x.x.x.z.a.l.a.d.3.1     2 U p.l.c.x.x.x.x.x.b.x.x.x.x.c.x.v.v.v.x.x.x.x.b.x.x.x.a.l.z.",
"c.x.a.a.z.x.d.b.x.x.x.x.x.x.x.b.d.x.z.x.a.v.c.b.a.c.d.y.6.H  .Q X...G 6.y.p.d.d.f.c.z.x.v.b.x.x.x.b.x.b.b.x.c.c.l.a.c.x.l.d.x.v.",
"b.z.x.b.x.b.x.c.x.c.x.c.c.c.x.c.x.b.x.b.x.c.b.x.v.l.a.K t $./.kXlX(.%.r L u.x.d.l.j.x.z.x.z.a.x.b.c.v.b.x.v.f.x.x.l.c.c.x.l.u.a.",
"x.b.c.c.x.v.b.c.l.x.x.x.x.x.l.b.b.v.x.b.c.b.v.x.c.v.x.z O #.mXGXGXjXO.+ z j.u.x.v.l.a.c.a.p.b.b.v.c.b.v.v.c.v.l.l.l.a.x.d.x.a.s.",
"x.x.x.v.c.v.x.v.b.v.b.x.b.b.b.v.x.v.b.x.b.v.f.c.c.v.z.m @ @.nXKXcX^._ : x a.k.c.x.d.c.d.l.c.x.b.v.b.b.x.c.b.x.x.l.z.d.x.v.d.x.l.",
"x.a.x.x.b.v.b.c.x.x.x.x.x.x.v.b.b.v.v.c.x.v.c.l.b.c.b.V % +.bXSXwXB.Y < N p.p.j.b.v.v.x.x.x.l.b.b.b.v.x.c.c.d.c.l.l.l.x.c.x.d.a.",
"a.x.x.d.x.b.v.x.v.c.c.c.c.c.x.x.v.b.v.x.b.c.v.b.x.b.c.A * o.vXJXeXN.7 * Z c.l.v.z.b.x.x.x.b.c.x.v.b.v.x.c.x.d.x.l.l.a.x.a.x.l.l.",
"u.j.a.x.x.x.x.v.c.v.b.b.v.c.c.v.x.x.v.c.x.x.x.x.b.b.i.v 6 >.xXNXrXD.! 4 c w.z.l.b.x.l.d.c.v.x.x.v.b.b.x.c.x.d.c.x.x.d.c.x.d.x.x.",
"l.d.b.d.a.c.z.v.v.x.x.x.d.x.v.v.c.c.d.v.b.x.c.x.c.I u &.!.qXzXhXuX&XF.-.} i J l.d.x.c.d.c.x.b.c.x.b.c.x.c.b.x.x.l.a.a.d.a.c.l.l.",
"y.y.l.s.c.l.l.l.x.x.c.x.c.c.l.x.c.x.b.d.c.x.x.c.x.g X ,.BXKXsX7X9X8X1XK./ ; s a.d.x.p.x.d.x.x.d.v.c.b.v.x.x.x.a.a.k.j.c.z.l.d.b.",
"l.x.a.a.z.d.a.c.l.x.x.x.x.x.x.b.x.x.c.x.d.b.c.b.x.d . <.VXKXsX:X;X*X=XL.( - a a.x.a.c.l.y.z.l.x.x.c.x.c.x.x.d.a.x.j.x.l.x.b.d.a.",
"j.l.d.d.a.c.a.z.c.c.c.c.x.c.x.c.x.b.d.b.b.b.b.b.x.j = :.MXDXdX3X].E.}.H.~ , f a.x.x.x.s.a.d.u.v.c.x.x.c.v.d.l.l.a.l.z.c.x.x.c.j.",
"u.a.c.d.x.b.c.c.a.d.x.l.l.x.x.b.b.b.c.b.b.v.x.b.c.l = :.MXDXdX2X`.R.}.H.~ , g d.x.c.a.f.l.p.l.a.z.a.x.x.c.d.d.j.i.l.x.x.v.v.a.j.",
"j.l.u.a.a.x.x.v.c.v.x.v.b.v.b.x.b.b.b.v.x.v.b.x.b.k = :.MXDXdX3X[.W..XH.~ , g d.x.d.x.j.p.u.u.u.l.a.c.v.d.v.l.x.l.u.b.b.c.x.y.j.",
"c.x.a.d.x.d.x.x.b.v.b.c.v.x.x.x.x.x.v.b.b.v.v.c.x.k = :.MXDXdX3X[.W..XH.~ , g x.b.x.l.j.a.u.l.j.k.y.x.a.x.d.d.u.u.c.c.c.x.x.a.l.",
"d.l.z.l.d.c.c.d.x.b.v.x.v.c.c.c.c.c.x.x.v.b.v.x.b.j = :.MXDXdX3X[.W..XH.~ , f c.x.x.d.a.x.u.l.j.l.u.d.a.l.y.a.l.a.x.x.x.v.x.t.a.",
"x.d.x.z.p.l.a.x.x.x.x.v.c.v.b.b.v.c.c.v.x.x.v.c.x.h = :.MXDXdX3X[.W..XH.~ , h x.x.x.x.a.l.a.p.a.j.a.u.i.e.u.y.9.x.b.b.b.x.p.y.p.",
"l.x.x.y.c.d.l.x.a.x.z.v.v.x.x.x.d.x.v.v.c.c.d.v.b.h = :.MXDXdX3X[.W..XH.~ , g x.c.x.d.c.l.x.p.a.a.p.y.u.e.u.u.q.u.l.a.a.0.a.a.e.",
"v.d.x.x.a.p.l.s.c.l.l.l.x.x.c.x.c.c.l.x.c.l.b.d.c.h = :.MXDXdX3X[.W..XH.~ , h x.c.c.d.c.l.k.a.x.p.d.t.a.u.u.t.q.j.l.j.j.r.t.r.z.",
"a.a.z.x.l.x.u.u.j.d.a.c.l.x.x.x.x.x.x.b.x.x.c.x.d.h = :.MXDXdX3X[.W..XH.~ , h x.c.b.x.x.l.l.j.l.a.x.a.x.u.a.a.u.a.u.j.l.y.y.j.r.",
"x.v.a.d.l.d.p.x.d.c.a.z.z.z.c.c.x.c.c.c.x.v.d.b.b.h = :.MXFXgX5X XW.}.H.~ , h x.c.v.x.c.l.z.l.x.c.d.x.a.a.y.d.a.u.l.u.a.l.p.x.a.",
"c.c.a.c.a.f.l.d.x.v.c.c.a.a.x.x.l.x.x.b.b.b.c.b.b.h = :.MXDXfX4X{.W..XH.~ , h x.c.b.x.c.l.l.a.b.v.x.x.l.x.l.y.u.l.l.d.u.a.d.a.a.",
"x.b.v.a.c.c.l.l.a.x.v.x.c.x.x.x.b.v.b.v.v.b.b.v.x.d . 1.ZXHXpX%XQ.).oXP.' - f v.v.x.v.x.x.c.d.x.x.x.d.x.l.x.d.a.d.x.f.u.l.p.c.x.",
"v.x.v.b.v.c.x.l.x.a.x.x.v.x.b.b.v.x.x.x.x.x.v.c.b.d X 1.CXAX$XU.T._.oXL.' ; d c.x.v.v.d.v.c.v.x.b.b.x.l.z.a.u.d.x.v.x.a.x.j.x.x.",
"b.b.v.b.c.x.x.l.a.c.x.d.v.b.v.x.v.c.c.c.c.c.x.x.b.P u *.~.0X#XXX'.Y.V.;.| p P b.b.x.c.l.x.x.b.v.b.x.v.x.a.x.u.l.b.x.x.a.c.l.a.x.",
"x.v.x.x.x.b.c.x.a.j.l.d.b.d.x.x.c.b.v.b.v.b.c.v.x.x.p.n q =.+XtX-XS.^ 5 b i.v.x.b.d.x.x.x.v.c.b.x.v.c.v.l.x.l.a.a.c.d.x.d.x.l.b.",
"x.x.x.b.c.d.x.y.j.x.d.v.a.x.c.d.x.x.x.x.x.x.x.f.c.c.x.S * R OXaX<XC.0 * S x.b.b.v.c.x.b.c.x.b.v.x.c.b.x.c.l.l.y.x.n.v.c.x.b.x.l.",
"v.c.c.x.v.v.x.c.y.a.x.x.x.l.x.l.l.x.c.c.c.c.a.x.c.x.b.B & ` @XiX>XZ.T < C b.v.c.d.c.v.x.x.b.b.v.x.c.v.x.c.x.c.d.v.v.v.x.c.x.d.v.",
"l.z.l.b.x.c.a.x.d.c.l.a.c.d.d.z.l.l.l.l.x.x.x.b.x.x.c.m $ ] |.yX1XG.E > M c.b.x.x.x.b.z.x.v.b.b.x.c.b.x.c.x.c.l.x.c.b.x.c.z.x.x.",
"b.x.x.c.x.d.b.v.b.l.x.l.a.x.d.l.z.l.z.l.z.c.c.x.x.v.x.m # ) I.6X,XJ.W # x b.v.v.x.x.x.x.b.b.b.x.x.c.b.x.x.x.c.x.v.b.x.v.v.x.c.z.",
"c.d.v.d.b.v.b.b.b.x.c.d.x.c.f.d.a.j.l.a.d.l.l.c.b.b.b.2.y [ m.Z.A.M.{ y 2.v.v.c.v.l.c.x.b.b.b.b.x.c.v.d.c.x.x.l.b.v.v.x.v.x.x.c.",
"b.b.b.b.b.c.b.b.v.x.x.z.v.x.d.a.x.l.d.x.x.x.v.b.c.v.x.a.7.D w 8 9 e F 8.p.v.c.l.b.x.d.b.b.v.c.b.v.v.c.v.l.x.x.x.b.x.c.b.x.c.x.c.",
"v.v.c.x.x.b.x.x.x.b.v.b.x.v.k.z.l.l.l.v.x.c.c.x.x.x.x.x.x.4.3 o o 3 5.x.v.c.l.b.z.b.b.x.b.b.b.v.b.x.v.v.x.b.c.b.x.x.c.b.x.x.x.c.",
"x.x.x.x.x.x.c.c.v.v.c.x.d.l.c.d.u.x.l.x.l.v.x.x.c.c.c.c.c.v.x.b.b.v.d.x.x.v.b.z.b.b.b.b.v.b.b.x.b.v.x.c.c.x.x.b.b.x.c.v.d.c.x.x.",
"c.c.c.c.c.x.x.b.x.x.d.x.x.d.l.j.l.a.x.x.a.l.x.x.x.c.c.v.b.x.v.x.d.c.c.x.x.l.x.b.b.v.b.b.b.b.v.v.v.x.x.c.x.x.b.b.b.x.c.c.x.c.x.c.",
"v.c.x.x.x.x.v.x.d.c.c.l.j.u.u.l.s.l.s.a.x.a.f.d.a.d.x.x.d.v.v.z.x.x.v.b.x.c.d.b.b.b.b.b.c.b.x.b.b.v.c.x.b.c.x.b.b.x.c.b.x.c.x.c.",
"a.d.a.x.d.d.d.l.x.a.a.l.a.j.a.a.y.y.d.a.u.u.a.a.x.x.x.c.c.d.a.l.x.c.x.z.x.x.b.x.v.b.b.c.b.b.b.v.x.x.x.f.x.x.v.c.b.v.x.c.v.x.x.c.",
"l.x.x.s.l.l.a.d.l.d.s.u.y.y.d.d.x.r.r.t.y.a.j.u.j.a.l.l.l.x.v.x.d.c.x.x.b.b.b.b.v.b.c.b.v.v.c.x.x.c.x.b.l.x.b.b.v.b.x.v.v.x.b.c.",
"l.t.l.l.x.j.c.y.s.l.y.l.c.x.d.a.j.l.y.w.g.q.u.l.x.j.l.l.l.z.c.x.v.d.b.v.v.b.v.b.b.b.b.c.x.c.b.v.x.c.x.x.x.v.b.b.x.b.b.x.c.c.x.x.",
"z.c.a.l.z.a.j.x.l.u.l.l.a.l.x.v.d.a.r.0.w.y.u.p.a.d.a.l.a.a.x.c.c.b.b.b.b.b.c.b.b.v.x.b.c.b.x.f.c.v.d.c.x.b.b.v.v.x.b.d.x.x.x.v.",
"x.x.x.x.p.d.d.c.l.z.l.l.c.c.c.l.l.b.a.l.l.c.l.l.x.s.l.d.x.x.x.v.b.x.x.c.b.b.b.v.x.v.b.v.b.v.v.x.z.b.c.x.b.c.b.x.c.b.x.b.x.x.c.x.",
"b.b.c.b.x.b.b.x.x.a.x.l.a.x.d.x.c.b.x.c.l.z.a.c.c.f.l.x.v.x.x.c.x.x.x.x.x.x.v.b.c.v.b.c.x.x.c.c.x.c.b.b.c.x.c.b.v.c.x.c.v.x.d.b.",
"b.c.b.b.b.v.c.d.c.v.x.x.b.b.v.x.c.v.x.c.x.c.a.v.f.x.x.l.x.l.v.x.v.c.c.c.c.c.v.x.b.v.v.x.b.c.v.v.c.v.b.c.b.v.v.c.v.x.b.d.b.x.x.c.",
"c.b.v.v.c.b.x.x.x.b.z.x.v.b.b.x.c.b.x.c.x.c.l.l.l.x.a.l.x.a.x.v.x.b.l.x.c.x.c.v.x.d.v.c.x.x.x.x.b.b.b.b.b.v.c.b.v.v.c.x.x.x.c.b.",
"b.b.v.c.b.v.v.c.l.x.x.b.b.b.x.x.c.b.x.x.x.c.x.d.c.d.v.s.a.l.l.d.f.d.d.d.d.d.d.d.z.c.x.v.b.x.c.l.b.x.v.x.b.c.b.v.v.x.v.d.c.l.b.b.",
"x.b.c.b.v.v.x.v.d.x.x.b.v.c.b.x.v.x.f.x.x.x.l.b.d.d.l.d.a.j.z.a.a.d.x.l.x.c.a.a.l.x.c.d.l.a.l.b.v.x.v.b.v.b.v.v.x.c.v.c.l.c.x.x.",
"b.v.b.v.v.l.c.c.c.x.x.b.b.b.v.b.x.x.v.l.b.x.b.b.x.c.x.a.z.d.j.l.j.l.x.l.j.x.l.c.d.d.l.a.a.x.x.x.b.b.v.b.x.x.f.c.x.b.c.c.b.b.x.c.",
"b.x.x.d.c.c.c.c.b.b.b.v.b.b.x.b.v.x.c.c.x.x.b.x.x.c.b.x.a.x.l.j.x.l.l.x.a.l.l.x.a.d.l.c.c.c.c.x.x.b.c.v.x.b.c.v.c.c.c.v.x.c.c.v."
};
