/* XPM */
static char *result[] = {
/* columns rows colors chars-per-pixel */
"64 64 155 2 ",
"   c #080001",
".  c #0A040E",
"X  c #0C0A0C",
"o  c #1B100F",
"O  c #0D0913",
"+  c #0F0A1A",
"@  c #100B1A",
"#  c #14121E",
"$  c #1C141B",
"%  c #27170F",
"&  c #2E1C0D",
"*  c #311D0E",
"=  c #261B18",
"-  c #241C1E",
";  c #37220B",
":  c #3B240C",
">  c #2D241A",
",  c #2B2A18",
"<  c #3F2A17",
"1  c #151320",
"2  c #1D1C25",
"3  c #1F1D2D",
"4  c #221D23",
"5  c #282022",
"6  c #352923",
"7  c #252432",
"8  c #2F2F3B",
"9  c #332E36",
"0  c #3A3335",
"q  c #33323C",
"w  c #3A363C",
"e  c #5D3B0C",
"r  c #623C06",
"t  c #453E23",
"y  c #423B3C",
"u  c #4C4307",
"i  c #4C450C",
"p  c #4F490C",
"a  c #53420C",
"s  c #5C540C",
"d  c #4F471F",
"f  c #65400C",
"g  c #4C452D",
"h  c #363542",
"j  c #393947",
"k  c #3F3F4C",
"l  c #433C45",
"z  c #40404D",
"x  c #4C4549",
"c  c #4F4848",
"v  c #534B4D",
"b  c #585051",
"n  c #875407",
"m  c #8F5905",
"M  c #965D05",
"N  c #9D6103",
"B  c #A46604",
"V  c #AD7104",
"C  c #C77B00",
"Z  c #CC7E00",
"A  c #899109",
"S  c #CC8301",
"D  c #D68501",
"F  c #D88600",
"G  c #DE8A00",
"H  c #E28600",
"J  c #E38D00",
"K  c #E88C00",
"L  c #E09000",
"P  c #EC9400",
"I  c #F39600",
"U  c #FE9400",
"Y  c #F59800",
"T  c #FD9C00",
"R  c #D2A000",
"E  c #DEB401",
"W  c #DFBA00",
"Q  c #EDA501",
"!  c #FFA200",
"~  c #FFAA00",
"^  c #E7B201",
"/  c #FFB700",
"(  c #FFA718",
")  c #FFB91C",
"_  c #DF9626",
"`  c #FFA822",
"'  c #FFB53D",
"]  c #FFBE3D",
"[  c #CBC800",
"{  c #D1C704",
"}  c #CED203",
"|  c #D7D803",
" . c #E6CA00",
".. c #F3C000",
"X. c #FFC100",
"o. c #FCCA01",
"O. c #EBDB00",
"+. c #FFDA00",
"@. c #FFCF1C",
"#. c #FFE300",
"$. c #FFE800",
"%. c #FEFD00",
"&. c #FFEC1F",
"*. c #FFF721",
"=. c #FFFF29",
"-. c #FFFF31",
";. c #FFBC4C",
":. c #FFB757",
">. c #EEB865",
",. c #C6C748",
"<. c #D8D847",
"1. c #FFC04A",
"2. c #FFC452",
"3. c #FFFF5E",
"4. c #D3D462",
"5. c #CECF7B",
"6. c #CED376",
"7. c #FFC966",
"8. c #FFCC7D",
"9. c #FFD470",
"0. c #FFFF6D",
"q. c #FFFD74",
"w. c #767792",
"e. c #8C8786",
"r. c #B19E95",
"t. c #8A8BA3",
"y. c #C6B7B4",
"u. c #FFC989",
"i. c #FFD28C",
"p. c #FFDA8A",
"a. c #FFCB91",
"s. c #FFD294",
"d. c #FFEA88",
"f. c #FFFC8C",
"g. c #FFE190",
"h. c #FFF799",
"j. c #FFDCB6",
"k. c #FFE4A9",
"l. c #C7C8C8",
"z. c #CCCBCF",
"x. c #C7CDDB",
"c. c #D0CED0",
"v. c #CED2DD",
"b. c #D4D6D5",
"n. c #FEEACA",
"m. c #FFFFCB",
"M. c #FFF6D3",
"N. c #FFFFDA",
"B. c #D0D3EA",
"V. c #FFFDE2",
"C. c #FFF2EC",
"Z. c #FFFFEC",
"A. c ivory",
"S. c #F7FFFF",
"D. c #FEFEFE",
/* pixels */
"z z z z z z z z z z z z z z z z z z z z z z z z z z z z z z v z z z z z z z b z z z z z z z k k k k k k k z k k k z z k k k k z ",
"z z z z z z z z z z z z z z z z k z l z z z z z z z z z z z z z z z z z z z z z z z z z z z j w.k k z k k k k k k k z k k k k k ",
"z z z z z z z z z z z z z z z z k z z z k z z z z z z z z z z z z z z z z z z z z z z z z z z z z z z k k k k k k k k k k k k k ",
"z z z z z z z z z z z z z z z z k k z z z z z z z z z z z z z z z z z z z z z z z z z z z z z z z z z z k k k z k k k k k k k k ",
"z z z z z z z z z z k z z z z z z k k z k z z z z z z z z z z z z z z z z z z z z z z z z z z z z z k k k k k k k k k z k k k k ",
"z z z z z z z z z z z z z z z z z z z k k k z z z z z z z z z z z z z z z z z z z z z z z z z z k z z z z z z z k k k k k k k k ",
"z z z z z z z z z z z z z z k z z k k z z k z z z z z z z z z z z z z z z z z z z z z z b z z z z z z z z z z k k z k z k k k k ",
"z z z z z z z z z z z z z z z z k z k z k z z k z z z z z z z z z z z z z z z z z z z z z z z z z z z k z z z z z z z z k k k j ",
"z z z z z z z z z z z z z z z z k k z z k z z z z z z z z z z z z z z z z z z z z z z z z z z z z z z z z z z z z z z z k k k k ",
"z z z z z z z z z z z z z z z z z z k k k k k k k z z z z z z z z z z z z z z z z z z z z z z z z z z z z k k z z z z z z k z k ",
"z z z z z z z z z z z z z z z z z z k z z k z k k k z z z z z z z z z z z z z z z z z z z z z z z k z k z z k z z z z z z k k k ",
"z z z z z z z z z z z z z z z z z k z k k k k k z z z z z z k z z z z z z z z z z z z z z z z z z k z z k k z z z z z z k z z k ",
"z z z z z z z z z z z z z z z z z z z k z k k z z z z k z z z z z z z z z z z z z z z z z z z z z z k k z k z z z z z z k k z z ",
"z z z z z z z z z z z z z z z z z z z z k z z z z z z k z z z z z b z z z z z z z z z z z z z z z z z z z z z z z z z z z k z z ",
"z z z z z z z z z z z z z z z z z z z k z z k z k z k z k z z z z z z z z z z z z z z z z z z z z z z z k z z z z z z z k z k k ",
"z z z z z z z z z z z z z z z z z z z z z z z k z z z z z z k z z z z z z z z z z z z z z z z z z z z z z z z z z k z z z k k k ",
"z z z z z z z z z z z z z z z k z z z z z z z z z k z z k $       X .     4 k l z z z z z z k z z z z z z z z z z z z z z k z z ",
"z z z z z z z z z z z z z z z z k z z z z z z z k z k j w 0 y y y < < t l j h j z z z z z z z z z z z z z z z z z z z z z k k z ",
"z z z z z z z z z z z z z z z z z z z z z z z z k k k 4 - e.z.B.l.,.[ 4.x.w.2 7 z k z z k z z z z z z z z z z z z z z z z z k k ",
"z z z z z z z z z z z z z z z z z z z z z z z z k k q 5 b z.D.D.N.0.=.f.Z.r.< = q k k z k k z z z z z z z z z z z z z z k z k k ",
"z z z z z z z z z z z z z z z z z z z z z z z z j 2 0 e.c.S.D.p.] d.m.h.2._ B r > 7 j k z z z z z z z z z z z z k k k z z k z k ",
"z z z z z z z z z z z z z z z z z z z z z z z z q X y z.D.D.n.;.( s.C.8.T U G n % 1 j l z z z z z z z z z z z z k z z z z z k k ",
"z z z z z z z z z z z z z z z z z z z z z z z z h X 9 x.D.p.' u.j.a.:.` T I D n o 1 k k z z z z z z z z z z z z k z k z k k z z ",
"k z z z z z z z z z z z z z z z z z z z z z z z q - c l.M.1.( k.A.9.! T T Y D m ; 4 h k z z z z z z z z z z z z z k k z z k z z ",
"z k z k k z z z z z z z z z z z z z z z z k j 3 j t.y.>.;.i.k.f.3.*.+.X.! T Y Z N f > 7 j z z z z z z z z z z z z k k k k z k k ",
"k k k k z z k k z z z z z z z k z z z z k k 8 . c b.N.] ( j.A.0.%.%.%.o.T T ! Y G M * 1 h z z k z z z z z k z k k z z z z z z z ",
"z z k k z z k z k z z z z z z z z z z z k k h . d <.0.h.s.a.7.&.%.O.E Q ! ! ! T L M & # h z k k z z z z z z k k z z z z z z z k ",
"k z k k k z k z z z z z z z z z z z z z j j h + u [ -.m.C.:.! +.%.W C H T ! T Y F m & 1 h k k z z z z z z k z k k z z z z z k k ",
"k k z k z z z z k z z z z z z z z z z z z z h . g 5.h.g.7.@.+.%.%.E C H T ! ! Y F m & 1 h k z k z k z z z z k z k z z z z z z k ",
"k z k k k z z z z z z z z z z z z z z z z z h + x v.V.;.! #.%.%.%.^ Z H ! ! ! Y F m & # h k k k z z z z k k z z k k z z z z k k ",
"z z k z z z k z z z z z z z z z z z z z z z h + g 6.q.) T / +.%.%.E Z H T ! T Y D n & 1 h k k k k k z k z k z z z z z z z k k k ",
"k k k k k z z z z z z z z z z z z z z z z z h + i } %.X.T U ! #.%.W Z H ! ! ! Y R m & 1 h k k k k k k k z k z z z k z z k k z k ",
"z k z z k z k z k z z z z z z z z z z z z k h + i } %.X.T U ! #.%.E Z H ! ! ! Y F m & 1 j k k k k k k k j z z k k z k z z k k k ",
"z z k k z k k z k z z z z z z k k k z z z k 8 + i } %.X.U U ! #.%.W Z H T ! ! Y F m & 1 h z k k k k k k j z z l k k k l k k k k ",
"z k z z k k z k z z z k z z z z z z z z z z 8 + i } %.X.T U ~ #.%.W C H ! ! ! Y F m * 1 h k k z k k k k z z z l z k k z j k k k ",
"k k z z k z k k z k k z z z z z z z z z k z 8 + i } %.X.U U ! #.%.W Z G T ! T Y F m & 1 h k k k k z k k z j z k k k z z k l k k ",
"z z k k z k k k k z k z z k z z z z z z z z 8 + i } %.X.U U ~ $.%. .S H ! ! ! Y F m * 1 h z z z z k z k k k k k l z k k z k z k ",
"z z k z k z z k z z z z k k z z z z z z z z h + i } %.X.T U ~ $.%.W Z H T ! ! Y F m * 1 h z k z k z k z z z k k k z k k k z k k ",
"z z z k z z z z k z z z z z z z z z z z k z q @ i } %.X.T U ! .. .R C H ! ! ! Y D m * 1 h z k z z z k z k z z z z z z k k k z k ",
"z z z z z z k z z k z z k z z z z z z z k k h @ i } %.X.T T T L S C Z J ! ! T Y D m * 1 h z z z z z z z z k z z z z z k k k z z ",
"z z z z z z z z k z z z z z z z z z z z z z h O p | %.X.U T T K D D G P T ! ! Y J M * 1 h z z z z z z z k z z z z z z k z z k z ",
"z z z z z z z k k k k k z z z z z z z z z z h O s | %.X.U T ! T Y T T T T ! ! T J M * 1 h z z z z z z z k z z z z z z z k z z z ",
"z z z z z k z k k z k z z z z z z z z z k k h 3 < A { o.X.~ ! ! ! ! ! ! ! ! Y D B r > 7 k z z z z z z z z k z z z z z z z z z z ",
"z z z z z z z z k k k z z k z k z z z z z k j j 9 - s } %.o.T T ! ! ! ! ! T L N : - h k z z z z z z z z z z z k z z z z z z k k ",
"z z z z z z k z k z z k z k k z z k z z z z z z k 3 5 A { ^ T T Y Y T T Y D N e $ 7 z z z z z z z z z z z z z z z z z z z z z z ",
"z z z z z k z z z z z z z z k z z z z z z z z z z k q , a V J L G G G P J M : > h z z z z z z z z z z z z z z z z z z z z z z z ",
"z z z z z z z z z z z k z z k k k z z k k z z z z z l 3 = r B B N N N B N e $ 7 z z z z z z z z z z z z z z z z z z z z z z z z ",
"z z z z z z z z z z z z z z k k z z k z z z z z z z l l q 6 : ; ; ; ; : ; 6 h k z z k z z z z z z z z z k z z z z z z z z z z z ",
"z z z z z z z z z z z z z k z z z k z k z z z z z z z z k 2 X X . + + + 1 8 z z z z z z z z z z z z z z z z z z z z z z z z z z ",
"z z z z z z z z z z z z k z z z k z z z z z z k z z z z z z z z k k k z k z z z z z z z z z z z z z z z z z z z z z z z z z z z ",
"z z z z z z z z z z k z z k z z k k z z k z z z z z z z z z z k k k z z k k z z z z z z z z z z z z z z z z z z z z z z z z z z ",
"z z z z k z z z k z z z k k l z k z k k z k k k k k z z z z z z z k z z z z z z z z z z z z z z z z z z z z z z z z z z z z z z ",
"z z k z k k k z z z z z k l k z k k k k k k k k z z k z z z k k z z z z z z z z z z z z z z z z z z z k z z z z z z z z z z z z ",
"z z k k z z k k z z j z k k k k k k k j k k k k z k l z k z z z k z z k z z z z z z z z z z z z z z z z z z z z z z z z z z z z ",
"z k z z k z z k k z j z z z k k z z k k k k k k z z k z k k z z z z z z z z z z z z z z z z z z z z z z k z z z z z z z z z z z ",
"z z k z z k z z z k z z k z z z z z j j k k k k k k k z k k z z z z z z z b z z z z z z z z z z z z k z z z z z z z z z z z z z ",
"z z z z z z z z z z z l z z z k z z z z z z z z k k z k z k z z z z z z z z z z z z z z z z z z z z z z z z z z z z z z z z z z ",
"z z z z z z z z z k z k k k z z z z z z z z k z z k z k z z z z z z z z z z z z z z z z z z z z z z z z z z z z z z z z z z z z ",
"z z z z z z z z z z z z z z z z z z z z z z z z k z z z z k z k z z z z z z z z z z z z z z z z z z z z z z z z z z z z z z z z ",
"z z z z z z z z z z z z z z z z z z z z k z z z z z k z z k z z z z z z z z z z z z z z z z z z z z z z z z z z z z z z z z z z ",
"z z z z z z z z z z z z z z z z z z z z z z z z z k z k k z z k k k k z z z z k z z z z z z z z z z z z z z z z z z z z z z z z ",
"z z z z z z z z z z z z z z z z z z z z z z z z k k z k k z z k k k z k z z k k z z z z z z z z z z z z z z z z z z z z z z z z ",
"z z z z z z z z z z z z z z z z z k z z z z z z z z z k z k z k z z z k z k z z z z z z z z z z z z z z z z z z z z z z z z z z ",
"z z z z z z z z z z z z z z z z z z z z k z z z z z z z k z z k z k z z k z z z z z z z z z z z z z z z z z z z z z z z z z z z "
};
