/* XPM */
static char *result[] = {
/* columns rows colors chars-per-pixel */
"64 64 181 2 ",
"   c #0A030F",
".  c #160C0F",
"X  c #0A0310",
"o  c #0D0B16",
"O  c #150F1E",
"+  c #131215",
"@  c #15141B",
"#  c #27170D",
"$  c #261D0A",
"%  c #2B190E",
"&  c #321E0C",
"*  c #2A1C14",
"=  c #2C240E",
"-  c #37220C",
";  c #3A230C",
":  c #382F08",
">  c #39320F",
",  c #362516",
"<  c #3E3917",
"1  c #3A3319",
"2  c #161422",
"3  c #181623",
"4  c #1F1F2D",
"5  c #241D23",
"6  c #291D26",
"7  c #2A2224",
"8  c #20202F",
"9  c #29242D",
"0  c #352B2B",
"q  c #37342B",
"w  c #2A2933",
"e  c #2B2B39",
"r  c #342F33",
"t  c #373436",
"y  c #31313D",
"u  c #4D2905",
"i  c #4D310F",
"p  c #433D0C",
"a  c #56380E",
"s  c #623D0F",
"d  c #5C5B0E",
"f  c #484613",
"g  c #5A5712",
"h  c #7E4E05",
"j  c #69600A",
"k  c #7F7F09",
"l  c #5F472D",
"z  c #7F7924",
"x  c #363542",
"c  c #383745",
"v  c #393945",
"b  c #3F3F4C",
"n  c #40404D",
"m  c #4A465D",
"M  c #844B00",
"N  c #855206",
"B  c #8B5606",
"V  c #945500",
"C  c #955C05",
"Z  c #9C6103",
"A  c #A16405",
"S  c #A76804",
"D  c #BC7607",
"F  c #8F6322",
"G  c #986F32",
"H  c #CB7E01",
"J  c #D37B00",
"K  c #867C65",
"L  c #868409",
"P  c #9C8807",
"I  c #9FA109",
"U  c #A6A604",
"Y  c #CE8207",
"T  c #D58300",
"R  c #D98400",
"E  c #DD8A00",
"W  c #D4890C",
"Q  c #CF8B1B",
"!  c #DC9217",
"~  c #E28B00",
"^  c #E98E00",
"/  c #F28D00",
"(  c #E99801",
")  c #F49400",
"_  c #FE9500",
"`  c #F59900",
"'  c #FE9C00",
"]  c #FB9E0C",
"[  c #ECA002",
"{  c #FFA201",
"}  c #FFA800",
"|  c #FFA40C",
" . c #FFAF08",
".. c #FFB400",
"X. c #FFBD00",
"o. c #FFA715",
"O. c #FFA917",
"+. c #EB9D22",
"@. c #FFAB25",
"#. c #FFAD25",
"$. c #FFB02F",
"%. c #FFB231",
"&. c #FFB539",
"*. c #C9C903",
"=. c #DFC903",
"-. c #CCD204",
";. c #D5DA03",
":. c #FEC300",
">. c #FFCA00",
",. c #FFD400",
"<. c #FFDE00",
"1. c #FFE200",
"2. c #F3E801",
"3. c #FFEC00",
"4. c #FEF300",
"5. c #F5F801",
"6. c #FFFF00",
"7. c #F3F315",
"8. c #DEC020",
"9. c #CCCE34",
"0. c #FFFF28",
"q. c #9A8467",
"w. c #D9A043",
"e. c #EAAD4A",
"r. c #F8B247",
"t. c #FFBA45",
"y. c #FFBB4B",
"u. c #FFBD50",
"i. c #DFB46D",
"p. c #EBBA67",
"a. c #E5BA72",
"s. c #FFCA4F",
"d. c #FFDC4D",
"f. c #FFC255",
"g. c #FFC35E",
"h. c #FFE84D",
"j. c #FEFE5B",
"k. c #FFC463",
"l. c #FFC76A",
"z. c #FFC96E",
"x. c #FFD06D",
"c. c #FFCB75",
"v. c #FECD7C",
"b. c #757680",
"n. c #ACA49D",
"m. c #A7A9B7",
"M. c #CBB9AE",
"N. c #BFC9B9",
"B. c #F9CD84",
"V. c #FFD281",
"C. c #FFD38B",
"Z. c #FFD691",
"A. c #FFD893",
"S. c #F1D19A",
"D. c #FFD49D",
"F. c #FFDA9C",
"G. c #FEF98D",
"H. c #FFFF9E",
"J. c #E9CEA2",
"K. c #EAD0A5",
"L. c #F6D7A2",
"P. c #FFDDA3",
"I. c #FFDEAC",
"U. c #EBD5B7",
"Y. c #FEE2AC",
"T. c #FFE3B5",
"R. c #FFE6BB",
"E. c #FFFFB9",
"W. c #BBBBC3",
"Q. c #E0D6C6",
"!. c #DFE5D1",
"~. c #FEE4C3",
"^. c #FFEAC1",
"/. c #FFECCC",
"(. c #FFF9D6",
"). c #FFF2DC",
"_. c #F9F1E2",
"`. c #FFF8EB",
"'. c #FFFCF4",
"]. c #F5F7FA",
"[. c #FFFFFF",
/* pixels */
"n n n n n n n n n n n n n n n n n n b n n n n n n n n n n n n n n n n n n n n n n n n n n n n n n n n n n n v n n n n n n b b n ",
"n n n n n n n n n n n n n n n n b n n n b n n n n n n n n n n n m n n n n n m n n n n n n n n n n n n n n n n n v n n n b b b b ",
"n n n n n n n n n n n n n n n n n b n n b n n n n n n n n n n n n n n n n n n n n n m n n n n n n n n n n n n n n n n n b n b b ",
"n n n n n n n n n n n n b n b n b b n b n n n n n n n n n n n n n n n n n n n n n n n n n m n n n n n n v n n n v n n v b n v b ",
"n n n n n n n n n n b n n n n n b b b b b n n n n n n n n n n n n n n n n n n n n n n n n n n n n n n n n n v n b n b n n n b v ",
"n n n n n n n n n n n n n b n n n b n b b n n n n n n n n n n n n n n n n n n n n n n n n n n n n n n n n n n n n b b b v n b n ",
"n n n n n m n n n n n n n n b n n n n n n b n n n n n n n n m n n n n n n n n n n n n n n n n n n n n n n n n n b n n b n n b n ",
"n n n n n n n n n n n n n n n n b n b b b b n b n n n n n n n n n n n n m n n n n n n n n n n n n n n n n n n n n n n n n n n v ",
"n n n n b m n n n n n n n m n n b b n b b n n n n n n n n n n n n n n n n n n n n n n n m n n n n n n n n n n n n n n n b b b n ",
"n n n n n n n n n n n n n n b n n n b b b b b b b n n n n n n n n n n n n n n n n n n m n n n n b n n n n b n n n b n n b b n n ",
"n n n n n n n n n n n n n n n n n n b n b b n b b n n n n n n n n n n n n n n n n n n n n n n n n b n b n n b n n n n n n b v n ",
"n n n n n n n n n n n n n n n n n b n b n b b b b n n n n n n n n n n m n n n n n n n n n n n n n n n n n b n n n n n n n n n n ",
"n n n n n n n n n n n n n n n n n n n n n b n b n n b n n n n n n n n n n n n n n n n n n n n n n n b b n n n n n n n n b b n n ",
"n n n b n n n n n n n n n n n n n n n n b n n n n n n n b n b n n n n n n n n n n n n n n n n n n n b n n n n n n n n n n b n b ",
"b n n n n b n n n n n n n n n n n b n n n n b n n n b n n n n n n n n n n n n n n n n n n n n n n n n n n n n n n n n n n n b n ",
"n n n n n n n n b n n n n n b n n n n n n b n n n b n b b b n b n n n n n n n n n n n n n n n n n n n n n n n n n v n n b b b b ",
"b n n n n n n n n n n n n n n n n n n n n n n n n b n b b n b b b b n n b n b b n n n n n n n n n n n n n n n n n n n n n b n n ",
"n n b n n n b n n n n n n n n n n n n n b n n n b n b n b b x @             X w b n n n n n n n n n n n n n n n n n n n b b n n ",
"n n n n n n n n n n n n n n n n n n n n n n n n b n b x x v y < f p < : p p < q x b n n n n n n n n n n n n n n n n n n b n b b ",
"n n n n n n n n n n n n n n n n n n n n n n n n b b x 2 o 2 1 I ;.-.*.*.*.;.*.d @ e b n b b n n n n n n n n n n n n n n b n b b ",
"n b n n n n n n n n n n n n n n n n n n n n n n n b r > > - j ;.6.6.6.6.6.6.4.P - 6 x b n n n n n n n n n n n n n n b n n b n n ",
"n b n n n n n n n n n n n n n n n n n n n n n n x 3 f U -.*.*.:.:.:.:.:.:.>.:.[ D s @ e n n n n n n n n n n n n n b n n n n b b ",
"b n b b n n n n n n n n n n n n n n n b n b n b w = C 2.5.6.3..._ _ _ _ _ ' _ } } A & 5 x n n n n n n n n n n n b b b n b n n n ",
"b n b n n n n n n n n n n n n n n n n n n b x 2 f U ;.:.>.>...} _ _ _ _ ' ' ' } { J V u + w n n n n n n n n n n n n b n n b n b ",
"b b n b b n n n n n b n n n n n n n b n n b 9 # L 5.3.} _ _ ' { } } } { { { ' { ' [ ! F 0 w v n n n n n n n n n b b v n n n n n ",
"b b b b n n n n n n n n n n n b n n n b e 5 g U =.>.X.{ _ ' _ _ } ,.1.X.' ' ' _ _ t.L.Q.W.b.0 9 v n n n n n n n b n n n n n n n ",
"n n b b n b b n n n n n n n n n n n n n 4 . L 6.4.} _ ' { ' ' { ..3.4.:._ _ { ' o.Z.[.[.[.n.7 + v n n n n n b v b n b n n n n n ",
"n n b b b n b b n n n n n n n n n n b n 8 . L 6.4.{ _ { ' _ } ,.1.,.:.( E / ' t.P.'.[.).p.G * @ v n n n n n n n b n n n n n n n ",
"b b n b n n n n b b n n n n n n n n n n 8 O k 5.3.} _ { ' ' ..4.4..._ R Y ~ O.F.[.[.'.B.W j $ @ v n n n n n b b v n n n n v n n ",
"n n b b b n n n n n n n n b n n n n n b 8 o k 5.3.} _ ' ..,.<.,.X.} ) J H e.F.'.[.^.g.z.S.q.= @ v n n n b n n n n n n n n n n n ",
"n n b n n b n n n n n n n n n n n n n n 8 . k 5.3.} _ _ X.4.4...' ' ` R Q K.[.[.'.l.[ x.[.m.7 @ t b n b n b n v n n n n n n v n ",
"b n b b n n n n n n n n n n n n n n n b 8 . k 5.3.} _ _ } >.,.,.:.} _ e.J.].[.R.k.z.C.C.v.q.= @ v b b b n n n n n n n n n n n n ",
"n n n n b n b n n n n n n n n n n n n b 8 . k 5.3.} _ ' ' _ ..4.4...@.I.[.[.`.k.{ V.[.S.W M # 3 v b b b n b b v n n n n n n b b ",
"n n n b n b n n b n n b n n n n b n n b 8 . k 5.3.} ' ' _ _ ..4.6.d.D.[.[.R.l.z.v.Z.Z.r.J h # 3 v b n v v b b b b n b b v n b b ",
"b b n n b v n n n n n n n n n n n n b b 8 . k 5.3.} ' { ' ' ..3.0.E.[.[.'.u.' A.[.Z.{ ) T N # 3 x b n b b b b b n n n n n n v n ",
"b b n n n n n v n b b n n n n n n n n b 8 . k 5.3.} _ { _ _  .h.H.[.[.U.a.p.c.A.F.y._ ^ T N # 2 v n b n b b b b b b n n v v n n ",
"n n n b n b b n b n b n n n n n n n n n 8 . k 5.3.} _ { _ _ %.^.[.[._.w.Y K.[.V.{ ' { ` T N # 3 c n n b b b b n v n b b n b n n ",
"n n b n n n n b n b n n b b n n n n n n 8 . k 5.3.} _ _ | y.F.[.[.T.v.p.i.S.F.t._ _ { ) T N # 3 c n n b n b b b n n b b n n b b ",
"n n n b n n n n n n n n n n b n n n n b 8 . k 5.3.} _ _ &./.[.[.).&.O.Y.'.c.{ _ { { { ) T N # 3 c n n n n n n n n n n b n v n n ",
"n n n n n n n n n v n n n n n n n n n b 4 . L 6.3.} ] y.P.[.[.T.v.g.k.F.Y.&._ _ ' { { ' E B # 2 v n n n n b n b n n n n n n n n ",
"n n n n n n n n b n n n n n n n n n n n 8 . L 6.3.{ r./.[.[./.%.#.^.`.l.| { ' ' { ' { _ E B % 2 v n n n b n n n n n n b n n b n ",
"n n n n n n n n b b n v n n n n n n n n e 6 g U 8.f.Y.[.[.T.v.f.k.P.P.%._ _ { { { { ` Y C a 7 w v n n b n n n n n n n n n n n n ",
"n n n n n b n b b n b b b n n b n n b n n v 7 $ K _.[.[.~.#.%./.).g.| ' ' ' ' { { ` E B - 5 v n n n n n n n n n n n n n n n b n ",
"n n n n n n n n b b n n n n n b n n n n n n y @ m m.!.E.G.s.k.T.Y.$._ _ { { { { ` Y C i 3 e n n n n n n n n n b n n n n n n b n ",
"n n n n n n b n b n n b n b b n n b n b n n n v e 9 z 7.j.(./.f.| { ' { { { { ` E N % 7 x n n n n n n n n n n n n n n n n n n n ",
"n n n n b b n n n n n n n n b n n n n b n n n n x @ p U 9.N.M.+._ ` ` ` _ ' ` H C i 2 e n n n n n n n n b n n n n n n n n n n n ",
"n n n n n n n n n n n b n n b b b n b b n n n n n v q : 1 t l D ^ ~ E ~ E ( E N % 7 v n n n n n n n n n n n n n n n n n n n n n ",
"n n n n n n n n n n n n n n b b n n n n n n n n n n x 3 o o = h S A Z Z Z S C i @ e n n n n n n n n n n n n b n n n n n n n n n ",
"n n n n n n n n n n n n n n n n b b b n b n n n n n b c y v q , : ; ; ; - ; = w c b n n b b n n n n n n n n n n n n n n n n n n ",
"n n n n n n n n n n n n b n n b b b n n n n n b n n n n n n c @ X           o x b m n n b m n n n n n n n n n n n n n n n n n n ",
"n n n n n b n n n n b n n b n b b b b b b n n n n n n n n n n n n n n n n n n n n n n n n n n n n n n n n n n n n n n n n n n n ",
"n n n n n n n n b n n n n b b n b b b b n b b b b b n b b n n n n n n n n n n n n n n n n n n n n n n n n n n n n n n n n n n n ",
"n n b n b b n n n b n n b n n b b b b b v b b b n n n n n b b b n n n n n n n n n n n n n n n n n n n n n n n n n n n n n n n n ",
"n n n b b n n n n b b n v n b b b b b b n b n b n b b n n n n n n n n n n n n n n n n n n n n n n n n n n n n n n n n n n n n n ",
"n b n b n n n v b b v n n n n b b b b b n l b n n n b n n n n n n n n n n n n n n n n n n n n n n n n n n n n n n n n n n n n n ",
"n n b n n b n n n b n n b b n n b b b c b c b b b b b n b b n n n n n n n n n m n n n n n n n n n n n n n n n n n n n n n n n n ",
"n n n n n n n n n n n n n n n n n n n n n n n b n b n b b n n n n n n n n n n n n n n n n n n n n n n n n n n n n n n n n n n n ",
"n n n n n n n n n b b n v n n n n n n n n n b n n b b n n n b n n n n n n n n n n n n n n n n n n n n n n n n n n n n n n n n n ",
"n n n n n n n n n n n n n n n n n n n n n n n n b n n n n n n n n n n n n n n n n n n n n n n n n n n n n n n n n n n n n n n n ",
"n n n n n n n n n n n n n n n n n n n n n n n n b n b b n b n n n n n n n n n n n n n n n n n n n n n n n n n n n n n n n n n n ",
"n n n n n n n n n n n n n n n n n n n n n n n n n b n b b n n b n b n b n n n b b n n n n n n n m b n n b n n n n n n n n n n n ",
"n n n n n n n n n n n n n n n n n b n b n n n n b n b b b n n b b n b n n n n b b b n b n n n n n n n n m n n n n n n n n n n n ",
"n n m n n n n n n n n n n n n n n n n n n n n n n n n b n b b n b b n b b n n n n n b b n n n n n n n n n n n n n n n n n n n n ",
"n n n n n n n n n n n n n n n n n n n n b n n n n n n n b n n n b n b n b b n n b n b n n n n n n n n n n n n n n n n n n n n n "
};
