/* XPM */
static char *result[] = {
/* columns rows colors chars-per-pixel */
"64 64 126 2 ",
"   c #000000",
".  c #0C0304",
"X  c #050908",
"o  c #0C0B0D",
"O  c #130305",
"+  c #1C0206",
"@  c #1E0509",
"#  c #0E0E11",
"$  c #131416",
"%  c #191116",
"&  c #16161A",
"*  c #191B1C",
"=  c #210106",
"-  c #25060B",
";  c #2C070D",
":  c #2F080E",
">  c #390007",
",  c #30070E",
"<  c #3D010A",
"1  c #33080F",
"2  c #220B10",
"3  c #360911",
"4  c #3B0A12",
"5  c #3D0F18",
"6  c #34121A",
"7  c #3D121A",
"8  c #1F1F25",
"9  c #371620",
"0  c #361A23",
"q  c #391D25",
"w  c #361F28",
"e  c #3D1E28",
"r  c #212324",
"t  c #25252D",
"y  c #29252C",
"u  c #29292C",
"i  c #3E2025",
"p  c #34222B",
"a  c #3B232D",
"s  c #2B2731",
"d  c #2B2B34",
"f  c #3B2631",
"g  c #332E37",
"h  c #3B2B36",
"j  c #372E3A",
"k  c #3C2E39",
"l  c #313333",
"z  c #33333D",
"x  c #3D323D",
"c  c #373A3A",
"v  c #3B3E3D",
"b  c #410710",
"n  c #430A14",
"m  c #4B0C16",
"M  c #440E18",
"N  c #4D0E18",
"B  c #500C17",
"V  c #530D19",
"C  c #5C0E1B",
"Z  c #44111B",
"A  c #4C131E",
"S  c #5E111D",
"D  c #620F1D",
"F  c #750B1C",
"G  c #790A1C",
"H  c #64101E",
"J  c #6A101F",
"K  c #441520",
"L  c #4B1621",
"P  c #431B26",
"I  c #4B1824",
"U  c #4D1D28",
"Y  c #501925",
"T  c #5F1B29",
"R  c #671220",
"E  c #6C1120",
"W  c #6A1C2C",
"Q  c #741222",
"!  c #7D1325",
"~  c #7F1528",
"^  c #42222D",
"/  c #412631",
"(  c #412A35",
")  c #692A3A",
"_  c #353541",
"`  c #3B3541",
"'  c #3E3A46",
"]  c #3F3F4C",
"[  c #403A45",
"{  c #403E4A",
"}  c #523948",
"|  c #454746",
" . c #484142",
".. c #40404D",
"X. c #4E4F4F",
"o. c #514B4C",
"O. c #4F5050",
"+. c #505050",
"@. c #66494E",
"#. c #694C51",
"$. c #7C5F64",
"%. c #6C6C6C",
"&. c gray44",
"*. c #831427",
"=. c #861628",
"-. c #8B1629",
";. c #8E182B",
":. c #91172B",
">. c #94182D",
",. c #9A192E",
"<. c #9E1A30",
"1. c #A21B31",
"2. c #A91C33",
"3. c #B11E36",
"4. c #8E8E8E",
"5. c #979999",
"6. c #9D9F9F",
"7. c #B5B9B8",
"8. c #BDC0C0",
"9. c #C6C0C1",
"0. c #C7C9C9",
"q. c #CCCACA",
"w. c gray82",
"e. c gray85",
"r. c #F1F4F3",
"t. c #FFFEFF",
/* pixels */
"..............................] ......................................................X.................] ..] ] ] ....] ..] ] ..",
"................................] ......] ................................................................] ..] ] ] ] ] ] ] ] ] ",
"..........] ......{ ............] ......] ............................................................{ ] ] ....] ] ] ] ] ] ] ] ",
"........................] ..] ] ] ......k 3 3 3 : 3 3 3 1 , 3 , 4 3 3 0 ] ....X.........................] ..] ..] ] ] ] ] ] ] ] ",
"..........................] ....{ ..] ` f M m m M M M m m m M m m N V P [ ' ] { ....................] ..] ] ] ] ] ] ] ..] ] ] ] ",
"............X.......................x 0 Z R Q *.=.=.=.=.-.-.-.-.=.:.:.Q Z w ] { ................................] ] ] ] ] ] ' ] ",
"............................] ..{ ' a 4 D *.>.1.2.2.2.<.<.<.<.<.<.<.<.-.C 5 k ] ..............................] ......] ] ] ] ] ",
"................................j q A D ! :.1.1.2.3.2.*.R H E E R R R Q *.! I p ' ....................] ................] ] ] ] ",
"..............................{ q n D *.>.1.1.1.1.1.;.C , , 1 3 3 1 , V :.,.H 3 h ......................................] ] ] ] ",
"............................` h A D ! >.,.1.2.2.1.*.D , O O O O O O O ; H ! *.Q I p ' ....................] ] ..........] ..] ] ",
"........................{ ' 9 n D *.>.<.1.1.1.2.;.C : O               . - B ;.,.E 3 p ................] ....] ............] ] ] ",
"........................{ ] 9 n J =.,.1.2.1.,.*.S 3 O                   . ; D ! ! E Y h ` ] ......] ] ....] ................] ..",
"......................{ { ' 9 5 D *.>.1.2.2.=.V ; O                       . ; m *.<.Q 4 p { ........] ....] ..............] ..] ",
"......................{ ` ( L C E *.>.1.2.2.=.m @                           O n =.2.! n 0 { ..] ..............................] ",
"....................{ { 3 M H ! ! *.:.1.1.2.=.m ; .                         + m =.1.Q 4 p ' ........] ........] ......] ] ] ] ..",
"....................] ] 4 m E -.=.=.;.>.1.2.=.B -   X l | r           $ v  .0 n ! <.Q 5 i ] ..............................] ] ] ",
"........................3 M J =.-.=.=.=.>.1.-.B =   * 5.w.%.          v 7.9.@.< G 1.! 4 w ' ..............................] ....",
"........................4 M E *.! Q Q *.:.1.-.B =   r 0.t.4.          +.r.t.$.> G 1.Q 4 w ] ..............................] ....",
"........................4 m Q =.D m C ! >.1.-.B =   r 0.t.4.          +.r.t.$.> G 1.Q 4 w { ................................] ] ",
"........................6 Z J Q B 3 V ! ,.1.-.B =   * 6.e.&.          v 8.q.#.< G <.Q 4 w ' ............................] ..] ] ",
"........................` ( L V b 3 C ! ,.2.=.m @   X c +.u           & | o.i b E -.J 4 p { { ..................] ..] ....] ....",
"........................{ ] e 3 3 4 C ! :.1.=.V , O                         + n E *.D 4 0 ] ....................] ..] ......] ] ",
"........................{ { _ j 6 4 D =.;.;.;.=.R 3 O                       + 4 E =.J b 0 ] ....................] ] ] ..] ....] ",
"........................{ { ..] e 4 C ! *.~ ;.1.:.C , O                   . - m E ! D 4 i { ........................] ....] ....",
"......] ] ....................] ` f L C Q ! :.<.:.! V 1 O .             O ; m D J C A a x ......................] ] ] ] ] ......",
"] ] ..] ....] ] ................{ { f 4 C ~ *.*.*.*.! V 1 O           . ; n Q *.S 3 a ........] ..............] ] ..............",
"....] ] ........] ..............{ { ` f K C D C D ! *.Q V , O . O O . - M R J H P a ' ] ] ..........] ......] ] ......] ....] ] ",
"] ..] ] ] ..] ..................{ { ] { h 5 4 3 m Q *.*.! V 1 , , , : n Q Q V 3 h ] ] ..] ] ] ............] ] ..] ............] ",
"] ] ..] ........] ..................' ` ^ m B m V Q *.:.:.! H S D C D Q ;.-.D M a x ' ..] ] ] ] ..] ......] ] ..] ..........] ..",
"] ] ] ] ] ..........................j 6 B E ! Q F ! *.>.<.,.>.>.>.>.>.,.<.,.=.Q N 6 h ] ] ] ] ] ........] ......] ..........] ] ",
"] ..] ] ........................{ ` P B E -.:.:.:.-.-.,.1.2.2.2.2.2.2.2.2.1.,.=.E m i x ' ] ....] ] ..] ..] ] ] ] ........| ] ] ",
"] ] ....] ....] ..............] ` 7 V Q -.,.<.<.,.,.,.<.1.1.1.1.1.1.1.1.<.1.<.,.=.Q V 7 f v | ] ] ] ] ] ] ] ] ..] ....] ..] ] ] ",
"..] ] ..] ..] ................{ q 4 H *.>.1.2.1.1.2.1.1.1.1.1.<.1.1.1.1.1.1.1.1.>.*.D n 0 ' ] ] { ] ] ] ] ] ] ] ] ..| ....] ] ] ",
"......{ ..] ..] ] ] ..........' q 4 S ! :.<.1.2.1.1.<.1.<.1.1.1.1.1.1.<.<.1.2.<.>.! D 4 p ' ] ] ] ] ] ' ] ] ] v ] ] ] ] ] ] ] ] ",
"] ] ..] ] ] ] ] ..............{ p 4 H *.>.1.2.,.1.<.1.1.1.1.1.1.1.1.<.1.<.1.1.,.>.*.D 3 q { ] ..] ] ] ] { ..{ ] ....] ] v ] ] { ",
"] ] ......] { ] ..] ] ..........w 4 H :.1.1.1.1.1.1.<.1.1.1.1.<.1.1.1.1.1.1.<.2.1.>.H 3 p ..{ ..] ..] ] ] ] ..] ] ] ] ] ] ] ] ] ",
"......] ..] ] ..] ..] ........[ 0 n Q ,.2.1.1.1.1.1.1.1.<.1.1.<.1.1.1.,.1.1.1.1.2.,.Q n q [ ] ....] ..] ] ] ] ..] ..] ] ..] ] ] ",
"........] ] ..] ..] ....] ' h e A H =.1.2.1.1.,.1.,.1.1.<.2.<.2.1.1.1.1.1.<.<.1.2.1.=.H A i h ] ......] ] ] ] ] ....] ] ] ..] ] ",
"......] ........] ........' 9 n H *.>.1.1.1.1.1.1.1.1.1.1.<.<.<.1.1.2.1.1.1.1.1.1.<.>.*.H n 9 ' ................] ....] ..] ....",
"..............] ........] ' 0 n H =.,.1.2.,.1.1.1.1.,.1.1.1.1.,.:.>.,.1.1.,.1.2.2.1.>.-.H n 9 ' ..........] ..] ] ....] ] ] ....",
"................] ........' 0 n H *.>.<.2.<.1.<.1.1.1.1.1.1.<.>.*.-.,.2.1.<.1.<.1.<.,.*.D n 9 [ ......] ] ............] ....] ..",
"................] ....] k / L C Q *.-.:.,.<.1.1.<.1.1.<.1.1.1.:.*.-.<.1.1.<.,.>.<.1.:.*.J C L / j ..................] ..] ......",
"................{ ......3 M R ! *.*.! *.:.<.2.<.1.1.1.<.1.2.<.:.=.;.<.2.2.,.=.*.,.<.:.*.! *.J M 3 ............] ................",
"................] ] ....3 m Q =.=.! =.=.>.<.1.1.1.<.1.1.1.<.,.*.J Q :.,.1.<.:.-.:.,.:.-.;.;.J m 3 ............] ..........] ] ..",
"............] ..{ ....{ 1 m J =.*.*.:.<.<.1.<.2.1.1.1.2.<.>.=.D n V ! :.<.1.<.,.-.=.>.<.,.=.J n 1 ..............................",
"..........] ............1 n J =.*.*.:.,.1.1.,.,.,.<.<.<.,.:.! C 4 M Q -.>.<.2.<.;.! -.,.,.=.J n 4 ..............................",
"......................{ 1 m J *.*.=.=.=.>.1.,.-.-.,.<.>.=.-.=.D b B ! ;.=.-.<.1.;.*.*.*.-.=.Q M 3 ..............................",
"......................{ 1 n J *.*.Q Q ! ;.,.,.=.-.,.<.-.*.! Q B , n J ! ! =.,.,.-.*.! *.*.G H Z 7 ..............................",
"........................3 M Q =.D B H =.-.=.:.>.,.1.1.,.*.J V : O @ b S ! *.-.-.-.*.=.~ E C K k ` ..............................",
"........................6 M J Q B 4 V Q ! *.=.,.1.1.,.-.Q V , O   . ; B Q *.*.! ! ! *.*.D 5 w ] ................................",
"....................] ..x ^ A C m 4 n V J *.-.;.:.:.=.J N : O     . , B ! -.-.! C B Q -.W ( ] ] ................................",
"................] ........[ q 4 3 4 3 3 B Q *.*.*.=.! V , O       O ; B E *.*.! B 4 D ~ ) { ....................................",
"....] ..] ] ..] ..] ] ] { ' x a a h 6 3 n C E ~ =.-.! C , O       . O ; m H ~ *.Q D T } ........................................",
"....] ] ....] ] ] ..] ] ] ] ......] f 3 4 3 N Q =.=.Q C 1 O           . ; m E *.:.~ ) [ ........................................",
"..] ......] ..] ..] ] ] ........] { x a e p P C J J H U a y 8 r 8 $   . ; b C D W ) } { ........................................",
"....] ....] ] ] ] ] ] ] ] ] ....] ] ] ' ] ] k 7 n n M h ..{ { ..] s X . 1 4 m 5 [ { { { ........................................",
"................] ............| ............' f 6 - 2 g ] ........` t % @ - 6 p ] ] ] ..........O...............................",
"..................] ] ..] ....] ............] ..g o . u ..............d X . d { ....] ] ........................................",
"................................................_ # X u ......] ..] _ t $ 8 _ ] ................................................",
"................................................_ #   u ] ] ......d # $ d ] ..{ ................................................",
"................................................z X X t ] ....] ] t   o _ ] ] ] ................................................",
"..................................] ] ..........] ] ] ] ] ....] ] ] ] ] ] ] ] ] ......] ........................................",
"....................................................] ] ..] ] ..........] ......................................................",
"........................................] ..............] ..] ..] ......] ......................................................"
};
