/* XPM */
static char *result[] = {
/* columns rows colors chars-per-pixel */
"64 64 104 2 ",
"   c #010000",
".  c #0B0103",
"X  c #0B0B0C",
"o  c #130103",
"O  c #190307",
"+  c #1D0408",
"@  c #120E10",
"#  c #131314",
"$  c #121817",
"%  c #151519",
"&  c #23060A",
"*  c #2C070D",
"=  c #30070E",
"-  c #33080F",
";  c #270C12",
":  c #2D0F16",
">  c #360A11",
",  c #3C0A12",
"<  c #360F18",
"1  c #36141C",
"2  c #3C121C",
"3  c #1C1C22",
"4  c #231920",
"5  c #2E1B23",
"6  c #341720",
"7  c #361B23",
"8  c #3B1D26",
"9  c #341F29",
"0  c #3D1E28",
"q  c #202027",
"w  c #24232A",
"e  c #2C2F2E",
"r  c #36222B",
"t  c #3A222C",
"y  c #3E292C",
"u  c #2D2D38",
"i  c #3C2631",
"p  c #352A34",
"a  c #3C2A35",
"s  c #3B2E3A",
"d  c #343535",
"f  c #36313B",
"g  c #3C323D",
"h  c gray24",
"j  c #430B14",
"k  c #4B0C16",
"l  c #4C0E19",
"z  c #530D19",
"x  c #5C0E1B",
"c  c #45111B",
"v  c #4D131D",
"b  c #52141F",
"n  c #5B101C",
"m  c #640313",
"M  c #620F1D",
"N  c #6F0E1E",
"B  c #65101E",
"V  c #69101F",
"C  c #421721",
"Z  c #4C1521",
"A  c #411924",
"S  c #4B1A24",
"D  c #561622",
"F  c #591723",
"G  c #671120",
"H  c #6D1120",
"J  c #741222",
"K  c #7C1425",
"L  c #40222D",
"P  c #412631",
"I  c #422B33",
"U  c #3D3642",
"Y  c #3E3A46",
"T  c #3F3F4C",
"R  c #403B46",
"E  c #413E4A",
"W  c #3F4141",
"Q  c #444544",
"!  c #40404D",
"~  c #484949",
"^  c #535454",
"/  c #831427",
"(  c #861528",
")  c #8B1629",
"_  c #91172B",
"`  c #95182D",
"'  c #9A192E",
"]  c #9E1A30",
"[  c #A21B31",
"{  c #A91C33",
"}  c #B01E36",
"|  c #887377",
" . c #8D787B",
".. c #8A8D8D",
"X. c #909392",
"o. c #AC979B",
"O. c gray71",
"+. c #B6BAB9",
"@. c #BCBDBD",
"#. c #C6C7C7",
"$. c #D4D3D3",
"%. c #DDDCDC",
"&. c gray94",
"*. c #FEFEFE",
/* pixels */
"! ! ! ! ! ! ! ! ! ! ! ! ! ! ! ! T ! ! ! ! ! E E ! ! ! ! ! ! ! ! ! ! ! ! ! ! ! ! ! ! ! ! ! ! ! ! ! ! ! ! T ! T T T W ! ! ! ! ! ! ",
"! ! ! ! ! ! ! ! ! ! ! ! ! ! ! ! ! W E ! ! ! E T ! ! ! ! ! ! ! ! ! ! ! T ! ! ! ! ! ! ! ! ! ! ! ! ! ! ! ! ! T ! T T T W T ! ! ! ! ",
"! ! ! ! ! ! ! ! ! ! ! ! ! ! ! ! T ! ! ! ! ! ! T E E ! ! T E T T ! E E T E E ! ! ! ! ! ! ! ! ! ! ! ! ! ! T T ! E T T T T T T T T ",
"! ! ! ! ! ! ! ! ! ! ! ! ! ! ! ! T ! ! ! ! ! ! U < > < 1 = > > - < < > > < < Y ! ! ! ! ! ! ! ! ! ! ! ! ! T W ! ! T T E T T T T T ",
"! ! ! ! ! ! ! ! ! ! T ! ! ! ! ! E W T T T T U L j l l l j k l k k l k l z l P T E ! ! ! ! ! ! ! ! ! ! ! ! T T T T T T T T T T T ",
"! ! ! ! ! ! ! ! ! ! ! ! ! ! ! ! ! ! ! ! T s 7 b G K / / / / ) ) ) ) ) ) _ ( D 6 f E ! ! ! ! ! ! ! ! ! ! ! ! ! ! T T T T T T T T ",
"! ! ! ! ! ! ! ! ! ! ! ! ! ! ! ! W ! T E Y 0 j M / ' [ { { [ ] ] ] ] [ ] { ' H j t T ! ! ! ! ! ! ! ! ! ! ! ! ! W T W T T T T T T ",
"! ! ! ! ! ! ! ! ! ! ! ! ! ! ! ! T T T f 8 l M / ` [ [ } } ' J G V G G G G H K / F 9 U ! ! ! ! ! ! ! ! ! ! ! ! ! ! ! T T T T T T ",
"! ! ! ! ! ! ! ! ! ! ! ! ! ! ! ! T T R 8 j G ( ` [ [ [ [ [ K k * - > > = * , K [ J , t ! T ! T ! ! ! ! ! ! ! ! ! ! ! ! ! ! ! ! ! ",
"! ! ! ! ! ! ! ! ! ! ! ! ! ! ! ! E g 0 v B / ` ] [ { { ` K z & . o O O o . + l K ( K F t U E ! ! ! ! T ! ! ! ! ! ! ! ! ! ! ! T T ",
"! ! ! ! ! ! ! ! ! ! ! ! ! ! ! ! Y 7 j M / ` [ [ [ { [ / k & .               + j K ] K , 9 E ! ! ! ! ! T ! ! T ! ! ! ! ! ! ! T T ",
"! ! ! ! ! ! ! ! ! ! ! ! ! ! ! ! Y 6 j G ( ' [ { [ ` K z & .                 . + l K / H D i U W ! ! ! T ! ! ! ! ! ! ! ! ! ! T T ",
"! ! ! ! ! ! ! ! ! ! ! ! ! ! ! ! Y 7 , M ( ` [ { [ K c & .                       + , J ' K j 9 Y ! ! ! T ! T ! ! ! ! T T ! T ! ! ",
"! ! ! ! ! ! ! ! ! ! ! ! ! ! E T i Z x J ( ` [ { [ K , O                         . - J { ) k 1 Y ! ! ! ! ! ! ! ! ! ! ! T ! ! ! T ",
"! ! ! ! ! ! ! ! ! ! ! ! E E T r , M K / / _ [ { [ K j + .                       o - J [ / j 7 Y ! ! T ! ! ! ! ! ! ! ! ! T T T T ",
"! ! ! ! ! ! ! ! ! ! E E E U P C x K ( ( ( ) ' [ [ K j +   # W h #         . e ~ y , N [ / j r Y ! ! ! ! ! ! ! ! ! T ! ! T T T T ",
"! ! ! ! ! ! ! ! ! ! ! ! ! 6 c G K K / ( ( / ( ' [ K j o   Q @.O.d         # ..$.| , m [ K k 7 Y ! ! ! ! ! ! ! ! ! ! ! ! ! T ! ! ",
"! ! ! ! ! ! ! ! ! ! ! ! E < k J ) ) / J J J K ` [ K j o   ^ *.&.Q         # +.*.o., m [ / j 7 Y ! ! ! ! ! ! ! ! ! ! ! ! ! T ! ! ",
"! ! ! ! ! ! ! ! ! ! ! ! E < l J ) _ K M k M / ' [ K j o   ^ *.&.Q         # +.*.o.> m [ / j 7 Y ! ! ! ! ! ! ! ! ! ! ! ! ! ! T T ",
"! ! ! ! ! ! ! ! ! ! ! ! E 2 l G K / J k > x / ' [ K j o   W #.@.d         # X.%. ., m ] K j 7 Y ! ! ! ! ! ! ! ! ! ! ! ! T ! T T ",
"! ! ! ! ! ! ! ! ! ! ! ! T U a Z x x z , > x K ] [ K , o   $ ~ ~ #         . d ^ I , M ( J j 7 R ! ! ! ! ! ! ! ! ! ! T ! ! T ! ! ",
"! ! ! ! ! ! ! ! ! ! ! ! T T T 9 > > < - , M / ' ] / l * .                       o , M / G j 7 R ! ! ! ! ! ! ! ! T ! ! ! ! ! T T ",
"! ! ! ! ! ! ! ! ! ! ! ! E E T U i a i < j V / _ ) ) K n * .                     . > M ( N k 6 Y ! ! ! ! ! ! ! ! T T T ! T ! ! ! ",
"T ! ! ! ! ! ! ! ! ! ! ! E E ! ! T T T 9 , M K / / ` [ ( k & .                 . + , M K V j 8 Y ! ! ! ! ! ! ! ! ! ! T ! ! T ! T ",
"! T ! T T ! ! ! ! ! T ! ! ! ! ! T E T Y i Z M N / ` ] ) N k & .             . + j M V M b 0 U T ! ! ! ! ! ! ! ! T T T ! T ! T W ",
"T T T T ! ! ! ! ! ! ! ! ! ! ! ! E T E T T i , M K ( / ( ( N k & .           O , G / V , 9 E E T ! ! ! ! ! ! T T T T T ! T T ! ! ",
"T ! T T ! ! ! ! T ! ! ! ! ! ! ! ! ! E ! E Y r S M M M V ( / B k & . o o . o , x V M Z 0 U E T E ! ! ! ! ! ! ! T ! ! ! ! ! ! ! ! ",
"! ! T T T ! T ! ! ! ! ! ! ! ! ! ! ! T ! E E E i , , > z J ( / H j * * > * , M K M , t T T T T E ! ! ! ! ! ! T T T T ! ! ! ! ! ! ",
"T T ! T ! ! ! ! T ! ! ! ! ! ! ! ! ! ! ! ! T U A k k k x J ) _ ( H x M G M G ( ) J k 8 a Y T T T ! T ! ! ! T T T T ! ! ! ! ! ! ! ",
"! ! T T T ! ! ! ! ! ! ! ! ! ! ! ! ! E T E p < z J K J K K ) ' ] ` ` ` ` ` ` ] ] _ J z 2 r T T T ! T ! ! ! ! ! ! T T ! ! ! ! T ! ",
"! ! T T ! ! ! ! ! ! ! ! ! ! T ! ! ! ! T U A z J ) ` _ ) ) _ ] { { { { { { { { [ ] ) N z 8 a Y T T T ! T T ! ! T T ! ! ! T ! T ! ",
"T ! ! ! T ! ! T ! ! ! ! ! ! ! ! ! ! E a 2 n J ) ' ] ] ' ' ] ] [ [ [ [ [ [ [ [ [ [ ] _ K n 2 p T T T ! T T T T T T ! ! ! ! ! T T ",
"! T T T T T T ! ! ! ! ! ! ! ! ! W Y T 7 j M ( ` [ { [ [ [ [ [ ] [ [ [ [ ] [ [ ] [ [ ' ( V j 7 Y ! W T T T T T T T T ! ! ! ! T T ",
"T ! ! T T ! T T ! ! ! ! ! ! ! ! T T T 8 j M ( ` [ [ [ [ [ [ [ [ [ [ [ ] [ [ [ [ [ [ ' ( V j 1 Y Y W T T T T T T T T ! ! T ! T T ",
"! ! ! ! T T T T ! ! ! W ! ! ! ! ! ! T 8 , M ( ` [ [ [ ] [ [ [ [ [ ] [ [ ] [ [ ] [ [ ' ) V j 7 Y T T T T T T T T T T T W T T T T ",
"T T T ! T ! T T ! ! ! ! E ! ! ! ! ! T 9 , H ` [ [ [ [ [ ] [ [ ] [ [ [ [ [ [ [ [ [ [ ] ' J j 7 Y T ! T T T T T ! T T W T T T T T ",
"! ! T ! T ! T ! ! ! ! ! ! ! ! ! ! E E 8 j K [ { [ [ [ [ [ ] [ [ [ [ [ [ [ [ ] [ [ ] { [ K j 8 Y ! T W T T T ! ! T T T T T T T T ",
"! ! T ! ! ! T ! ! ! ! ! W T ! ! T s 0 Z V ( [ [ [ ] ] [ [ [ [ [ ] [ [ [ [ [ [ [ [ [ [ { K , 5 E ! ! ! E ! ! ! ! T T T T T T T T ",
"! ! ! ! ! ! T ! ! ! ! ! ! ! T E E 7 j B ( ` [ [ [ [ [ [ [ ] ] [ [ [ ] ] [ [ ] [ [ [ { [ K j 7 U ! T T T E ! ! ! T ! ! T ! ! T T ",
"! ! ! ! ! ! ! ! ! ! ! ! ! E E E T 6 j V ( ` [ [ [ [ ] [ [ [ [ [ [ ] ` ` ] [ [ [ [ [ [ [ ( B Z L U T E E ! W ! ! ! ! ! T ! ! W T ",
"! ! ! ! ! ! ! ! T ! ! T ! ! T E Y 7 j M ( ` [ [ [ [ [ [ [ [ [ [ [ ] ( ( ' [ [ [ [ [ [ [ ` ( N j 7 T ! E T ! T ! ! ! ! ! ! ! ! ! ",
"! ! ! ! ! ! ! ! T ! ! T ! T Y U P Z x N / ` [ [ ] [ [ ] [ ] [ [ [ ] ) / ) ` ' [ [ [ [ [ ' ) N j 1 T ! T T ! ! ! ! ! ! ! ! ! T ! ",
"! ! ! ! ! T ! ! T ! T ! W E T 8 j B / / / _ [ [ [ [ [ [ [ [ ] [ [ ] ) / / ( ' [ [ [ [ [ ` ( M j 6 Y T T T T ! ! ! ! ! ! ! ! ! T ",
"! ! ! ! ! ! ! ! T T ! ! ! ! Y 6 k H ( ( / _ ] { ] [ [ [ [ [ [ [ ] _ J G N / ` [ { [ ' ' _ / J x Z a Y ! ! ! ! ! ! ! ! ! ! ! ! ! ",
"! ! ! ! ! ! ! ! T ! ! T E E U 1 j H / / / ` [ { [ [ [ [ [ [ { ] ` J z j V ( ' [ [ [ ` ( / / / K G c < T ! ! ! ! ! ! ! ! ! ! ! ! ",
"! ! ! ! ! T ! ! ! ! ! ! T E U 7 j N / / ( ) ` ] [ ] ' ' [ [ ' ` ) J j , M ( ` ' [ [ _ K K / ( ) J k > T ! ! ! ! ! ! ! ! ! ! ! T ",
"! ! ! ! ! ! ! ! ! ! ! T ! ! U 6 j H ( ( ( ( ( ` { ` ( ) [ ] ) ( ) J k j V ( ( ( ' [ ' / K / / ( H k > E ! ! ! ! ! ! ! ! ! ! ! ! ",
"! ! ! ! ! ! ! ! ! ! ! ! ! ! U 6 l N ( K J K K _ ' ` ( ) ' ` ( / K V , - x K K / _ ' _ ( / K / ( H k > E ! ! ! ! ! ! ! ! ! ! ! ! ",
"! ! ! ! ! ! ! ! ! ! ! ! ! ! T 6 k J / B l B / ( ) _ ' ` ) ) ) K M j + o > z H / ) ) ) / ( K ( ) J k > E ! ! ! ! ! ! ! ! ! ! ! ! ",
"! ! ! ! ! ! ! ! ! ! ! ! T ! U 9 k V J z > x / / K ) ] ' ( K K G j &     O , B ( / K K K K / ( K G c < E ! ! ! ! ! ! ! ! ! ! ! ! ",
"! ! ! ! ! ! ! ! ! ! T ! T T T U i Z x j , M / ) / ) ) ) / J M j & .     & j H ( ) / V k M / K M v i U E ! ! ! ! ! ! ! ! ! ! ! ! ",
"! ! ! ! T ! ! ! T ! ! ! T T T T Y 8 > = , M K / K / / ( ( H j & .     . + , M / / / M , z K H j 7 T E E ! ! ! ! ! ! ! ! ! ! ! ! ",
"! ! T ! T ! T ! ! T T E T T T T T U r i i Z x M x H / ) ) N k & .       . & , x J ) J M M M v t U T E ! ! ! ! ! ! ! ! ! ! ! ! ! ",
"! ! T T ! T T T T T T T T T T T T T T T E i > > , z K ( ( N l & .           + , M / ) / G , 7 Y T T ! ! T ! ! ! ! ! ! ! ! ! ! ! ",
"! T ! ! T ! ! T T ! T T E T T T T T T Y E U w 9 0 S M V B M k = 3 w w 3 X   + , z M N N D t U ! T E E E ! ! ! ! ! ! ! ! ! ! ! ! ",
"! ! T ! ! T ! ! W T E E T T T T T T Y T T Y T T T a 2 j j , , 2 Y W W U %   & , j , j , 0 T T T E E T E ! ! ! ! ! ! ! ! ! ! ! ! ",
"! ! ! ! ! ! ! ! ! ! E ! ! ! ! W ! ! ! W ! ! T T T u + + 7 0 8 U E E ! ! u 3 4 9 : + ; 9 U T ! ! ! ! ! ! ! ! ! ! ! ! ! ! ! ! ! ! ",
"! ! ! ! ! ! ! ! ! ! ! T ! ! ! ! ! ! ! ! ! ! T T E w X X U E Y T E E ! ! T T E R 3   3 Y T T ! ! ! ! ! ! ! ! ^ ! ! ! ! ! ! ! ! ! ",
"! ! ! ! ! ! ! ! ! ! ! ! ! ! ! ! ! ! ! ! ! ! ! U U 3 @ q T T ! ! E ! E ! ! E E E 3 X q T E E E ! ! ! ! ! ! ! ! ! ! ! ! ! ! ! ! ! ",
"! ! ! ! ! ! ! ! ! ! ! ! ! ! ! ! ! ! ! ! ! ! ! U X % U T T T ! ! E ! ! ! ! E E E 3 X 3 T E E T E ! ! ! ! ! ! ! ! ! ! ! ! ! ! ! ! ",
"! ! ! ! ! ! ! ! ! ! ! ! ! ! ! ! ! ! ! ! ! ! ! 3   3 T T ! ! ! ! ! ! ! ! ! T T T q X 3 T ! ! ! ! ! ! ! ! ! ! ! ! ! ! ! ! ! ! ! ! ",
"! ! ! ! ! ! ! ! ! ! ! ! ! ! ! ! ! ! ! ! ! ! ! ! T T T T ! ! T T ! ! ! E ! ! T T ! ! T T ! ! ! ! ! ! ! ! ! ! ! ! ! ! ! ! ! ! ! ! ",
"! ! ! ! ! ! ! ! ! ! ! ! ! ! ! ! ! ! W ! ! ! ! ! T T T T ! ! T T T T W ! ! T ! ! ! ! ! ! ! ! ! ! ! ! ! ! ! ! ! ! ! ! ! ! ! ! ! ! ",
"! ! ! ! ! ! ! ! ! ! ! ! ! ! ! ! ! ! ! ! E ! ! T T T T T ! ! W T ! T ! ! T ! ! ! ! ! ! ! ! ! ! ! ! ! ! ! ! ! ! ! ! ! ! ! ! ! ! ! "
};
